SplineFontDB: 3.2
FontName: AtkinsonHyperPro-Regular
FullName: Atkinson Hyperlegible Pro Regular
FamilyName: Atkinson Hyperlegible Pro
Weight: Regular
Copyright: Copyright 2020 Braille Institute of America, Inc.
Version: 1.000
ItalicAngle: 0
UnderlinePosition: -106
UnderlineWidth: 57
Ascent: 800
Descent: 200
InvalidEm: 0
sfntRevision: 0x00010000
LayerCount: 2
Layer: 0 1 "Back" 1
Layer: 1 1 "Fore" 0
XUID: [1021 466 782043844 18134]
StyleMap: 0x0040
FSType: 0
OS2Version: 4
OS2_WeightWidthSlopeOnly: 0
OS2_UseTypoMetrics: 1
CreationTime: 1615339189
ModificationTime: 1695628111
PfmFamily: 81
TTFWeight: 400
TTFWidth: 5
LineGap: 0
VLineGap: 0
Panose: 0 0 0 0 0 0 0 0 0 0
OS2TypoAscent: 950
OS2TypoAOffset: 0
OS2TypoDescent: -290
OS2TypoDOffset: 0
OS2TypoLinegap: 0
OS2WinAscent: 950
OS2WinAOffset: 0
OS2WinDescent: 290
OS2WinDOffset: 0
HheadAscent: 950
HheadAOffset: 0
HheadDescent: -290
HheadDOffset: 0
OS2SubXSize: 650
OS2SubYSize: 699
OS2SubXOff: 0
OS2SubYOff: 140
OS2SupXSize: 650
OS2SupYSize: 699
OS2SupXOff: 0
OS2SupYOff: 479
OS2StrikeYSize: 49
OS2StrikeYPos: 258
OS2CapHeight: 668
OS2XHeight: 496
OS2Vendor: 'NONE'
OS2CodePages: 20000003.00000000
OS2UnicodeRanges: 800000ef.0000204b.00000000.00000000
Lookup: 4 0 1 "'liga' Standard Ligatures lookup 0" { "'liga' Standard Ligatures lookup 0-1"  } ['liga' ('DFLT' <'dflt' > 'grek' <'dflt' > 'latn' <'MOL ' 'dflt' > ) ]
Lookup: 1 0 0 "'zero' Slashed Zero lookup 0" { "'zero' Slashed Zero lookup 0-1"  } ['zero' ('DFLT' <'dflt' > 'grek' <'dflt' > 'latn' <'MOL ' 'dflt' > ) ]
Lookup: 1 0 0 "'aalt' Access All Alternates lookup 0" { "'aalt' Access All Alternates lookup 0 subtable"  } ['aalt' ('DFLT' <'dflt' > 'grek' <'dflt' > 'latn' <'dflt' > ) ]
Lookup: 3 0 0 "'aalt' Access All Alternates lookup 1" { "'aalt' Access All Alternates lookup 1 subtable"  } ['aalt' ('DFLT' <'dflt' > 'grek' <'dflt' > 'latn' <'dflt' > ) ]

StartChar: .notdef
Encoding: 256 -1 0
Width: 523
GlyphClass: 1
Flags: W
HStem: 0 21<77 447> 680 20<76 447>
VStem: 48 21<49 650> 455 20<47 652>
LayerCount: 2
Fore
SplineSet
48 0 m 1,0,-1
 48 700 l 1,1,-1
 475 700 l 1,2,-1
 475 0 l 1,3,-1
 48 0 l 1,0,-1
261 371 m 1,4,-1
 447 680 l 1,5,-1
 76 680 l 1,6,-1
 261 371 l 1,4,-1
455 47 m 1,7,-1
 455 652 l 1,8,-1
 274 350 l 1,9,-1
 455 47 l 1,7,-1
69 49 m 1,10,-1
 249 350 l 1,11,-1
 69 650 l 1,12,-1
 69 49 l 1,10,-1
77 21 m 1,13,-1
 447 21 l 1,14,-1
 262 329 l 1,15,-1
 77 21 l 1,13,-1
EndSplineSet
Validated: 1
EndChar

StartChar: zero
Encoding: 48 48 5
Width: 648
GlyphClass: 1
Flags: W
HStem: -12 74<241.969 405.767> 606 74<241.757 406.031>
VStem: 60 91<178.169 483.765> 497 91<191.274 491.112>
LayerCount: 2
Fore
SplineSet
324 -12 m 256,0,1
 195 -12 195 -12 127.5 77.5 c 128,-1,2
 60 167 60 167 60 335 c 0,3,4
 60 502 60 502 127.5 591 c 128,-1,5
 195 680 195 680 324 680 c 256,6,7
 453 680 453 680 520.5 591 c 128,-1,8
 588 502 588 502 588 335 c 0,9,10
 588 167 588 167 520.5 77.5 c 128,-1,11
 453 -12 453 -12 324 -12 c 256,0,1
480 190 m 1,12,13
 497 250 497 250 497 335 c 0,14,15
 497 466 497 466 454.5 536 c 128,-1,16
 412 606 412 606 324 606 c 0,17,18
 259 606 259 606 217 566 c 1,19,-1
 480 190 l 1,12,13
324 62 m 0,20,21
 393 62 393 62 435 107 c 1,22,-1
 171 486 l 1,23,24
 161 455 161 455 156 417 c 128,-1,25
 151 379 151 379 151 335 c 0,26,27
 151 204 151 204 193.5 133 c 128,-1,28
 236 62 236 62 324 62 c 0,20,21
EndSplineSet
Substitution2: "'zero' Slashed Zero lookup 0-1" zero.alt1
Substitution2: "'tnum' Tabular Numbers lookup 14 subtable" zero.tf
Substitution2: "'aalt' Access All Alternates lookup 0 subtable" zero.alt1
EndChar

StartChar: one
Encoding: 49 49 6
Width: 402
GlyphClass: 1
Flags: W
HStem: 0 21G<220 304> 504 67<42 180.157> 648 20G<241 304>
VStem: 220 84<0 504> 248 56<627.278 668>
LayerCount: 2
Fore
SplineSet
220 0 m 1,0,-1
 220 504 l 1,1,-1
 42 504 l 1,2,-1
 42 571 l 1,3,4
 90 571 90 571 131.5 578 c 128,-1,5
 173 585 173 585 203.5 606 c 128,-1,6
 234 627 234 627 248 668 c 1,7,-1
 304 668 l 1,8,-1
 304 0 l 1,9,-1
 220 0 l 1,0,-1
EndSplineSet
Substitution2: "'tnum' Tabular Numbers lookup 14 subtable" one.tf
Substitution2: "'sups' Superscript lookup 9 subtable" uni00B9
AlternateSubs2: "'aalt' Access All Alternates lookup 1 subtable" uni00B9 one.tf
EndChar

StartChar: two
Encoding: 50 50 7
Width: 549
GlyphClass: 1
Flags: W
HStem: 0 77<147 515> 498 21G<73 149> 610 70<201.781 362.328>
VStem: 59 84<520 554.102> 408 89<409.826 565.402>
LayerCount: 2
Fore
SplineSet
34 0 m 1,0,-1
 34 75 l 1,1,2
 152 162 152 162 235.5 235 c 128,-1,3
 319 308 319 308 363.5 371.5 c 128,-1,4
 408 435 408 435 408 494 c 0,5,6
 408 546 408 546 375 578 c 128,-1,7
 342 610 342 610 283 610 c 0,8,9
 236 610 236 610 195.5 584.5 c 128,-1,10
 155 559 155 559 143 498 c 1,11,-1
 59 522 l 1,12,13
 77 595 77 595 137 637.5 c 128,-1,14
 197 680 197 680 285 680 c 0,15,16
 347 680 347 680 394.5 659.5 c 128,-1,17
 442 639 442 639 469.5 600 c 128,-1,18
 497 561 497 561 497 505 c 0,19,20
 497 447 497 447 469 391.5 c 128,-1,21
 441 336 441 336 392 283.5 c 128,-1,22
 343 231 343 231 280 179.5 c 128,-1,23
 217 128 217 128 147 77 c 1,24,-1
 515 77 l 1,25,-1
 515 0 l 1,26,-1
 34 0 l 1,0,-1
EndSplineSet
Substitution2: "'tnum' Tabular Numbers lookup 14 subtable" two.tf
Substitution2: "'sups' Superscript lookup 9 subtable" uni00B2
AlternateSubs2: "'aalt' Access All Alternates lookup 1 subtable" uni00B2 two.tf
EndChar

StartChar: three
Encoding: 51 51 8
Width: 574
GlyphClass: 1
Flags: W
HStem: -12 70<187.288 363.101> 314 76<218 352.88> 498 21G<65.6667 139> 610 70<193.073 359.619>
VStem: 52 82<519.951 551.747> 407 88<436.237 567.259> 424 90<112.819 257.456>
LayerCount: 2
Fore
SplineSet
272 -12 m 0,0,1
 205 -12 205 -12 157.5 10 c 128,-1,2
 110 32 110 32 82 69 c 128,-1,3
 54 106 54 106 42 151 c 1,4,-1
 125 175 l 1,5,6
 136 123 136 123 172.5 90.5 c 128,-1,7
 209 58 209 58 273 58 c 0,8,9
 339 58 339 58 381.5 91.5 c 128,-1,10
 424 125 424 125 424 187 c 0,11,12
 424 225 424 225 408 249.5 c 128,-1,13
 392 274 392 274 367 287 c 128,-1,14
 342 300 342 300 313.5 306 c 128,-1,15
 285 312 285 312 259.5 313 c 128,-1,16
 234 314 234 314 218 314 c 1,17,-1
 218 390 l 1,18,19
 246 390 246 390 278.5 393 c 128,-1,20
 311 396 311 396 340.5 406.5 c 128,-1,21
 370 417 370 417 388.5 439.5 c 128,-1,22
 407 462 407 462 407 501 c 0,23,24
 407 555 407 555 368.5 582.5 c 128,-1,25
 330 610 330 610 277 610 c 0,26,27
 216 610 216 610 180 579 c 128,-1,28
 144 548 144 548 134 498 c 1,29,-1
 52 522 l 1,30,31
 70 593 70 593 128.5 636.5 c 128,-1,32
 187 680 187 680 279 680 c 0,33,34
 337 680 337 680 386 663.5 c 128,-1,35
 435 647 435 647 465 609.5 c 128,-1,36
 495 572 495 572 495 510 c 0,37,38
 495 459 495 459 467 418 c 128,-1,39
 439 377 439 377 386 355 c 1,40,41
 461 332 461 332 487.5 286.5 c 128,-1,42
 514 241 514 241 514 188 c 0,43,44
 514 121 514 121 480 76.5 c 128,-1,45
 446 32 446 32 391 10 c 128,-1,46
 336 -12 336 -12 272 -12 c 0,0,1
EndSplineSet
Substitution2: "'tnum' Tabular Numbers lookup 14 subtable" three.tf
Substitution2: "'sups' Superscript lookup 9 subtable" uni00B3
AlternateSubs2: "'aalt' Access All Alternates lookup 1 subtable" uni00B3 three.tf
EndChar

StartChar: four
Encoding: 52 52 9
Width: 614
GlyphClass: 1
Flags: W
HStem: 0 21G<370 454> 165 79<129 370 454 576> 648 20G<353.387 454>
VStem: 370 84<0 165 244 553>
LayerCount: 2
Fore
SplineSet
370 0 m 1,0,-1
 370 165 l 1,1,-1
 38 165 l 1,2,-1
 38 244 l 1,3,-1
 369 668 l 1,4,-1
 454 668 l 1,5,-1
 454 244 l 1,6,-1
 576 244 l 1,7,-1
 576 165 l 1,8,-1
 454 165 l 1,9,-1
 454 0 l 1,10,-1
 370 0 l 1,0,-1
129 244 m 1,11,-1
 370 244 l 1,12,-1
 370 553 l 1,13,-1
 129 244 l 1,11,-1
EndSplineSet
Substitution2: "'tnum' Tabular Numbers lookup 14 subtable" four.tf
Substitution2: "'sups' Superscript lookup 9 subtable" uni2074
AlternateSubs2: "'aalt' Access All Alternates lookup 1 subtable" four.tf uni2074
EndChar

StartChar: five
Encoding: 53 53 10
Width: 583
GlyphClass: 1
Flags: W
HStem: -12 70<196.477 362.063> 378 72<202.016 363.328> 587 81<181 496>
VStem: 433 88<130.176 308.978>
LayerCount: 2
Fore
SplineSet
284 -12 m 0,0,1
 217 -12 217 -12 170 10 c 128,-1,2
 123 32 123 32 95 69 c 128,-1,3
 67 106 67 106 54 151 c 1,4,-1
 136 175 l 1,5,6
 148 120 148 120 183.5 89 c 128,-1,7
 219 58 219 58 284 58 c 0,8,9
 324 58 324 58 358 77 c 128,-1,10
 392 96 392 96 412.5 132 c 128,-1,11
 433 168 433 168 433 219 c 0,12,13
 433 275 433 275 410.5 310 c 128,-1,14
 388 345 388 345 353.5 361.5 c 128,-1,15
 319 378 319 378 283 378 c 0,16,17
 231 378 231 378 198 353.5 c 128,-1,18
 165 329 165 329 154 304 c 1,19,-1
 72 328 l 1,20,-1
 113 668 l 1,21,-1
 496 668 l 1,22,-1
 496 587 l 1,23,-1
 181 587 l 1,24,-1
 158 400 l 1,25,26
 184 426 184 426 222.5 438 c 128,-1,27
 261 450 261 450 302 450 c 0,28,29
 361 450 361 450 410.5 423 c 128,-1,30
 460 396 460 396 490.5 345 c 128,-1,31
 521 294 521 294 521 220 c 0,32,33
 521 144 521 144 487.5 92 c 128,-1,34
 454 40 454 40 400 14 c 128,-1,35
 346 -12 346 -12 284 -12 c 0,0,1
EndSplineSet
Substitution2: "'tnum' Tabular Numbers lookup 14 subtable" five.tf
Substitution2: "'aalt' Access All Alternates lookup 0 subtable" five.tf
EndChar

StartChar: six
Encoding: 54 54 11
Width: 598
GlyphClass: 1
Flags: W
HStem: -12 71<222.029 382.168> 371 74<222.535 383.03> 610 70<236.756 388.36>
VStem: 60 87<352 479.422> 448 90<127.166 302.577>
LayerCount: 2
Fore
SplineSet
303 -12 m 0,0,1
 178 -12 178 -12 119 72 c 128,-1,2
 60 156 60 156 60 310 c 0,3,4
 60 381 60 381 73.5 447 c 128,-1,5
 87 513 87 513 117.5 565.5 c 128,-1,6
 148 618 148 618 198 649 c 128,-1,7
 248 680 248 680 321 680 c 0,8,9
 395 680 395 680 441 649 c 128,-1,10
 487 618 487 618 509 573 c 1,11,-1
 424 548 l 1,12,13
 409 577 409 577 380 593.5 c 128,-1,14
 351 610 351 610 311 610 c 0,15,16
 233 610 233 610 191.5 539 c 128,-1,17
 150 468 150 468 147 352 c 1,18,19
 170 391 170 391 213 418 c 128,-1,20
 256 445 256 445 323 445 c 0,21,22
 385 445 385 445 433.5 416 c 128,-1,23
 482 387 482 387 510 336 c 128,-1,24
 538 285 538 285 538 218 c 0,25,26
 538 156 538 156 509 103.5 c 128,-1,27
 480 51 480 51 427.5 19.5 c 128,-1,28
 375 -12 375 -12 303 -12 c 0,0,1
303 59 m 0,29,30
 369 59 369 59 408.5 102.5 c 128,-1,31
 448 146 448 146 448 215 c 256,32,33
 448 284 448 284 408.5 327.5 c 128,-1,34
 369 371 369 371 303 371 c 0,35,36
 236 371 236 371 196.5 327.5 c 128,-1,37
 157 284 157 284 157 215 c 256,38,39
 157 146 157 146 196.5 102.5 c 128,-1,40
 236 59 236 59 303 59 c 0,29,30
EndSplineSet
Substitution2: "'tnum' Tabular Numbers lookup 14 subtable" six.tf
Substitution2: "'aalt' Access All Alternates lookup 0 subtable" six.tf
EndChar

StartChar: seven
Encoding: 55 55 12
Width: 510
GlyphClass: 1
Flags: W
HStem: 0 21G<93 207.472> 587 81<15 383>
LayerCount: 2
Fore
SplineSet
93 0 m 1,0,-1
 383 587 l 1,1,-1
 15 587 l 1,2,-1
 15 668 l 1,3,-1
 476 668 l 1,4,-1
 476 587 l 1,5,-1
 198 0 l 1,6,-1
 93 0 l 1,0,-1
EndSplineSet
Substitution2: "'tnum' Tabular Numbers lookup 14 subtable" seven.tf
Substitution2: "'aalt' Access All Alternates lookup 0 subtable" seven.tf
EndChar

StartChar: eight
Encoding: 56 56 13
Width: 615
GlyphClass: 1
Flags: W
HStem: -12 74<212.304 402.64> 317 74<243.125 371.303> 606 74<242.601 371.16>
VStem: 60 91<117.132 260.196> 126 74<433.675 563.728> 414 75<433.675 563.728> 464 91<117.132 260.196>
LayerCount: 2
Fore
SplineSet
307 -12 m 0,0,1
 238 -12 238 -12 182 11.5 c 128,-1,2
 126 35 126 35 93 79.5 c 128,-1,3
 60 124 60 124 60 188 c 0,4,5
 60 253 60 253 94 298.5 c 128,-1,6
 128 344 128 344 183 366 c 1,7,8
 157 391 157 391 141.5 425 c 128,-1,9
 126 459 126 459 126 499 c 0,10,11
 126 549 126 549 150.5 590 c 128,-1,12
 175 631 175 631 216 655.5 c 128,-1,13
 257 680 257 680 307 680 c 0,14,15
 358 680 358 680 399 655.5 c 128,-1,16
 440 631 440 631 464.5 590 c 128,-1,17
 489 549 489 549 489 499 c 0,18,19
 489 459 489 459 473.5 425 c 128,-1,20
 458 391 458 391 432 366 c 1,21,22
 488 344 488 344 521.5 298.5 c 128,-1,23
 555 253 555 253 555 188 c 0,24,25
 555 124 555 124 522 79.5 c 128,-1,26
 489 35 489 35 433 11.5 c 128,-1,27
 377 -12 377 -12 307 -12 c 0,0,1
307 391 m 256,28,29
 351 391 351 391 382.5 422.5 c 128,-1,30
 414 454 414 454 414 500 c 0,31,32
 414 544 414 544 382.5 575 c 128,-1,33
 351 606 351 606 307 606 c 256,34,35
 263 606 263 606 231.5 575 c 128,-1,36
 200 544 200 544 200 500 c 0,37,38
 200 454 200 454 231.5 422.5 c 128,-1,39
 263 391 263 391 307 391 c 256,28,29
307 62 m 0,40,41
 379 62 379 62 421.5 96 c 128,-1,42
 464 130 464 130 464 188 c 0,43,44
 464 247 464 247 421.5 282 c 128,-1,45
 379 317 379 317 307 317 c 0,46,47
 236 317 236 317 193.5 282 c 128,-1,48
 151 247 151 247 151 188 c 0,49,50
 151 130 151 130 193.5 96 c 128,-1,51
 236 62 236 62 307 62 c 0,40,41
EndSplineSet
Substitution2: "'tnum' Tabular Numbers lookup 14 subtable" eight.tf
Substitution2: "'aalt' Access All Alternates lookup 0 subtable" eight.tf
EndChar

StartChar: nine
Encoding: 57 57 14
Width: 598
GlyphClass: 1
Flags: W
HStem: 0 21G<213 336> 201 86<221.381 351.605> 594 85<220.409 379.282>
VStem: 60 86<362.409 519.493> 454 84<363.204 518.967>
LayerCount: 2
Fore
SplineSet
213 0 m 1,0,1
 213 0 213 0 226.5 19 c 128,-1,2
 240 38 240 38 261.5 69 c 128,-1,3
 283 100 283 100 307 136.5 c 128,-1,4
 331 173 331 173 352 207 c 1,5,6
 327 201 327 201 299 201 c 0,7,8
 234 201 234 201 179.5 233.5 c 128,-1,9
 125 266 125 266 92.5 320.5 c 128,-1,10
 60 375 60 375 60 441 c 256,11,12
 60 507 60 507 92 561 c 128,-1,13
 124 615 124 615 178.5 647 c 128,-1,14
 233 679 233 679 299 679 c 0,15,16
 368 679 368 679 422 646.5 c 128,-1,17
 476 614 476 614 507 559.5 c 128,-1,18
 538 505 538 505 538 439 c 0,19,20
 538 393 538 393 520 348 c 0,21,22
 515 336 515 336 497 301.5 c 128,-1,23
 479 267 479 267 451.5 218 c 128,-1,24
 424 169 424 169 389.5 112.5 c 128,-1,25
 355 56 355 56 317 0 c 1,26,-1
 213 0 l 1,0,1
299 287 m 0,27,28
 342 287 342 287 377 308 c 128,-1,29
 412 329 412 329 433 364 c 128,-1,30
 454 399 454 399 454 441 c 256,31,32
 454 483 454 483 433 518 c 128,-1,33
 412 553 412 553 377 573.5 c 128,-1,34
 342 594 342 594 299 594 c 0,35,36
 257 594 257 594 222 573.5 c 128,-1,37
 187 553 187 553 166.5 518 c 128,-1,38
 146 483 146 483 146 441 c 256,39,40
 146 399 146 399 166.5 364 c 128,-1,41
 187 329 187 329 222 308 c 128,-1,42
 257 287 257 287 299 287 c 0,27,28
EndSplineSet
Substitution2: "'tnum' Tabular Numbers lookup 14 subtable" nine.tf
Substitution2: "'aalt' Access All Alternates lookup 0 subtable" nine.tf
EndChar

StartChar: A
Encoding: 65 65 15
Width: 626
GlyphClass: 2
Flags: W
HStem: 0 21G<10 116.986 509.014 616> 146 81<190 436> 649 20G<253.496 373.474>
AnchorPoint: "Anchor-2" 615 0 basechar 0
AnchorPoint: "Anchor-1" 313 0 basechar 0
AnchorPoint: "Anchor-0" 313 668 basechar 0
LayerCount: 2
Fore
SplineSet
10 0 m 1,0,-1
 261 669 l 1,1,-1
 366 669 l 1,2,-1
 616 0 l 1,3,-1
 516 0 l 1,4,-1
 465 146 l 1,5,-1
 161 146 l 1,6,-1
 110 0 l 1,7,-1
 10 0 l 1,0,-1
190 227 m 1,8,-1
 436 227 l 1,9,-1
 313 574 l 1,10,-1
 190 227 l 1,8,-1
EndSplineSet
Substitution2: "Single Substitution lookup 12 subtable" ordfeminine
Substitution2: "'aalt' Access All Alternates lookup 0 subtable" ordfeminine
EndChar

StartChar: B
Encoding: 66 66 16
Width: 619
GlyphClass: 1
Flags: W
HStem: 0 79<170 439.227> 308 74<170 421.746> 589 79<170 418.424>
VStem: 76 94<79 308 382 589> 457 95<419.201 550.964> 484 97<124.835 264.711>
LayerCount: 2
Fore
SplineSet
76 0 m 1,0,-1
 76 668 l 1,1,-1
 345 668 l 2,2,3
 418 668 418 668 463.5 644 c 128,-1,4
 509 620 509 620 530.5 582.5 c 128,-1,5
 552 545 552 545 552 502 c 0,6,7
 552 462 552 462 534 423 c 128,-1,8
 516 384 516 384 482 355 c 1,9,10
 532 329 532 329 556.5 284.5 c 128,-1,11
 581 240 581 240 581 192 c 256,12,13
 581 144 581 144 556.5 100 c 128,-1,14
 532 56 532 56 483 28 c 128,-1,15
 434 0 434 0 361 0 c 2,16,-1
 76 0 l 1,0,-1
170 382 m 1,17,-1
 355 382 l 2,18,19
 406 382 406 382 431.5 414 c 128,-1,20
 457 446 457 446 457 484 c 0,21,22
 457 510 457 510 445.5 534 c 128,-1,23
 434 558 434 558 411.5 573.5 c 128,-1,24
 389 589 389 589 355 589 c 2,25,-1
 170 589 l 1,26,-1
 170 382 l 1,17,-1
170 79 m 1,27,-1
 371 79 l 2,28,29
 408 79 408 79 433 96 c 128,-1,30
 458 113 458 113 471 139.5 c 128,-1,31
 484 166 484 166 484 195 c 256,32,33
 484 224 484 224 471.5 249.5 c 128,-1,34
 459 275 459 275 433.5 291.5 c 128,-1,35
 408 308 408 308 370 308 c 2,36,-1
 170 308 l 1,37,-1
 170 79 l 1,27,-1
EndSplineSet
EndChar

StartChar: C
Encoding: 67 67 17
Width: 656
GlyphClass: 2
Flags: W
HStem: -12 79<266.437 456.941> 499 21G<521 586.667> 601 79<264.995 453.332>
VStem: 50 96<203.92 465.835>
AnchorPoint: "Anchor-1" 348 0 basechar 0
AnchorPoint: "Anchor-0" 353 668 basechar 0
LayerCount: 2
Fore
SplineSet
353 -12 m 0,0,1
 258 -12 258 -12 190 32.5 c 128,-1,2
 122 77 122 77 86 155 c 128,-1,3
 50 233 50 233 50 335 c 0,4,5
 50 439 50 439 88.5 516.5 c 128,-1,6
 127 594 127 594 197 637 c 128,-1,7
 267 680 267 680 361 680 c 0,8,9
 445 680 445 680 512.5 641 c 128,-1,10
 580 602 580 602 614 529 c 1,11,-1
 532 499 l 1,12,13
 510 544 510 544 465.5 572.5 c 128,-1,14
 421 601 421 601 356 601 c 0,15,16
 297 601 297 601 249.5 571 c 128,-1,17
 202 541 202 541 174 481.5 c 128,-1,18
 146 422 146 422 146 335 c 0,19,20
 146 251 146 251 173 191 c 128,-1,21
 200 131 200 131 248.5 99 c 128,-1,22
 297 67 297 67 359 67 c 0,23,24
 424 67 424 67 468.5 95 c 128,-1,25
 513 123 513 123 536 169 c 1,26,-1
 618 139 l 1,27,28
 582 65 582 65 512 26.5 c 128,-1,29
 442 -12 442 -12 353 -12 c 0,0,1
EndSplineSet
EndChar

StartChar: D
Encoding: 68 68 18
Width: 673
GlyphClass: 2
Flags: W
HStem: 0 79<170 402.419> 589 79<170 402.419>
VStem: 76 94<79 589> 527 96<199.956 469.077>
AnchorPoint: "Anchor-1" 337 0 basechar 0
AnchorPoint: "Anchor-0" 327 668 basechar 0
LayerCount: 2
Fore
SplineSet
76 0 m 1,0,-1
 76 668 l 1,1,-1
 258 668 l 2,2,3
 338 668 338 668 404.5 651.5 c 128,-1,4
 471 635 471 635 520 597 c 128,-1,5
 569 559 569 559 596 494.5 c 128,-1,6
 623 430 623 430 623 335 c 0,7,8
 623 239 623 239 596 174.5 c 128,-1,9
 569 110 569 110 520 71.5 c 128,-1,10
 471 33 471 33 404.5 16.5 c 128,-1,11
 338 0 338 0 258 0 c 2,12,-1
 76 0 l 1,0,-1
170 79 m 1,13,-1
 256 79 l 2,14,15
 308 79 308 79 356.5 87.5 c 128,-1,16
 405 96 405 96 443.5 121.5 c 128,-1,17
 482 147 482 147 504.5 198.5 c 128,-1,18
 527 250 527 250 527 335 c 256,19,20
 527 420 527 420 504.5 470.5 c 128,-1,21
 482 521 482 521 443.5 546.5 c 128,-1,22
 405 572 405 572 356.5 580.5 c 128,-1,23
 308 589 308 589 256 589 c 2,24,-1
 170 589 l 1,25,-1
 170 79 l 1,13,-1
EndSplineSet
EndChar

StartChar: E
Encoding: 69 69 19
Width: 567
GlyphClass: 2
Flags: W
HStem: 0 81<170 529> 303 81<170 435> 587 81<170 529>
VStem: 76 94<81 303 384 587>
AnchorPoint: "Anchor-2" 506 0 basechar 0
AnchorPoint: "Anchor-1" 284 0 basechar 0
AnchorPoint: "Anchor-0" 304 668 basechar 0
LayerCount: 2
Fore
SplineSet
76 0 m 1,0,-1
 76 668 l 1,1,-1
 529 668 l 1,2,-1
 529 587 l 1,3,-1
 170 587 l 1,4,-1
 170 384 l 1,5,-1
 435 384 l 1,6,-1
 435 303 l 1,7,-1
 170 303 l 1,8,-1
 170 81 l 1,9,-1
 529 81 l 1,10,-1
 529 0 l 1,11,-1
 76 0 l 1,0,-1
EndSplineSet
EndChar

StartChar: F
Encoding: 70 70 20
Width: 548
GlyphClass: 1
Flags: W
HStem: 0 21G<76 170> 303 81<170 510> 587 81<170 510>
VStem: 76 94<0 303 384 587>
LayerCount: 2
Fore
SplineSet
76 0 m 1,0,-1
 76 668 l 1,1,-1
 510 668 l 1,2,-1
 510 587 l 1,3,-1
 170 587 l 1,4,-1
 170 384 l 1,5,-1
 510 384 l 1,6,-1
 510 303 l 1,7,-1
 170 303 l 1,8,-1
 170 0 l 1,9,-1
 76 0 l 1,0,-1
EndSplineSet
EndChar

StartChar: G
Encoding: 71 71 21
Width: 710
GlyphClass: 2
Flags: W
HStem: -12 79<264.472 463.329> 0 21G<582.048 642> 264 81<358 553> 499 21G<521 587.333> 601 79<264.995 453.332>
VStem: 50 96<202.944 465.835> 553 89<149.752 264> 588 54<0 23.52>
AnchorPoint: "Anchor-1" 355 0 basechar 0
AnchorPoint: "Anchor-0" 359 668 basechar 0
LayerCount: 2
Fore
SplineSet
352 -12 m 0,0,1
 256 -12 256 -12 188.5 32.5 c 128,-1,2
 121 77 121 77 85.5 155 c 128,-1,3
 50 233 50 233 50 335 c 0,4,5
 50 439 50 439 88.5 516.5 c 128,-1,6
 127 594 127 594 197 637 c 128,-1,7
 267 680 267 680 361 680 c 0,8,9
 445 680 445 680 512.5 641 c 128,-1,10
 580 602 580 602 615 529 c 1,11,-1
 532 499 l 1,12,13
 510 544 510 544 465.5 572.5 c 128,-1,14
 421 601 421 601 356 601 c 0,15,16
 297 601 297 601 249.5 571 c 128,-1,17
 202 541 202 541 174 481.5 c 128,-1,18
 146 422 146 422 146 335 c 0,19,20
 146 251 146 251 172.5 191 c 128,-1,21
 199 131 199 131 246.5 99 c 128,-1,22
 294 67 294 67 356 67 c 0,23,24
 389 67 389 67 424 75 c 128,-1,25
 459 83 459 83 488 102.5 c 128,-1,26
 517 122 517 122 535 156 c 128,-1,27
 553 190 553 190 553 242 c 2,28,-1
 553 264 l 1,29,-1
 358 264 l 1,30,-1
 358 345 l 1,31,-1
 642 345 l 1,32,-1
 642 0 l 1,33,-1
 588 0 l 1,34,-1
 563 84 l 1,35,36
 531 33 531 33 475.5 10.5 c 128,-1,37
 420 -12 420 -12 352 -12 c 0,0,1
EndSplineSet
EndChar

StartChar: H
Encoding: 72 72 22
Width: 690
GlyphClass: 2
Flags: W
HStem: 0 21G<76 170 520 614> 303 81<170 520> 648 20G<76 170 520 614>
VStem: 76 94<0 303 384 668> 520 94<0 303 384 668>
AnchorPoint: "Anchor-1" 345 0 basechar 0
AnchorPoint: "Anchor-0" 345 668 basechar 0
LayerCount: 2
Fore
SplineSet
76 0 m 1,0,-1
 76 668 l 1,1,-1
 170 668 l 1,2,-1
 170 384 l 1,3,-1
 520 384 l 1,4,-1
 520 668 l 1,5,-1
 614 668 l 1,6,-1
 614 0 l 1,7,-1
 520 0 l 1,8,-1
 520 303 l 1,9,-1
 170 303 l 1,10,-1
 170 0 l 1,11,-1
 76 0 l 1,0,-1
EndSplineSet
EndChar

StartChar: I
Encoding: 73 73 23
Width: 414
GlyphClass: 2
Flags: W
HStem: 0 74<66 160 254 348> 594 74<66 160 254 348>
VStem: 160 94<74 594>
AnchorPoint: "Anchor-2" 273 0 basechar 0
AnchorPoint: "Anchor-1" 207 0 basechar 0
AnchorPoint: "Anchor-0" 207 668 basechar 0
LayerCount: 2
Fore
SplineSet
66 0 m 1,0,-1
 66 74 l 1,1,-1
 160 74 l 1,2,-1
 160 594 l 1,3,-1
 66 594 l 1,4,-1
 66 668 l 1,5,-1
 348 668 l 1,6,-1
 348 594 l 1,7,-1
 254 594 l 1,8,-1
 254 74 l 1,9,-1
 348 74 l 1,10,-1
 348 0 l 1,11,-1
 66 0 l 1,0,-1
EndSplineSet
EndChar

StartChar: J
Encoding: 74 74 24
Width: 510
GlyphClass: 1
Flags: W
HStem: -12 77<155.786 294.051> 648 20G<340 434>
VStem: 15 87<118.428 189> 340 94<115.875 668>
LayerCount: 2
Fore
SplineSet
224 -12 m 0,0,1
 130 -12 130 -12 75 38.5 c 128,-1,2
 20 89 20 89 15 189 c 1,3,-1
 102 214 l 1,4,5
 100 138 100 138 137 101.5 c 128,-1,6
 174 65 174 65 224 65 c 0,7,8
 251 65 251 65 278 77 c 128,-1,9
 305 89 305 89 322.5 121 c 128,-1,10
 340 153 340 153 340 213 c 2,11,-1
 340 668 l 1,12,-1
 434 668 l 1,13,-1
 434 212 l 2,14,15
 434 103 434 103 378 45.5 c 128,-1,16
 322 -12 322 -12 224 -12 c 0,0,1
EndSplineSet
EndChar

StartChar: K
Encoding: 75 75 25
Width: 627
GlyphClass: 2
Flags: W
HStem: 0 21G<76 170 487.5 617> 648 20G<76 170 453.083 588>
VStem: 76 94<0 210 332 668>
AnchorPoint: "Anchor-1" 314 0 basechar 0
AnchorPoint: "Anchor-0" 314 668 basechar 0
LayerCount: 2
Fore
SplineSet
76 0 m 1,0,-1
 76 668 l 1,1,-1
 170 668 l 1,2,-1
 170 332 l 1,3,-1
 471 668 l 1,4,-1
 588 668 l 1,5,-1
 333 389 l 1,6,-1
 617 0 l 1,7,-1
 502 0 l 1,8,-1
 270 320 l 1,9,-1
 170 210 l 1,10,-1
 170 0 l 1,11,-1
 76 0 l 1,0,-1
EndSplineSet
EndChar

StartChar: L
Encoding: 76 76 26
Width: 539
GlyphClass: 2
Flags: W
HStem: 0 81<170 529> 648 20G<76 170>
VStem: 76 94<81 668>
AnchorPoint: "Anchor-1" 305 0 basechar 0
AnchorPoint: "Anchor-0" 270 668 basechar 0
LayerCount: 2
Fore
SplineSet
76 0 m 1,0,-1
 76 668 l 1,1,-1
 170 668 l 1,2,-1
 170 81 l 1,3,-1
 529 81 l 1,4,-1
 529 0 l 1,5,-1
 76 0 l 1,0,-1
EndSplineSet
EndChar

StartChar: M
Encoding: 77 77 27
Width: 820
GlyphClass: 1
Flags: W
HStem: 0 21G<76 170 357.193 463.772 650 744> 648 20G<76 238.52 581.48 744>
VStem: 76 94<0 570> 650 94<0 570>
LayerCount: 2
Fore
SplineSet
76 0 m 1,0,-1
 76 668 l 1,1,-1
 232 668 l 1,2,-1
 410 122 l 1,3,-1
 588 668 l 1,4,-1
 744 668 l 1,5,-1
 744 0 l 1,6,-1
 650 0 l 1,7,-1
 650 570 l 1,8,-1
 457 0 l 1,9,-1
 364 0 l 1,10,-1
 170 570 l 1,11,-1
 170 0 l 1,12,-1
 76 0 l 1,0,-1
EndSplineSet
EndChar

StartChar: N
Encoding: 78 78 28
Width: 689
GlyphClass: 2
Flags: W
HStem: 0 21G<76 170 464.317 613> 648 20G<76 225.704 519 613>
VStem: 76 94<0 571> 519 94<100 668>
AnchorPoint: "Anchor-1" 311 0 basechar 0
AnchorPoint: "Anchor-0" 362 668 basechar 0
LayerCount: 2
Fore
SplineSet
76 0 m 1,0,-1
 76 668 l 1,1,-1
 215 668 l 1,2,-1
 519 100 l 1,3,-1
 519 668 l 1,4,-1
 613 668 l 1,5,-1
 613 0 l 1,6,-1
 475 0 l 1,7,-1
 170 571 l 1,8,-1
 170 0 l 1,9,-1
 76 0 l 1,0,-1
EndSplineSet
EndChar

StartChar: O
Encoding: 79 79 29
Width: 727
GlyphClass: 2
Flags: W
HStem: -12 79<270.869 455.999> 601 79<270.069 456.802>
VStem: 50 96<206.269 463.005> 581 96<206.269 463.005>
AnchorPoint: "Anchor-2" 654 10 basechar 0
AnchorPoint: "Anchor-1" 364 0 basechar 0
AnchorPoint: "Anchor-0" 364 668 basechar 0
LayerCount: 2
Fore
SplineSet
363 -12 m 0,0,1
 267 -12 267 -12 197 32.5 c 128,-1,2
 127 77 127 77 88.5 155.5 c 128,-1,3
 50 234 50 234 50 335 c 256,4,5
 50 436 50 436 88.5 513.5 c 128,-1,6
 127 591 127 591 197 635.5 c 128,-1,7
 267 680 267 680 363 680 c 0,8,9
 460 680 460 680 530 635.5 c 128,-1,10
 600 591 600 591 638.5 513.5 c 128,-1,11
 677 436 677 436 677 335 c 256,12,13
 677 234 677 234 638.5 155.5 c 128,-1,14
 600 77 600 77 530 32.5 c 128,-1,15
 460 -12 460 -12 363 -12 c 0,0,1
363 67 m 0,16,17
 424 67 424 67 473.5 98 c 128,-1,18
 523 129 523 129 552 188.5 c 128,-1,19
 581 248 581 248 581 335 c 0,20,21
 581 421 581 421 552 480.5 c 128,-1,22
 523 540 523 540 473.5 570.5 c 128,-1,23
 424 601 424 601 363 601 c 0,24,25
 303 601 303 601 253.5 570.5 c 128,-1,26
 204 540 204 540 175 480.5 c 128,-1,27
 146 421 146 421 146 335 c 0,28,29
 146 248 146 248 175 188.5 c 128,-1,30
 204 129 204 129 253.5 98 c 128,-1,31
 303 67 303 67 363 67 c 0,16,17
EndSplineSet
Substitution2: "Single Substitution lookup 12 subtable" ordmasculine
Substitution2: "'aalt' Access All Alternates lookup 0 subtable" ordmasculine
EndChar

StartChar: P
Encoding: 80 80 30
Width: 601
GlyphClass: 1
Flags: W
HStem: 1 21G<76 170> 266 81<170 421.611> 589 79<170 417.61>
VStem: 76 94<1 266 347 589> 467 96<389.347 544.733>
LayerCount: 2
Fore
SplineSet
76 1 m 1,0,-1
 76 668 l 1,1,-1
 285 668 l 2,2,3
 367 668 367 668 429.5 652 c 128,-1,4
 492 636 492 636 527.5 592.5 c 128,-1,5
 563 549 563 549 563 466 c 0,6,7
 563 384 563 384 527.5 340.5 c 128,-1,8
 492 297 492 297 429.5 281.5 c 128,-1,9
 367 266 367 266 285 266 c 2,10,-1
 170 266 l 1,11,-1
 170 1 l 1,12,-1
 76 1 l 1,0,-1
170 347 m 1,13,-1
 293 347 l 2,14,15
 342 347 342 347 381 354 c 128,-1,16
 420 361 420 361 443.5 386.5 c 128,-1,17
 467 412 467 412 467 466 c 0,18,19
 467 521 467 521 443.5 547 c 128,-1,20
 420 573 420 573 381 581 c 128,-1,21
 342 589 342 589 293 589 c 2,22,-1
 170 589 l 1,23,-1
 170 347 l 1,13,-1
EndSplineSet
EndChar

StartChar: Q
Encoding: 81 81 31
Width: 753
GlyphClass: 1
Flags: W
HStem: -12 79<270.869 458.377> 601 79<270.069 456.802>
VStem: 50 96<206.269 463.005> 581 96<206.804 463.005>
LayerCount: 2
Fore
SplineSet
689 -44 m 1,0,-1
 572 65 l 1,1,2
 533 28 533 28 480 8 c 128,-1,3
 427 -12 427 -12 363 -12 c 0,4,5
 267 -12 267 -12 197 32.5 c 128,-1,6
 127 77 127 77 88.5 155.5 c 128,-1,7
 50 234 50 234 50 335 c 256,8,9
 50 436 50 436 88.5 513.5 c 128,-1,10
 127 591 127 591 197 635.5 c 128,-1,11
 267 680 267 680 363 680 c 0,12,13
 460 680 460 680 530 635.5 c 128,-1,14
 600 591 600 591 638.5 513.5 c 128,-1,15
 677 436 677 436 677 335 c 0,16,17
 677 279 677 279 665 229.5 c 128,-1,18
 653 180 653 180 630 139 c 1,19,-1
 753 24 l 1,20,-1
 689 -44 l 1,0,-1
363 67 m 0,21,22
 451 67 451 67 508 126 c 1,23,-1
 329 294 l 1,24,-1
 393 362 l 1,25,-1
 559 206 l 1,26,27
 570 233 570 233 575.5 265.5 c 128,-1,28
 581 298 581 298 581 335 c 0,29,30
 581 421 581 421 552 480.5 c 128,-1,31
 523 540 523 540 473.5 570.5 c 128,-1,32
 424 601 424 601 363 601 c 0,33,34
 303 601 303 601 253.5 570.5 c 128,-1,35
 204 540 204 540 175 480.5 c 128,-1,36
 146 421 146 421 146 335 c 0,37,38
 146 248 146 248 175 188.5 c 128,-1,39
 204 129 204 129 253.5 98 c 128,-1,40
 303 67 303 67 363 67 c 0,21,22
EndSplineSet
EndChar

StartChar: R
Encoding: 82 82 32
Width: 618
GlyphClass: 2
Flags: W
HStem: 0 21G<76 170 458.552 588> 281 79<170 270> 589 79<170 422.615>
VStem: 76 94<0 281 360 589> 470 96<400.729 547.976>
AnchorPoint: "Anchor-1" 309 0 basechar 0
AnchorPoint: "Anchor-0" 303 668 basechar 0
LayerCount: 2
Fore
SplineSet
76 0 m 1,0,-1
 76 668 l 1,1,-1
 288 668 l 2,2,3
 370 668 370 668 432.5 653.5 c 128,-1,4
 495 639 495 639 530.5 597.5 c 128,-1,5
 566 556 566 556 566 476 c 0,6,7
 566 431 566 431 552 392 c 128,-1,8
 538 353 538 353 498.5 326 c 128,-1,9
 459 299 459 299 381 288 c 1,10,-1
 588 0 l 1,11,-1
 473 0 l 1,12,-1
 270 281 l 1,13,-1
 170 281 l 1,14,-1
 170 0 l 1,15,-1
 76 0 l 1,0,-1
170 360 m 1,16,-1
 295 360 l 2,17,18
 344 360 344 360 383.5 367 c 128,-1,19
 423 374 423 374 446.5 398.5 c 128,-1,20
 470 423 470 423 470 474 c 0,21,22
 470 526 470 526 446.5 550 c 128,-1,23
 423 574 423 574 383.5 581.5 c 128,-1,24
 344 589 344 589 295 589 c 2,25,-1
 170 589 l 1,26,-1
 170 360 l 1,16,-1
EndSplineSet
EndChar

StartChar: S
Encoding: 83 83 33
Width: 596
GlyphClass: 2
Flags: W
HStem: -12 79<202.055 396.012> 601 79<194.892 383.377>
VStem: 46 97<441.857 555.489> 457 99<120.557 242.874>
AnchorPoint: "Anchor-1" 298 0 basechar 0
AnchorPoint: "Anchor-0" 298 668 basechar 0
LayerCount: 2
Fore
SplineSet
296 -12 m 0,0,1
 241 -12 241 -12 189 5 c 128,-1,2
 137 22 137 22 97.5 57 c 128,-1,3
 58 92 58 92 40 146 c 1,4,-1
 127 172 l 1,5,6
 139 136 139 136 166 112.5 c 128,-1,7
 193 89 193 89 228.5 78 c 128,-1,8
 264 67 264 67 300 67 c 0,9,10
 340 67 340 67 376 80 c 128,-1,11
 412 93 412 93 434.5 119.5 c 128,-1,12
 457 146 457 146 457 186 c 0,13,14
 457 227 457 227 427 251 c 128,-1,15
 397 275 397 275 323 294 c 2,16,-1
 238 313 l 2,17,18
 192 325 192 325 147.5 345 c 128,-1,19
 103 365 103 365 74.5 402 c 128,-1,20
 46 439 46 439 46 501 c 0,21,22
 46 558 46 558 81.5 598 c 128,-1,23
 117 638 117 638 173.5 659 c 128,-1,24
 230 680 230 680 291 680 c 0,25,26
 338 680 338 680 383.5 666.5 c 128,-1,27
 429 653 429 653 465.5 625.5 c 128,-1,28
 502 598 502 598 523 555 c 1,29,-1
 437 530 l 1,30,31
 418 565 418 565 375.5 583 c 128,-1,32
 333 601 333 601 287 601 c 0,33,34
 251 601 251 601 218 589.5 c 128,-1,35
 185 578 185 578 164 555 c 128,-1,36
 143 532 143 532 143 497 c 0,37,38
 143 464 143 464 162.5 444 c 128,-1,39
 182 424 182 424 214.5 412.5 c 128,-1,40
 247 401 247 401 286 392 c 2,41,-1
 359 376 l 2,42,43
 410 364 410 364 455 343 c 128,-1,44
 500 322 500 322 528 284 c 128,-1,45
 556 246 556 246 556 182 c 0,46,47
 556 136 556 136 534 99.5 c 128,-1,48
 512 63 512 63 475 38.5 c 128,-1,49
 438 14 438 14 391.5 1 c 128,-1,50
 345 -12 345 -12 296 -12 c 0,0,1
EndSplineSet
EndChar

StartChar: T
Encoding: 84 84 34
Width: 558
GlyphClass: 2
Flags: W
HStem: 0 21G<232 326> 587 81<10 232 326 548>
VStem: 232 94<0 587>
AnchorPoint: "Anchor-1" 279 0 basechar 0
AnchorPoint: "Anchor-0" 279 668 basechar 0
LayerCount: 2
Fore
SplineSet
232 0 m 1,0,-1
 232 587 l 1,1,-1
 10 587 l 1,2,-1
 10 668 l 1,3,-1
 548 668 l 1,4,-1
 548 587 l 1,5,-1
 326 587 l 1,6,-1
 326 0 l 1,7,-1
 232 0 l 1,0,-1
EndSplineSet
EndChar

StartChar: U
Encoding: 85 85 35
Width: 690
GlyphClass: 2
Flags: W
HStem: -12 81<244.786 443.715> 648 20G<76 170 520 614>
VStem: 76 94<151.941 668> 520 94<151.941 668>
AnchorPoint: "Anchor-2" 427 0 basechar 0
AnchorPoint: "Anchor-1" 345 0 basechar 0
AnchorPoint: "Anchor-0" 345 668 basechar 0
LayerCount: 2
Fore
SplineSet
345 -12 m 0,0,1
 200 -12 200 -12 138 60.5 c 128,-1,2
 76 133 76 133 76 279 c 2,3,-1
 76 668 l 1,4,-1
 170 668 l 1,5,-1
 170 272 l 2,6,7
 170 173 170 173 209.5 121 c 128,-1,8
 249 69 249 69 345 69 c 256,9,10
 441 69 441 69 480.5 121 c 128,-1,11
 520 173 520 173 520 272 c 2,12,-1
 520 668 l 1,13,-1
 614 668 l 1,14,-1
 614 279 l 2,15,16
 614 133 614 133 552.5 60.5 c 128,-1,17
 491 -12 491 -12 345 -12 c 0,0,1
EndSplineSet
EndChar

StartChar: V
Encoding: 86 86 36
Width: 589
GlyphClass: 1
Flags: W
HStem: 0 21G<232.144 355.886> 648 20G<10 119.487 469.477 579>
LayerCount: 2
Fore
SplineSet
239 0 m 1,0,-1
 10 668 l 1,1,-1
 113 668 l 1,2,-1
 294 110 l 1,3,-1
 476 668 l 1,4,-1
 579 668 l 1,5,-1
 349 0 l 1,6,-1
 239 0 l 1,0,-1
EndSplineSet
EndChar

StartChar: W
Encoding: 87 87 37
Width: 840
GlyphClass: 1
Flags: W
HStem: 0 21G<172.97 295.674 544.326 668> 648 20G<10 117.71 360.58 479.42 722.29 830>
LayerCount: 2
Fore
SplineSet
178 0 m 1,0,-1
 10 668 l 1,1,-1
 113 668 l 1,2,-1
 243 116 l 1,3,-1
 365 668 l 1,4,-1
 475 668 l 1,5,-1
 597 116 l 1,6,-1
 727 668 l 1,7,-1
 830 668 l 1,8,-1
 663 0 l 1,9,-1
 549 0 l 1,10,-1
 420 552 l 1,11,-1
 291 0 l 1,12,-1
 178 0 l 1,0,-1
EndSplineSet
EndChar

StartChar: X
Encoding: 88 88 38
Width: 623
GlyphClass: 1
Flags: W
HStem: 0 21G<10 137.189 485.736 613> 648 20G<24 150.286 471.714 599>
LayerCount: 2
Fore
SplineSet
10 0 m 1,0,-1
 255 344 l 1,1,-1
 24 668 l 1,2,-1
 136 668 l 1,3,-1
 311 423 l 1,4,-1
 486 668 l 1,5,-1
 599 668 l 1,6,-1
 368 344 l 1,7,-1
 613 0 l 1,8,-1
 500 0 l 1,9,-1
 311 265 l 1,10,-1
 123 0 l 1,11,-1
 10 0 l 1,0,-1
EndSplineSet
EndChar

StartChar: Y
Encoding: 89 89 39
Width: 595
GlyphClass: 2
Flags: W
HStem: 0 21G<251 345> 648 20G<10 124.455 470.607 585>
VStem: 251 94<0 259>
AnchorPoint: "Anchor-1" 298 0 basechar 0
AnchorPoint: "Anchor-0" 298 668 basechar 0
LayerCount: 2
Fore
SplineSet
251 0 m 1,0,-1
 251 259 l 1,1,-1
 10 668 l 1,2,-1
 113 668 l 1,3,-1
 298 345 l 1,4,-1
 482 668 l 1,5,-1
 585 668 l 1,6,-1
 345 259 l 1,7,-1
 345 0 l 1,8,-1
 251 0 l 1,0,-1
EndSplineSet
EndChar

StartChar: Z
Encoding: 90 90 40
Width: 607
GlyphClass: 2
Flags: W
HStem: 0 81<156 563> 587 81<59 438>
AnchorPoint: "Anchor-1" 304 0 basechar 0
AnchorPoint: "Anchor-0" 304 668 basechar 0
LayerCount: 2
Fore
SplineSet
44 0 m 1,0,-1
 44 81 l 1,1,-1
 438 587 l 1,2,-1
 59 587 l 1,3,-1
 59 668 l 1,4,-1
 548 668 l 1,5,-1
 548 587 l 1,6,-1
 156 81 l 1,7,-1
 563 81 l 1,8,-1
 563 0 l 1,9,-1
 44 0 l 1,0,-1
EndSplineSet
EndChar

StartChar: a
Encoding: 97 97 41
Width: 526
GlyphClass: 2
Flags: W
HStem: -12 67<156.655 315.341> 0 21G<392.118 475> 239 67<238.409 373> 437 67<185.82 335.099>
VStem: 38 93<79.8849 180.792> 373 85<303.504 397.836> 380 78<117.75 239>
AnchorPoint: "Anchor-2" 475 0 basechar 0
AnchorPoint: "Anchor-1" 263 0 basechar 0
AnchorPoint: "Anchor-0" 263 496 basechar 0
LayerCount: 2
Fore
SplineSet
209 -12 m 0,0,1
 162 -12 162 -12 123 5 c 128,-1,2
 84 22 84 22 61 54 c 128,-1,3
 38 86 38 86 38 131 c 0,4,5
 38 190 38 190 79.5 224 c 128,-1,6
 121 258 121 258 196.5 276.5 c 128,-1,7
 272 295 272 295 373 306 c 1,8,9
 375 369 375 369 348 403 c 128,-1,10
 321 437 321 437 261 437 c 0,11,12
 216 437 216 437 187.5 416.5 c 128,-1,13
 159 396 159 396 151 360 c 1,14,-1
 70 384 l 1,15,16
 90 441 90 441 141.5 472.5 c 128,-1,17
 193 504 193 504 260 504 c 0,18,19
 363 504 363 504 410.5 455.5 c 128,-1,20
 458 407 458 407 458 303 c 2,21,-1
 458 187 l 2,22,23
 458 125 458 125 463 80 c 128,-1,24
 468 35 468 35 475 0 c 1,25,-1
 398 0 l 1,26,-1
 378 68 l 1,27,28
 356 31 356 31 315 9.5 c 128,-1,29
 274 -12 274 -12 209 -12 c 0,0,1
227 55 m 0,30,31
 266 55 266 55 301 69 c 128,-1,32
 336 83 336 83 358 116.5 c 128,-1,33
 380 150 380 150 380 208 c 2,34,-1
 380 239 l 1,35,36
 304 231 304 231 248 219.5 c 128,-1,37
 192 208 192 208 161.5 187.5 c 128,-1,38
 131 167 131 167 131 133 c 0,39,40
 131 98 131 98 156.5 76.5 c 128,-1,41
 182 55 182 55 227 55 c 0,30,31
EndSplineSet
Substitution2: "Single Substitution lookup 12 subtable" ordfeminine
Substitution2: "'aalt' Access All Alternates lookup 0 subtable" ordfeminine
EndChar

StartChar: b
Encoding: 98 98 42
Width: 566
GlyphClass: 1
Flags: W
HStem: -12 72<220.386 366.294> 0 21G<70 137.867> 432 72<220.386 367.029> 648 20G<70 154>
VStem: 70 84<132.304 360.343 418 668> 70 62<0 23.8636> 434 94<136.359 356.96>
AnchorPoint: "Anchor-0" 315 504 basechar 0
LayerCount: 2
Fore
SplineSet
315 -12 m 0,0,1
 257 -12 257 -12 217 11.5 c 128,-1,2
 177 35 177 35 154 75 c 1,3,-1
 132 0 l 1,4,-1
 70 0 l 1,5,-1
 70 668 l 1,6,-1
 154 668 l 1,7,-1
 154 418 l 1,8,9
 177 457 177 457 217 480.5 c 128,-1,10
 257 504 257 504 315 504 c 0,11,12
 372 504 372 504 420.5 473.5 c 128,-1,13
 469 443 469 443 498.5 385.5 c 128,-1,14
 528 328 528 328 528 246 c 256,15,16
 528 164 528 164 498.5 106.5 c 128,-1,17
 469 49 469 49 420.5 18.5 c 128,-1,18
 372 -12 372 -12 315 -12 c 0,0,1
293 60 m 256,19,20
 357 60 357 60 395.5 109 c 128,-1,21
 434 158 434 158 434 246 c 0,22,23
 434 335 434 335 395.5 383.5 c 128,-1,24
 357 432 357 432 293 432 c 256,25,26
 229 432 229 432 190.5 383.5 c 128,-1,27
 152 335 152 335 152 246 c 0,28,29
 152 158 152 158 190.5 109 c 128,-1,30
 229 60 229 60 293 60 c 256,19,20
EndSplineSet
EndChar

StartChar: c
Encoding: 99 99 43
Width: 500
GlyphClass: 2
Flags: W
HStem: -12 74<200.156 347.997> 430 74<198.473 347.022>
VStem: 38 91<141.024 354.173>
AnchorPoint: "Anchor-1" 270 0 basechar 0
AnchorPoint: "Anchor-0" 275 496 basechar 0
LayerCount: 2
Fore
SplineSet
269 -12 m 0,0,1
 198 -12 198 -12 146 21.5 c 128,-1,2
 94 55 94 55 66 113 c 128,-1,3
 38 171 38 171 38 246 c 0,4,5
 38 320 38 320 67.5 378.5 c 128,-1,6
 97 437 97 437 151 470.5 c 128,-1,7
 205 504 205 504 278 504 c 0,8,9
 345 504 345 504 393 471 c 128,-1,10
 441 438 441 438 465 392 c 1,11,-1
 388 364 l 1,12,13
 372 394 372 394 341 412 c 128,-1,14
 310 430 310 430 272 430 c 0,15,16
 235 430 235 430 202 410.5 c 128,-1,17
 169 391 169 391 149 350.5 c 128,-1,18
 129 310 129 310 129 247 c 0,19,20
 129 185 129 185 149.5 143.5 c 128,-1,21
 170 102 170 102 202.5 82 c 128,-1,22
 235 62 235 62 272 62 c 0,23,24
 313 62 313 62 343.5 80.5 c 128,-1,25
 374 99 374 99 390 127 c 1,26,-1
 467 99 l 1,27,28
 439 51 439 51 387 19.5 c 128,-1,29
 335 -12 335 -12 269 -12 c 0,0,1
EndSplineSet
EndChar

StartChar: d
Encoding: 100 100 44
Width: 564
GlyphClass: 2
Flags: W
HStem: -12 72<200.01 346.113> 0 21G<428.133 513> 432 72<198.452 346.113> 648 20G<412 496>
VStem: 38 94<136.359 356.96> 412 84<132.304 360.343 418 668>
AnchorPoint: "Anchor-1" 282 0 basechar 0
AnchorPoint: "Anchor-0" 251 504 basechar 0
LayerCount: 2
Fore
SplineSet
251 -12 m 0,0,1
 195 -12 195 -12 146 18.5 c 128,-1,2
 97 49 97 49 67.5 106.5 c 128,-1,3
 38 164 38 164 38 246 c 256,4,5
 38 328 38 328 67.5 385.5 c 128,-1,6
 97 443 97 443 146 473.5 c 128,-1,7
 195 504 195 504 251 504 c 0,8,9
 310 504 310 504 350 480.5 c 128,-1,10
 390 457 390 457 412 418 c 1,11,-1
 412 668 l 1,12,-1
 496 668 l 1,13,-1
 496 187 l 2,14,15
 496 162 496 162 498 113.5 c 128,-1,16
 500 65 500 65 513 0 c 1,17,-1
 434 0 l 1,18,-1
 412 75 l 1,19,20
 390 35 390 35 350 11.5 c 128,-1,21
 310 -12 310 -12 251 -12 c 0,0,1
273 60 m 256,22,23
 337 60 337 60 375.5 109 c 128,-1,24
 414 158 414 158 414 246 c 0,25,26
 414 335 414 335 375.5 383.5 c 128,-1,27
 337 432 337 432 273 432 c 256,28,29
 209 432 209 432 170.5 383.5 c 128,-1,30
 132 335 132 335 132 246 c 0,31,32
 132 158 132 158 170.5 109 c 128,-1,33
 209 60 209 60 273 60 c 256,22,23
EndSplineSet
EndChar

StartChar: e
Encoding: 101 101 45
Width: 539
GlyphClass: 2
Flags: W
HStem: -12 74<202.004 366.328> 225 67<129 421> 432 72<193.941 356.518>
VStem: 38 90<136.406 225 292 362.849> 421 89<292 363.93>
AnchorPoint: "Anchor-2" 365 0 basechar 0
AnchorPoint: "Anchor-1" 270 0 basechar 0
AnchorPoint: "Anchor-0" 281 496 basechar 0
LayerCount: 2
Fore
SplineSet
281 -12 m 0,0,1
 203 -12 203 -12 149 22.5 c 128,-1,2
 95 57 95 57 66.5 115.5 c 128,-1,3
 38 174 38 174 38 247 c 0,4,5
 38 326 38 326 70 383.5 c 128,-1,6
 102 441 102 441 156.5 472.5 c 128,-1,7
 211 504 211 504 279 504 c 0,8,9
 338 504 338 504 383 480.5 c 128,-1,10
 428 457 428 457 457.5 417.5 c 128,-1,11
 487 378 487 378 500.5 328 c 128,-1,12
 514 278 514 278 510 225 c 1,13,-1
 128 225 l 1,14,15
 130 163 130 163 155.5 127 c 128,-1,16
 181 91 181 91 216 76.5 c 128,-1,17
 251 62 251 62 281 62 c 0,18,19
 323 62 323 62 351.5 75.5 c 128,-1,20
 380 89 380 89 397 111 c 1,21,-1
 478 87 l 1,22,23
 451 44 451 44 401 16 c 128,-1,24
 351 -12 351 -12 281 -12 c 0,0,1
129 292 m 1,25,-1
 421 292 l 1,26,27
 421 327 421 327 403.5 359 c 128,-1,28
 386 391 386 391 354.5 411.5 c 128,-1,29
 323 432 323 432 279 432 c 0,30,31
 242 432 242 432 209 418 c 128,-1,32
 176 404 176 404 154.5 373 c 128,-1,33
 133 342 133 342 129 292 c 1,25,-1
EndSplineSet
EndChar

StartChar: f
Encoding: 102 102 46
Width: 311
GlyphClass: 1
Flags: W
HStem: 0 21G<99 183> 429 67<15 99 183 286> 635 71<192.802 286>
VStem: 99 84<0 429 496 621.588>
AnchorPoint: "Anchor-0" 90 646 basechar 0
LayerCount: 2
Fore
SplineSet
99 0 m 1,0,-1
 99 429 l 1,1,-1
 15 429 l 1,2,-1
 15 496 l 1,3,-1
 99 496 l 1,4,-1
 99 570 l 2,5,6
 99 621 99 621 109 651 c 128,-1,7
 119 681 119 681 148 693.5 c 128,-1,8
 177 706 177 706 232 706 c 2,9,-1
 286 706 l 1,10,-1
 286 635 l 1,11,-1
 234 635 l 2,12,13
 202 635 202 635 192.5 622 c 128,-1,14
 183 609 183 609 183 571 c 2,15,-1
 183 496 l 1,16,-1
 286 496 l 1,17,-1
 286 429 l 1,18,-1
 183 429 l 1,19,-1
 183 0 l 1,20,-1
 99 0 l 1,0,-1
EndSplineSet
EndChar

StartChar: g
Encoding: 103 103 47
Width: 560
GlyphClass: 2
Flags: W
HStem: -192 74<195.502 362.951> 9 70<195.824 342.498> 432 72<195.019 341.891> 476 20G<423.103 490>
VStem: 38 91<152.416 359.779> 406 84<-70.2194 94 144.578 367.414> 429 61<472.261 496>
AnchorPoint: "Anchor-1" 280 -251 basechar 0
AnchorPoint: "Anchor-0" 268 496 basechar 0
LayerCount: 2
Fore
SplineSet
274 -192 m 0,0,1
 234 -192 234 -192 194.5 -180.5 c 128,-1,2
 155 -169 155 -169 124.5 -143 c 128,-1,3
 94 -117 94 -117 81 -76 c 1,4,-1
 165 -53 l 1,5,6
 179 -92 179 -92 211 -105 c 128,-1,7
 243 -118 243 -118 274 -118 c 0,8,9
 351 -118 351 -118 378.5 -81 c 128,-1,10
 406 -44 406 -44 406 28 c 2,11,-1
 406 94 l 1,12,13
 383 55 383 55 345 32 c 128,-1,14
 307 9 307 9 248 9 c 0,15,16
 193 9 193 9 145 37.5 c 128,-1,17
 97 66 97 66 67.5 121.5 c 128,-1,18
 38 177 38 177 38 256 c 0,19,20
 38 336 38 336 67.5 391 c 128,-1,21
 97 446 97 446 145 475 c 128,-1,22
 193 504 193 504 248 504 c 0,23,24
 307 504 307 504 345 480.5 c 128,-1,25
 383 457 383 457 406 418 c 1,26,-1
 429 496 l 1,27,-1
 490 496 l 1,28,-1
 490 47 l 2,29,30
 490 -71 490 -71 442.5 -131.5 c 128,-1,31
 395 -192 395 -192 274 -192 c 0,0,1
269 79 m 0,32,33
 307 79 307 79 338.5 97 c 128,-1,34
 370 115 370 115 389.5 154 c 128,-1,35
 409 193 409 193 409 256 c 256,36,37
 409 319 409 319 389.5 358 c 128,-1,38
 370 397 370 397 338.5 414.5 c 128,-1,39
 307 432 307 432 269 432 c 0,40,41
 208 432 208 432 168.5 386.5 c 128,-1,42
 129 341 129 341 129 256 c 256,43,44
 129 171 129 171 168.5 125 c 128,-1,45
 208 79 208 79 269 79 c 0,32,33
EndSplineSet
EndChar

StartChar: h
Encoding: 104 104 48
Width: 546
GlyphClass: 2
Flags: W
HStem: 0 21G<70 154 394 478> 432 72<217.066 356.916> 648 20G<70 154>
VStem: 70 84<0 370.501 421 668> 394 84<0 393.016>
AnchorPoint: "Anchor-1" 273 0 basechar 0
AnchorPoint: "Anchor-0" 273 796 basechar 0
LayerCount: 2
Fore
SplineSet
70 0 m 1,0,-1
 70 668 l 1,1,-1
 154 668 l 1,2,-1
 154 421 l 1,3,4
 175 456 175 456 213 480 c 128,-1,5
 251 504 251 504 314 504 c 0,6,7
 404 504 404 504 441 451.5 c 128,-1,8
 478 399 478 399 478 314 c 2,9,-1
 478 0 l 1,10,-1
 394 0 l 1,11,-1
 394 289 l 2,12,13
 394 327 394 327 387 359.5 c 128,-1,14
 380 392 380 392 356.5 412 c 128,-1,15
 333 432 333 432 285 432 c 0,16,17
 224 432 224 432 189 390.5 c 128,-1,18
 154 349 154 349 154 269 c 2,19,-1
 154 0 l 1,20,-1
 70 0 l 1,0,-1
EndSplineSet
EndChar

StartChar: i
Encoding: 105 105 49
Width: 278
GlyphClass: 1
Flags: W
HStem: 0 21G<114 198> 429 67<45 114> 590 125<113.08 199.92>
VStem: 94 125<609.08 696.436> 114 84<0 429>
LayerCount: 2
Fore
SplineSet
156 590 m 0,0,1
 131 590 131 590 112.5 608.5 c 128,-1,2
 94 627 94 627 94 653 c 256,3,4
 94 679 94 679 112.5 697 c 128,-1,5
 131 715 131 715 156 715 c 0,6,7
 182 715 182 715 200.5 697 c 128,-1,8
 219 679 219 679 219 653 c 256,9,10
 219 627 219 627 200.5 608.5 c 128,-1,11
 182 590 182 590 156 590 c 0,0,1
114 0 m 1,12,-1
 114 429 l 1,13,-1
 45 429 l 1,14,-1
 45 496 l 1,15,-1
 198 496 l 1,16,-1
 198 0 l 1,17,-1
 114 0 l 1,12,-1
EndSplineSet
Substitution2: "Single Substitution lookup 4 subtable" dotlessi
Substitution2: "Single Substitution lookup 3 subtable" dotlessi
EndChar

StartChar: j
Encoding: 106 106 50
Width: 254
GlyphClass: 1
Flags: W
HStem: -161 74<-58 74.4272> 476 20G<90 174> 590 125<88.08 175.436>
VStem: 69 125<609.08 696.436> 90 84<-70.7935 496>
LayerCount: 2
Fore
SplineSet
132 590 m 256,0,1
 106 590 106 590 87.5 608.5 c 128,-1,2
 69 627 69 627 69 653 c 256,3,4
 69 679 69 679 87.5 697 c 128,-1,5
 106 715 106 715 132 715 c 256,6,7
 158 715 158 715 176 697 c 128,-1,8
 194 679 194 679 194 653 c 256,9,10
 194 627 194 627 176 608.5 c 128,-1,11
 158 590 158 590 132 590 c 256,0,1
-3 -161 m 2,12,-1
 -58 -159 l 1,13,-1
 -58 -86 l 1,14,-1
 -11 -87 l 2,15,16
 31 -87 31 -87 53 -79.5 c 128,-1,17
 75 -72 75 -72 82.5 -51 c 128,-1,18
 90 -30 90 -30 90 12 c 2,19,-1
 90 496 l 1,20,-1
 174 496 l 1,21,-1
 174 7 l 2,22,23
 174 -57 174 -57 158.5 -93.5 c 128,-1,24
 143 -130 143 -130 104.5 -145.5 c 128,-1,25
 66 -161 66 -161 -3 -161 c 2,12,-1
EndSplineSet
EndChar

StartChar: k
Encoding: 107 107 51
Width: 490
GlyphClass: 2
Flags: W
HStem: 0 21G<70 154 362.59 480> 476 20G<336.063 455> 648 20G<70 154>
VStem: 70 84<0 166 273 668>
AnchorPoint: "Anchor-1" 251 0 basechar 0
AnchorPoint: "Anchor-0" 245 796 basechar 0
LayerCount: 2
Fore
SplineSet
70 0 m 1,0,-1
 70 668 l 1,1,-1
 154 668 l 1,2,-1
 154 273 l 1,3,-1
 354 496 l 1,4,-1
 455 496 l 1,5,-1
 268 291 l 1,6,-1
 480 0 l 1,7,-1
 377 0 l 1,8,-1
 212 229 l 1,9,-1
 154 166 l 1,10,-1
 154 0 l 1,11,-1
 70 0 l 1,0,-1
EndSplineSet
EndChar

StartChar: l
Encoding: 108 108 52
Width: 239
GlyphClass: 2
Flags: W
HStem: 0 74<162.257 224> 647 20G<70 154>
VStem: 70 84<87.4124 667>
AnchorPoint: "Anchor-1" 145 0 basechar 0
AnchorPoint: "Anchor-0" 117 680 basechar 0
LayerCount: 2
Fore
SplineSet
187 0 m 2,0,1
 140 0 140 0 114.5 9.5 c 128,-1,2
 89 19 89 19 79.5 46 c 128,-1,3
 70 73 70 73 70 124 c 2,4,-1
 70 667 l 1,5,-1
 154 667 l 1,6,-1
 154 138 l 2,7,8
 154 100 154 100 162 87 c 128,-1,9
 170 74 170 74 205 74 c 2,10,-1
 224 74 l 1,11,-1
 224 0 l 1,12,-1
 187 0 l 2,0,1
EndSplineSet
EndChar

StartChar: m
Encoding: 109 109 53
Width: 841
GlyphClass: 2
Flags: W
HStem: 0 21G<70 154 380 464 689 773> 432 72<214.833 342.983 516.169 651.864> 476 20G<70 137.867>
VStem: 70 84<0 373.584> 70 62<472.136 496> 380 84<0 373.584> 689 84<0 393.016>
AnchorPoint: "Anchor-1" 421 0 basechar 0
AnchorPoint: "Anchor-0" 421 496 basechar 0
LayerCount: 2
Fore
SplineSet
70 0 m 1,0,-1
 70 496 l 1,1,-1
 132 496 l 1,2,-1
 154 421 l 1,3,4
 175 456 175 456 211.5 480 c 128,-1,5
 248 504 248 504 303 504 c 0,6,7
 360 504 360 504 395 481 c 128,-1,8
 430 458 430 458 446 417 c 1,9,10
 476 463 476 463 518.5 483.5 c 128,-1,11
 561 504 561 504 613 504 c 0,12,13
 699 504 699 504 736 451.5 c 128,-1,14
 773 399 773 399 773 314 c 2,15,-1
 773 0 l 1,16,-1
 689 0 l 1,17,-1
 689 289 l 2,18,19
 689 327 689 327 681.5 359.5 c 128,-1,20
 674 392 674 392 651.5 412 c 128,-1,21
 629 432 629 432 583 432 c 0,22,23
 529 432 529 432 496.5 390.5 c 128,-1,24
 464 349 464 349 464 269 c 2,25,-1
 464 0 l 1,26,-1
 380 0 l 1,27,-1
 380 289 l 2,28,29
 380 327 380 327 372.5 359.5 c 128,-1,30
 365 392 365 392 342.5 412 c 128,-1,31
 320 432 320 432 274 432 c 0,32,33
 220 432 220 432 187 390.5 c 128,-1,34
 154 349 154 349 154 269 c 2,35,-1
 154 0 l 1,36,-1
 70 0 l 1,0,-1
EndSplineSet
EndChar

StartChar: n
Encoding: 110 110 54
Width: 546
GlyphClass: 2
Flags: W
HStem: 0 21G<70 154 394 478> 432 72<217.066 356.916> 476 20G<70 137.867>
VStem: 70 84<0 370.501> 70 62<472.136 496> 394 84<0 393.016>
AnchorPoint: "Anchor-1" 257 0 basechar 0
AnchorPoint: "Anchor-0" 288 496 basechar 0
LayerCount: 2
Fore
SplineSet
70 0 m 1,0,-1
 70 496 l 1,1,-1
 132 496 l 1,2,-1
 154 421 l 1,3,4
 175 456 175 456 213 480 c 128,-1,5
 251 504 251 504 314 504 c 0,6,7
 404 504 404 504 441 451.5 c 128,-1,8
 478 399 478 399 478 314 c 2,9,-1
 478 0 l 1,10,-1
 394 0 l 1,11,-1
 394 289 l 2,12,13
 394 327 394 327 387 359.5 c 128,-1,14
 380 392 380 392 356.5 412 c 128,-1,15
 333 432 333 432 285 432 c 0,16,17
 224 432 224 432 189 390.5 c 128,-1,18
 154 349 154 349 154 269 c 2,19,-1
 154 0 l 1,20,-1
 70 0 l 1,0,-1
EndSplineSet
EndChar

StartChar: o
Encoding: 111 111 55
Width: 552
GlyphClass: 2
Flags: W
HStem: -12 74<203.063 349.349> 430 74<203.063 349.349>
VStem: 38 90<142.02 349.98> 424 90<142.02 349.98>
AnchorPoint: "Anchor-2" 497 10 basechar 0
AnchorPoint: "Anchor-1" 276 0 basechar 0
AnchorPoint: "Anchor-0" 276 496 basechar 0
LayerCount: 2
Fore
SplineSet
276 -12 m 256,0,1
 233 -12 233 -12 191 3 c 128,-1,2
 149 18 149 18 114.5 49.5 c 128,-1,3
 80 81 80 81 59 130 c 128,-1,4
 38 179 38 179 38 246 c 256,5,6
 38 313 38 313 59 362 c 128,-1,7
 80 411 80 411 114.5 442.5 c 128,-1,8
 149 474 149 474 191 489 c 128,-1,9
 233 504 233 504 276 504 c 256,10,11
 319 504 319 504 361.5 489 c 128,-1,12
 404 474 404 474 438.5 442.5 c 128,-1,13
 473 411 473 411 493.5 362 c 128,-1,14
 514 313 514 313 514 246 c 256,15,16
 514 179 514 179 493.5 130 c 128,-1,17
 473 81 473 81 438.5 49.5 c 128,-1,18
 404 18 404 18 361.5 3 c 128,-1,19
 319 -12 319 -12 276 -12 c 256,0,1
276 62 m 0,20,21
 312 62 312 62 346 81.5 c 128,-1,22
 380 101 380 101 402 141.5 c 128,-1,23
 424 182 424 182 424 246 c 256,24,25
 424 310 424 310 402 350.5 c 128,-1,26
 380 391 380 391 346 410.5 c 128,-1,27
 312 430 312 430 276 430 c 0,28,29
 241 430 241 430 206.5 410.5 c 128,-1,30
 172 391 172 391 150 350.5 c 128,-1,31
 128 310 128 310 128 246 c 256,32,33
 128 182 128 182 150 141.5 c 128,-1,34
 172 101 172 101 206.5 81.5 c 128,-1,35
 241 62 241 62 276 62 c 0,20,21
EndSplineSet
Substitution2: "Single Substitution lookup 12 subtable" ordmasculine
Substitution2: "'aalt' Access All Alternates lookup 0 subtable" ordmasculine
EndChar

StartChar: p
Encoding: 112 112 56
Width: 566
GlyphClass: 1
Flags: W
HStem: -161 21G<70 154> -12 72<220.386 366.294> 432 72<220.386 367.029> 476 20G<70 136.897>
VStem: 70 84<-161 75 132.304 360.343> 70 61<472.261 496> 434 94<135.694 356.96>
LayerCount: 2
Fore
SplineSet
70 -161 m 1,0,-1
 70 496 l 1,1,-1
 131 496 l 1,2,-1
 154 418 l 1,3,4
 177 457 177 457 217 480.5 c 128,-1,5
 257 504 257 504 315 504 c 0,6,7
 372 504 372 504 420.5 473.5 c 128,-1,8
 469 443 469 443 498.5 385.5 c 128,-1,9
 528 328 528 328 528 246 c 0,10,11
 528 165 528 165 498.5 107 c 128,-1,12
 469 49 469 49 420.5 18.5 c 128,-1,13
 372 -12 372 -12 315 -12 c 0,14,15
 257 -12 257 -12 217 11.5 c 128,-1,16
 177 35 177 35 154 75 c 1,17,-1
 154 -161 l 1,18,-1
 70 -161 l 1,0,-1
293 60 m 256,19,20
 357 60 357 60 395.5 109 c 128,-1,21
 434 158 434 158 434 246 c 0,22,23
 434 335 434 335 395.5 383.5 c 128,-1,24
 357 432 357 432 293 432 c 256,25,26
 229 432 229 432 190.5 383.5 c 128,-1,27
 152 335 152 335 152 246 c 0,28,29
 152 158 152 158 190.5 109 c 128,-1,30
 229 60 229 60 293 60 c 256,19,20
EndSplineSet
EndChar

StartChar: q
Encoding: 113 113 57
Width: 576
GlyphClass: 1
Flags: W
HStem: -173 79<513.015 627.157> -12 72<199.457 345.84> 432 72<198.717 345.84> 476 20G<429.103 496>
VStem: 38 93<136.688 355.969> 412 84<-71.8268 75 132.304 360.343> 435 61<472.261 496>
LayerCount: 2
Fore
SplineSet
543 -173 m 0,0,1
 509 -173 509 -173 479 -160 c 128,-1,2
 449 -147 449 -147 430.5 -115.5 c 128,-1,3
 412 -84 412 -84 412 -27 c 2,4,-1
 412 75 l 1,5,6
 390 35 390 35 349.5 11.5 c 128,-1,7
 309 -12 309 -12 250 -12 c 0,8,9
 194 -12 194 -12 145.5 18.5 c 128,-1,10
 97 49 97 49 67.5 107 c 128,-1,11
 38 165 38 165 38 246 c 0,12,13
 38 328 38 328 67.5 385.5 c 128,-1,14
 97 443 97 443 145.5 473.5 c 128,-1,15
 194 504 194 504 250 504 c 0,16,17
 309 504 309 504 349.5 480.5 c 128,-1,18
 390 457 390 457 412 418 c 1,19,-1
 435 496 l 1,20,-1
 496 496 l 1,21,-1
 496 -24 l 2,22,23
 496 -51 496 -51 512.5 -72.5 c 128,-1,24
 529 -94 529 -94 567 -94 c 0,25,26
 593 -94 593 -94 628 -81 c 1,27,-1
 628 -159 l 1,28,29
 609 -165 609 -165 587 -169 c 128,-1,30
 565 -173 565 -173 543 -173 c 0,0,1
273 60 m 256,31,32
 337 60 337 60 375.5 109 c 128,-1,33
 414 158 414 158 414 246 c 0,34,35
 414 335 414 335 375.5 383.5 c 128,-1,36
 337 432 337 432 273 432 c 256,37,38
 209 432 209 432 170 383.5 c 128,-1,39
 131 335 131 335 131 246 c 0,40,41
 131 158 131 158 170 109 c 128,-1,42
 209 60 209 60 273 60 c 256,31,32
EndSplineSet
EndChar

StartChar: r
Encoding: 114 114 58
Width: 340
GlyphClass: 2
Flags: W
HStem: 0 21G<70 154> 417 87<239.543 335> 476 20G<70 136.87>
VStem: 70 84<0 334.225> 70 61<472.148 496>
AnchorPoint: "Anchor-1" 113 0 basechar 0
AnchorPoint: "Anchor-0" 199 496 basechar 0
LayerCount: 2
Fore
SplineSet
70 0 m 1,0,-1
 70 496 l 1,1,-1
 131 496 l 1,2,-1
 158 404 l 1,3,4
 184 449 184 449 228.5 476.5 c 128,-1,5
 273 504 273 504 335 504 c 1,6,-1
 335 417 l 1,7,8
 328 417 328 417 320.5 417 c 128,-1,9
 313 417 313 417 306 416 c 0,10,11
 221 409 221 409 187.5 357 c 128,-1,12
 154 305 154 305 154 213 c 2,13,-1
 154 0 l 1,14,-1
 70 0 l 1,0,-1
EndSplineSet
EndChar

StartChar: s
Encoding: 115 115 59
Width: 471
GlyphClass: 2
Flags: W
HStem: -12 71<157.069 322.393> 434 71<149.902 306.712>
VStem: 41 85<324.32 410.717> 356 85<89.6953 183.453>
AnchorPoint: "Anchor-1" 230 0 basechar 0
AnchorPoint: "Anchor-0" 240 496 basechar 0
LayerCount: 2
Fore
SplineSet
239 -12 m 0,0,1
 196 -12 196 -12 154.5 1.5 c 128,-1,2
 113 15 113 15 80.5 42.5 c 128,-1,3
 48 70 48 70 31 112 c 1,4,-1
 112 142 l 1,5,6
 123 98 123 98 160.5 78.5 c 128,-1,7
 198 59 198 59 239 59 c 0,8,9
 269 59 269 59 295.5 68 c 128,-1,10
 322 77 322 77 339 94 c 128,-1,11
 356 111 356 111 356 133 c 0,12,13
 356 174 356 174 323.5 191 c 128,-1,14
 291 208 291 208 246 217 c 2,15,-1
 177 231 l 2,16,17
 141 239 141 239 110 253.5 c 128,-1,18
 79 268 79 268 60 295 c 128,-1,19
 41 322 41 322 41 367 c 256,20,21
 41 412 41 412 69 442.5 c 128,-1,22
 97 473 97 473 140.5 489 c 128,-1,23
 184 505 184 505 232 505 c 0,24,25
 291 505 291 505 343.5 480.5 c 128,-1,26
 396 456 396 456 418 404 c 1,27,-1
 339 375 l 1,28,29
 326 405 326 405 293.5 419.5 c 128,-1,30
 261 434 261 434 226 434 c 0,31,32
 188 434 188 434 157 417 c 128,-1,33
 126 400 126 400 126 368 c 256,34,35
 126 336 126 336 152.5 321.5 c 128,-1,36
 179 307 179 307 218 299 c 2,37,-1
 283 286 l 2,38,39
 323 278 323 278 359 263 c 128,-1,40
 395 248 395 248 418 218.5 c 128,-1,41
 441 189 441 189 441 136 c 0,42,43
 441 89 441 89 412 56 c 128,-1,44
 383 23 383 23 337 5.5 c 128,-1,45
 291 -12 291 -12 239 -12 c 0,0,1
EndSplineSet
EndChar

StartChar: t
Encoding: 116 116 60
Width: 324
GlyphClass: 2
Flags: W
HStem: 0 74<195.741 284> 429 67<20 104 188 284>
VStem: 104 84<87.4124 429 496 621>
AnchorPoint: "Anchor-1" 183 0 basechar 0
AnchorPoint: "Anchor-0" 162 496 basechar 0
LayerCount: 2
Fore
SplineSet
221 0 m 2,0,1
 174 0 174 0 148.5 9.5 c 128,-1,2
 123 19 123 19 113.5 46 c 128,-1,3
 104 73 104 73 104 124 c 2,4,-1
 104 429 l 1,5,-1
 20 429 l 1,6,-1
 20 496 l 1,7,-1
 104 496 l 1,8,-1
 104 621 l 1,9,-1
 188 621 l 1,10,-1
 188 496 l 1,11,-1
 284 496 l 1,12,-1
 284 429 l 1,13,-1
 188 429 l 1,14,-1
 188 138 l 2,15,16
 188 100 188 100 195.5 87 c 128,-1,17
 203 74 203 74 239 74 c 2,18,-1
 284 74 l 1,19,-1
 284 0 l 1,20,-1
 221 0 l 2,0,1
EndSplineSet
EndChar

StartChar: u
Encoding: 117 117 61
Width: 536
GlyphClass: 2
Flags: W
HStem: -12 74<186.659 321.348> 0 21G<397.167 466> 477 20G<68 152 382 466>
VStem: 68 84<98.818 497> 382 84<121.907 497> 403 63<0 24>
AnchorPoint: "Anchor-2" 469 0 basechar 0
AnchorPoint: "Anchor-1" 268 0 basechar 0
AnchorPoint: "Anchor-0" 267 496 basechar 0
LayerCount: 2
Fore
SplineSet
227 -12 m 0,0,1
 169 -12 169 -12 134 12.5 c 128,-1,2
 99 37 99 37 83.5 80.5 c 128,-1,3
 68 124 68 124 68 180 c 2,4,-1
 68 497 l 1,5,-1
 152 497 l 1,6,-1
 152 200 l 2,7,8
 152 145 152 145 165 115 c 128,-1,9
 178 85 178 85 201.5 73.5 c 128,-1,10
 225 62 225 62 256 62 c 0,11,12
 315 62 315 62 348.5 103.5 c 128,-1,13
 382 145 382 145 382 224 c 2,14,-1
 382 497 l 1,15,-1
 466 497 l 1,16,-1
 466 0 l 1,17,-1
 403 0 l 1,18,-1
 382 72 l 1,19,20
 361 36 361 36 325 12 c 128,-1,21
 289 -12 289 -12 227 -12 c 0,0,1
EndSplineSet
EndChar

StartChar: v
Encoding: 118 118 62
Width: 441
GlyphClass: 1
Flags: W
HStem: 0 21G<169.863 271.137> 476 20G<0 97.7358 343.316 441>
LayerCount: 2
Fore
SplineSet
177 0 m 1,0,-1
 0 496 l 1,1,-1
 91 496 l 1,2,-1
 221 110 l 1,3,-1
 350 496 l 1,4,-1
 441 496 l 1,5,-1
 264 0 l 1,6,-1
 177 0 l 1,0,-1
EndSplineSet
Validated: 1
EndChar

StartChar: w
Encoding: 119 119 63
Width: 654
GlyphClass: 1
Flags: W
HStem: 0 21G<137.234 224.414 429.586 517.726> 476 20G<0 95.1771 278.605 376.341 558.823 654>
LayerCount: 2
Fore
SplineSet
143 0 m 1,0,-1
 0 496 l 1,1,-1
 90 496 l 1,2,-1
 185 129 l 1,3,-1
 284 496 l 1,4,-1
 371 496 l 1,5,-1
 469 129 l 1,6,-1
 564 496 l 1,7,-1
 654 496 l 1,8,-1
 512 0 l 1,9,-1
 435 0 l 1,10,-1
 327 399 l 1,11,-1
 219 0 l 1,12,-1
 143 0 l 1,0,-1
EndSplineSet
Validated: 1
EndChar

StartChar: x
Encoding: 120 120 64
Width: 461
GlyphClass: 1
Flags: W
HStem: 0 21G<0 113.162 347.73 461> 476 20G<9 122.186 338.698 452>
LayerCount: 2
Fore
SplineSet
0 0 m 1,0,-1
 181 255 l 1,1,-1
 9 496 l 1,2,-1
 108 496 l 1,3,-1
 230 324 l 1,4,-1
 353 496 l 1,5,-1
 452 496 l 1,6,-1
 280 255 l 1,7,-1
 461 0 l 1,8,-1
 362 0 l 1,9,-1
 230 185 l 1,10,-1
 99 0 l 1,11,-1
 0 0 l 1,0,-1
EndSplineSet
Validated: 1
EndChar

StartChar: y
Encoding: 121 121 65
Width: 429
GlyphClass: 2
Flags: W
HStem: -161 74<37 149.938> 475 20G<0 99.3874 330.613 429>
AnchorPoint: "Anchor-1" 215 0 basechar 0
AnchorPoint: "Anchor-0" 220 496 basechar 0
LayerCount: 2
Fore
SplineSet
37 -161 m 1,0,-1
 37 -87 l 1,1,-1
 71 -87 l 2,2,3
 107 -87 107 -87 126 -81.5 c 128,-1,4
 145 -76 145 -76 156.5 -57.5 c 128,-1,5
 168 -39 168 -39 179 -1 c 1,6,-1
 0 495 l 1,7,-1
 93 495 l 1,8,-1
 215 113 l 1,9,-1
 337 495 l 1,10,-1
 429 495 l 1,11,-1
 253 -22 l 2,12,13
 235 -75 235 -75 216.5 -105.5 c 128,-1,14
 198 -136 198 -136 167 -148.5 c 128,-1,15
 136 -161 136 -161 80 -161 c 2,16,-1
 37 -161 l 1,0,-1
EndSplineSet
Validated: 1
EndChar

StartChar: z
Encoding: 122 122 66
Width: 460
GlyphClass: 2
Flags: W
HStem: 0 74<135 430> 422 74<49 325>
AnchorPoint: "Anchor-1" 230 0 basechar 0
AnchorPoint: "Anchor-0" 237 496 basechar 0
LayerCount: 2
Fore
SplineSet
40 0 m 1,0,-1
 40 74 l 1,1,-1
 325 422 l 1,2,-1
 49 422 l 1,3,-1
 49 496 l 1,4,-1
 420 496 l 1,5,-1
 420 422 l 1,6,-1
 135 74 l 1,7,-1
 430 74 l 1,8,-1
 430 0 l 1,9,-1
 40 0 l 1,0,-1
EndSplineSet
EndChar

StartChar: circumflex
Encoding: 258 710 67
Width: 429
GlyphClass: 1
Flags: W
HStem: 575 120
VStem: 53 323
LayerCount: 2
Fore
SplineSet
53 575 m 1,0,-1
 165 676 l 2,1,2
 185 695 185 695 215 695 c 0,3,4
 244 695 244 695 264 676 c 2,5,-1
 376 575 l 1,6,-1
 282 575 l 1,7,-1
 214 636 l 1,8,-1
 147 575 l 1,9,-1
 53 575 l 1,0,-1
EndSplineSet
EndChar

StartChar: caron
Encoding: 259 711 68
Width: 429
GlyphClass: 1
Flags: W
HStem: 569 120
VStem: 53 323
LayerCount: 2
Fore
SplineSet
215 569 m 0,0,1
 185 569 185 569 165 588 c 2,2,-1
 53 689 l 1,3,-1
 147 689 l 1,4,-1
 214 628 l 1,5,-1
 282 689 l 1,6,-1
 376 689 l 1,7,-1
 264 588 l 2,8,9
 244 569 244 569 215 569 c 0,0,1
EndSplineSet
EndChar

StartChar: breve
Encoding: 260 728 69
Width: 399
GlyphClass: 1
Flags: W
HStem: 569 67<143.784 255.493>
VStem: 53 294
LayerCount: 2
Fore
SplineSet
200 569 m 0,0,1
 145 569 145 569 104.5 603.5 c 128,-1,2
 64 638 64 638 53 689 c 1,3,-1
 122 689 l 1,4,5
 131 666 131 666 152 651 c 128,-1,6
 173 636 173 636 200 636 c 0,7,8
 226 636 226 636 247 651 c 128,-1,9
 268 666 268 666 278 689 c 1,10,-1
 347 689 l 1,11,12
 337 638 337 638 295.5 603.5 c 128,-1,13
 254 569 254 569 200 569 c 0,0,1
EndSplineSet
EndChar

StartChar: dotaccent
Encoding: 261 729 70
Width: 214
GlyphClass: 1
Flags: W
HStem: 590 108<69.5015 145.014>
VStem: 53 108<606.501 682.014>
LayerCount: 2
Fore
SplineSet
107 590 m 0,0,1
 85 590 85 590 69 606 c 128,-1,2
 53 622 53 622 53 644 c 0,3,4
 53 667 53 667 69 682.5 c 128,-1,5
 85 698 85 698 107 698 c 0,6,7
 130 698 130 698 145.5 682.5 c 128,-1,8
 161 667 161 667 161 644 c 0,9,10
 161 622 161 622 145.5 606 c 128,-1,11
 130 590 130 590 107 590 c 0,0,1
EndSplineSet
EndChar

StartChar: ring
Encoding: 262 730 71
Width: 253
GlyphClass: 1
Flags: W
HStem: 559 58<84.3475 163.728> 719 58<84.3475 163.728>
VStem: 15 57<629.61 706.718> 176 57<629.673 706.327>
LayerCount: 2
Fore
SplineSet
126 559 m 0,0,1
 95 559 95 559 70 574 c 128,-1,2
 45 589 45 589 30 614 c 128,-1,3
 15 639 15 639 15 668 c 0,4,5
 15 698 15 698 30 722.5 c 128,-1,6
 45 747 45 747 70 762 c 128,-1,7
 95 777 95 777 126 777 c 0,8,9
 172 777 172 777 202.5 744.5 c 128,-1,10
 233 712 233 712 233 668 c 256,11,12
 233 624 233 624 202.5 591.5 c 128,-1,13
 172 559 172 559 126 559 c 0,0,1
124 617 m 256,14,15
 146 617 146 617 161 632 c 128,-1,16
 176 647 176 647 176 668 c 256,17,18
 176 689 176 689 161 704 c 128,-1,19
 146 719 146 719 124 719 c 256,20,21
 102 719 102 719 87 704 c 128,-1,22
 72 689 72 689 72 668 c 256,23,24
 72 647 72 647 87 632 c 128,-1,25
 102 617 102 617 124 617 c 256,14,15
EndSplineSet
EndChar

StartChar: ogonek
Encoding: 263 731 72
Width: 263
GlyphClass: 1
Flags: W
HStem: -173 58<132.236 209.313> -20 20G<114.5 210>
VStem: 53 70<-107.034 -34.266>
LayerCount: 2
Fore
SplineSet
147 -173 m 0,0,1
 102 -173 102 -173 77.5 -148 c 128,-1,2
 53 -123 53 -123 53 -91 c 0,3,4
 53 -60 53 -60 74.5 -34.5 c 128,-1,5
 96 -9 96 -9 133 0 c 1,6,-1
 210 0 l 1,7,8
 159 -19 159 -19 141 -37.5 c 128,-1,9
 123 -56 123 -56 123 -75 c 0,10,11
 123 -95 123 -95 137 -105 c 128,-1,12
 151 -115 151 -115 172 -115 c 0,13,14
 181 -115 181 -115 190.5 -113 c 128,-1,15
 200 -111 200 -111 210 -107 c 1,16,-1
 210 -161 l 1,17,18
 176 -173 176 -173 147 -173 c 0,0,1
EndSplineSet
EndChar

StartChar: quoteleft
Encoding: 264 8216 73
Width: 235
GlyphClass: 1
Flags: W
HStem: 418 250<120 127.504>
VStem: 53 129<437.08 529.641>
LayerCount: 2
Fore
SplineSet
118 418 m 0,0,1
 91 418 91 418 72 437.5 c 128,-1,2
 53 457 53 457 53 482 c 0,3,4
 53 494 53 494 58 507 c 2,5,-1
 120 668 l 1,6,-1
 175 668 l 1,7,-1
 128 546 l 1,8,9
 151 542 151 542 166.5 524 c 128,-1,10
 182 506 182 506 182 482 c 0,11,12
 182 455 182 455 163 436.5 c 128,-1,13
 144 418 144 418 118 418 c 0,0,1
EndSplineSet
EndChar

StartChar: quoteright
Encoding: 265 8217 74
Width: 235
GlyphClass: 1
Flags: W
HStem: 429 251<107.496 115>
VStem: 53 129<568.219 660.404>
LayerCount: 2
Fore
SplineSet
60 429 m 1,0,-1
 107 552 l 1,1,2
 84 556 84 556 68.5 573.5 c 128,-1,3
 53 591 53 591 53 615 c 0,4,5
 53 642 53 642 72 661 c 128,-1,6
 91 680 91 680 117 680 c 0,7,8
 144 680 144 680 163 661 c 128,-1,9
 182 642 182 642 182 616 c 0,10,11
 182 604 182 604 177 591 c 2,12,-1
 115 429 l 1,13,-1
 60 429 l 1,0,-1
EndSplineSet
EndChar

StartChar: quotesinglbase
Encoding: 266 8218 75
Width: 235
GlyphClass: 1
Flags: W
HStem: -134 251<107.496 115>
VStem: 53 129<5.21875 97.4043>
LayerCount: 2
Fore
SplineSet
60 -134 m 1,0,-1
 107 -11 l 1,1,2
 84 -7 84 -7 68.5 10.5 c 128,-1,3
 53 28 53 28 53 52 c 0,4,5
 53 79 53 79 72 98 c 128,-1,6
 91 117 91 117 117 117 c 0,7,8
 144 117 144 117 163 98 c 128,-1,9
 182 79 182 79 182 53 c 0,10,11
 182 41 182 41 177 28 c 2,12,-1
 115 -134 l 1,13,-1
 60 -134 l 1,0,-1
EndSplineSet
EndChar

StartChar: quotedblleft
Encoding: 267 8220 76
Width: 398
GlyphClass: 1
Flags: W
HStem: 418 250<120 127.504 283 290.504>
VStem: 53 129<437.08 529.344> 216 129<437.08 529.344>
LayerCount: 2
Fore
SplineSet
118 418 m 0,0,1
 93 418 93 418 73 435.5 c 128,-1,2
 53 453 53 453 53 477 c 0,3,4
 53 488 53 488 55 496.5 c 128,-1,5
 57 505 57 505 61 515 c 2,6,-1
 120 668 l 1,7,-1
 175 668 l 1,8,-1
 128 546 l 1,9,10
 151 542 151 542 166.5 524 c 128,-1,11
 182 506 182 506 182 482 c 0,12,13
 182 455 182 455 163 436.5 c 128,-1,14
 144 418 144 418 118 418 c 0,0,1
281 418 m 0,15,16
 256 418 256 418 236 435.5 c 128,-1,17
 216 453 216 453 216 477 c 0,18,19
 216 488 216 488 218 496.5 c 128,-1,20
 220 505 220 505 224 515 c 2,21,-1
 283 668 l 1,22,-1
 338 668 l 1,23,-1
 291 546 l 1,24,25
 314 542 314 542 329.5 524 c 128,-1,26
 345 506 345 506 345 482 c 0,27,28
 345 455 345 455 326 436.5 c 128,-1,29
 307 418 307 418 281 418 c 0,15,16
EndSplineSet
EndChar

StartChar: quotedblright
Encoding: 268 8221 77
Width: 398
GlyphClass: 1
Flags: W
HStem: 429 251<107.496 115 270.361 279>
VStem: 53 129<568.219 660.404> 216 129<568.219 660.404>
LayerCount: 2
Fore
SplineSet
60 429 m 1,0,-1
 107 552 l 1,1,2
 84 556 84 556 68.5 573.5 c 128,-1,3
 53 591 53 591 53 615 c 0,4,5
 53 642 53 642 72 661 c 128,-1,6
 91 680 91 680 117 680 c 0,7,8
 144 680 144 680 163 661 c 128,-1,9
 182 642 182 642 182 616 c 0,10,11
 182 604 182 604 177 591 c 2,12,-1
 115 429 l 1,13,-1
 60 429 l 1,0,-1
223 429 m 1,14,-1
 270 552 l 1,15,16
 247 556 247 556 231.5 573.5 c 128,-1,17
 216 591 216 591 216 615 c 0,18,19
 216 642 216 642 235 661 c 128,-1,20
 254 680 254 680 281 680 c 256,21,22
 308 680 308 680 326.5 661 c 128,-1,23
 345 642 345 642 345 616 c 0,24,25
 345 604 345 604 340 591 c 2,26,-1
 279 429 l 1,27,-1
 223 429 l 1,14,-1
EndSplineSet
EndChar

StartChar: quotedblbase
Encoding: 269 8222 78
Width: 398
GlyphClass: 1
Flags: W
HStem: -134 251<107.496 115 270.361 279>
VStem: 53 129<5.21875 97.4043> 216 129<5.21875 97.4043>
LayerCount: 2
Fore
SplineSet
60 -134 m 1,0,-1
 107 -11 l 1,1,2
 84 -7 84 -7 68.5 10.5 c 128,-1,3
 53 28 53 28 53 52 c 0,4,5
 53 79 53 79 72 98 c 128,-1,6
 91 117 91 117 117 117 c 0,7,8
 144 117 144 117 163 98 c 128,-1,9
 182 79 182 79 182 53 c 0,10,11
 182 41 182 41 177 28 c 2,12,-1
 115 -134 l 1,13,-1
 60 -134 l 1,0,-1
223 -134 m 1,14,-1
 270 -11 l 1,15,16
 247 -7 247 -7 231.5 10.5 c 128,-1,17
 216 28 216 28 216 52 c 0,18,19
 216 79 216 79 235 98 c 128,-1,20
 254 117 254 117 281 117 c 256,21,22
 308 117 308 117 326.5 98 c 128,-1,23
 345 79 345 79 345 53 c 0,24,25
 345 41 345 41 340 28 c 2,26,-1
 279 -134 l 1,27,-1
 223 -134 l 1,14,-1
EndSplineSet
EndChar

StartChar: dagger
Encoding: 270 8224 79
Width: 541
GlyphClass: 1
Flags: W
HStem: 0 21G<230 311> 416 80<40 230 311 501> 648 20G<230 311>
VStem: 230 81<0 416 496 668>
LayerCount: 2
Fore
SplineSet
230 0 m 1,0,-1
 230 416 l 1,1,-1
 40 416 l 1,2,-1
 40 496 l 1,3,-1
 230 496 l 1,4,-1
 230 668 l 1,5,-1
 311 668 l 1,6,-1
 311 496 l 1,7,-1
 501 496 l 1,8,-1
 501 416 l 1,9,-1
 311 416 l 1,10,-1
 311 0 l 1,11,-1
 230 0 l 1,0,-1
EndSplineSet
EndChar

StartChar: daggerdbl
Encoding: 271 8225 80
Width: 541
GlyphClass: 1
Flags: W
HStem: 0 21G<230 311> 172 79<40 230 311 501> 416 80<40 230 311 501> 648 20G<230 311>
VStem: 230 81<0 172 251 416 496 668>
LayerCount: 2
Fore
SplineSet
230 0 m 1,0,-1
 230 172 l 1,1,-1
 40 172 l 1,2,-1
 40 251 l 1,3,-1
 230 251 l 1,4,-1
 230 416 l 1,5,-1
 40 416 l 1,6,-1
 40 496 l 1,7,-1
 230 496 l 1,8,-1
 230 668 l 1,9,-1
 311 668 l 1,10,-1
 311 496 l 1,11,-1
 501 496 l 1,12,-1
 501 416 l 1,13,-1
 311 416 l 1,14,-1
 311 251 l 1,15,-1
 501 251 l 1,16,-1
 501 172 l 1,17,-1
 311 172 l 1,18,-1
 311 0 l 1,19,-1
 230 0 l 1,0,-1
EndSplineSet
EndChar

StartChar: bullet
Encoding: 272 8226 81
Width: 438
GlyphClass: 1
Flags: W
HStem: 88 332<136.674 301.326>
VStem: 53 332<172.189 336.326>
LayerCount: 2
Fore
SplineSet
219 88 m 256,0,1
 173 88 173 88 135.5 110.5 c 128,-1,2
 98 133 98 133 75.5 171 c 128,-1,3
 53 209 53 209 53 254 c 0,4,5
 53 300 53 300 75.5 337.5 c 128,-1,6
 98 375 98 375 135.5 397.5 c 128,-1,7
 173 420 173 420 219 420 c 256,8,9
 265 420 265 420 302.5 397.5 c 128,-1,10
 340 375 340 375 362.5 337.5 c 128,-1,11
 385 300 385 300 385 254 c 0,12,13
 385 209 385 209 362.5 171 c 128,-1,14
 340 133 340 133 302.5 110.5 c 128,-1,15
 265 88 265 88 219 88 c 256,0,1
EndSplineSet
EndChar

StartChar: ellipsis
Encoding: 273 8230 82
Width: 696
GlyphClass: 1
Flags: W
HStem: -12 129<72.5955 162.404 303.08 393.404 533.596 623.405>
VStem: 53 129<7.59546 97.4043> 284 129<7.59546 97.4043> 514 129<7.59546 97.4043>
LayerCount: 2
Fore
SplineSet
579 -12 m 0,0,1
 552 -12 552 -12 533 7 c 128,-1,2
 514 26 514 26 514 52 c 0,3,4
 514 79 514 79 533 98 c 128,-1,5
 552 117 552 117 579 117 c 0,6,7
 605 117 605 117 624 98 c 128,-1,8
 643 79 643 79 643 52 c 0,9,10
 643 26 643 26 624 7 c 128,-1,11
 605 -12 605 -12 579 -12 c 0,0,1
117 -12 m 0,12,13
 91 -12 91 -12 72 7 c 128,-1,14
 53 26 53 26 53 52 c 0,15,16
 53 79 53 79 72 98 c 128,-1,17
 91 117 91 117 117 117 c 0,18,19
 144 117 144 117 163 98 c 128,-1,20
 182 79 182 79 182 52 c 0,21,22
 182 26 182 26 163 7 c 128,-1,23
 144 -12 144 -12 117 -12 c 0,12,13
348 -12 m 256,24,25
 321 -12 321 -12 302.5 7 c 128,-1,26
 284 26 284 26 284 52 c 0,27,28
 284 79 284 79 302.5 98 c 128,-1,29
 321 117 321 117 348 117 c 256,30,31
 375 117 375 117 394 98 c 128,-1,32
 413 79 413 79 413 52 c 0,33,34
 413 26 413 26 394 7 c 128,-1,35
 375 -12 375 -12 348 -12 c 256,24,25
EndSplineSet
EndChar

StartChar: perthousand
Encoding: 274 8240 83
Width: 1328
GlyphClass: 1
Flags: W
HStem: -12 74<642.997 772.399 1044 1173.4> 0 21G<186 288.012> 277 74<642.997 772.399 1044 1173.4> 316 75<155.311 284.399> 605 75<155.311 284.399> 648 20G<639.988 742>
VStem: 38 74<434.173 561.827> 327 74<433.482 562.518> 526 74<104.601 234.336> 815 74<104.601 234.336> 927 74<104.601 234.336> 1216 74<104.601 234.336>
LayerCount: 2
Fore
SplineSet
220 316 m 256,0,1
 170 316 170 316 128.5 340.5 c 128,-1,2
 87 365 87 365 62.5 406.5 c 128,-1,3
 38 448 38 448 38 498 c 256,4,5
 38 548 38 548 62.5 589.5 c 128,-1,6
 87 631 87 631 128.5 655.5 c 128,-1,7
 170 680 170 680 220 680 c 256,8,9
 270 680 270 680 311 655.5 c 128,-1,10
 352 631 352 631 376.5 589.5 c 128,-1,11
 401 548 401 548 401 498 c 256,12,13
 401 448 401 448 376.5 406.5 c 128,-1,14
 352 365 352 365 311 340.5 c 128,-1,15
 270 316 270 316 220 316 c 256,0,1
186 0 m 1,16,-1
 654 668 l 1,17,-1
 742 668 l 1,18,-1
 274 0 l 1,19,-1
 186 0 l 1,16,-1
220 391 m 256,20,21
 264 391 264 391 295.5 422.5 c 128,-1,22
 327 454 327 454 327 498 c 256,23,24
 327 542 327 542 295.5 573.5 c 128,-1,25
 264 605 264 605 220 605 c 256,26,27
 176 605 176 605 144 573.5 c 128,-1,28
 112 542 112 542 112 498 c 256,29,30
 112 454 112 454 144 422.5 c 128,-1,31
 176 391 176 391 220 391 c 256,20,21
708 -12 m 256,32,33
 658 -12 658 -12 616.5 12.5 c 128,-1,34
 575 37 575 37 550.5 78 c 128,-1,35
 526 119 526 119 526 169 c 0,36,37
 526 220 526 220 550.5 261 c 128,-1,38
 575 302 575 302 616.5 326.5 c 128,-1,39
 658 351 658 351 708 351 c 256,40,41
 758 351 758 351 799 326.5 c 128,-1,42
 840 302 840 302 864.5 261 c 128,-1,43
 889 220 889 220 889 169 c 0,44,45
 889 119 889 119 864.5 78 c 128,-1,46
 840 37 840 37 799 12.5 c 128,-1,47
 758 -12 758 -12 708 -12 c 256,32,33
1109 -12 m 256,48,49
 1059 -12 1059 -12 1017.5 12.5 c 128,-1,50
 976 37 976 37 951.5 78 c 128,-1,51
 927 119 927 119 927 169 c 0,52,53
 927 220 927 220 951.5 261 c 128,-1,54
 976 302 976 302 1017.5 326.5 c 128,-1,55
 1059 351 1059 351 1109 351 c 256,56,57
 1159 351 1159 351 1200 326.5 c 128,-1,58
 1241 302 1241 302 1265.5 261 c 128,-1,59
 1290 220 1290 220 1290 169 c 0,60,61
 1290 119 1290 119 1265.5 78 c 128,-1,62
 1241 37 1241 37 1200 12.5 c 128,-1,63
 1159 -12 1159 -12 1109 -12 c 256,48,49
708 62 m 0,64,65
 752 62 752 62 783.5 93.5 c 128,-1,66
 815 125 815 125 815 169 c 0,67,68
 815 214 815 214 783.5 245.5 c 128,-1,69
 752 277 752 277 708 277 c 0,70,71
 663 277 663 277 631.5 245.5 c 128,-1,72
 600 214 600 214 600 169 c 0,73,74
 600 125 600 125 631.5 93.5 c 128,-1,75
 663 62 663 62 708 62 c 0,64,65
1109 62 m 0,76,77
 1153 62 1153 62 1184.5 93.5 c 128,-1,78
 1216 125 1216 125 1216 169 c 0,79,80
 1216 214 1216 214 1184.5 245.5 c 128,-1,81
 1153 277 1153 277 1109 277 c 0,82,83
 1064 277 1064 277 1032.5 245.5 c 128,-1,84
 1001 214 1001 214 1001 169 c 0,85,86
 1001 125 1001 125 1032.5 93.5 c 128,-1,87
 1064 62 1064 62 1109 62 c 0,76,77
EndSplineSet
EndChar

StartChar: guilsinglleft
Encoding: 275 8249 84
Width: 353
GlyphClass: 1
Flags: W
VStem: 53 247
LayerCount: 2
Fore
SplineSet
201 40 m 1,0,-1
 53 250 l 1,1,-1
 201 461 l 1,2,-1
 300 461 l 1,3,-1
 151 250 l 1,4,-1
 300 40 l 1,5,-1
 201 40 l 1,0,-1
EndSplineSet
EndChar

StartChar: guilsinglright
Encoding: 276 8250 85
Width: 353
GlyphClass: 1
Flags: W
VStem: 53 247
LayerCount: 2
Fore
SplineSet
53 40 m 1,0,-1
 202 250 l 1,1,-1
 53 461 l 1,2,-1
 153 461 l 1,3,-1
 300 250 l 1,4,-1
 153 40 l 1,5,-1
 53 40 l 1,0,-1
EndSplineSet
EndChar

StartChar: fraction
Encoding: 277 8260 86
Width: 586
GlyphClass: 1
Flags: W
HStem: 0 21G<15 117.012> 648 20G<468.988 571>
LayerCount: 2
Fore
SplineSet
15 0 m 1,0,-1
 483 668 l 1,1,-1
 571 668 l 1,2,-1
 103 0 l 1,3,-1
 15 0 l 1,0,-1
EndSplineSet
EndChar

StartChar: ordfeminine
Encoding: 170 170 87
Width: 371
GlyphClass: 1
Flags: W
HStem: 397 51<131.665 223.128> 527 49<133.746 239> 643 49<135.07 227.406>
VStem: 53 70<455.091 511.257> 239 68<469.188 530 578 633.202>
LayerCount: 2
Fore
SplineSet
152 397 m 0,0,1
 106 397 106 397 79.5 419.5 c 128,-1,2
 53 442 53 442 53 478 c 0,3,4
 53 513 53 513 76.5 533 c 128,-1,5
 100 553 100 553 138.5 562.5 c 128,-1,6
 177 572 177 572 222 576 c 2,7,-1
 239 578 l 1,8,9
 239 594 239 594 236.5 609 c 128,-1,10
 234 624 234 624 223 633.5 c 128,-1,11
 212 643 212 643 186 643 c 0,12,13
 164 643 164 643 149 634.5 c 128,-1,14
 134 626 134 626 129 607 c 1,15,-1
 68 625 l 1,16,17
 79 655 79 655 110.5 673.5 c 128,-1,18
 142 692 142 692 189 692 c 0,19,20
 221 692 221 692 247.5 681.5 c 128,-1,21
 274 671 274 671 290.5 645 c 128,-1,22
 307 619 307 619 307 573 c 2,23,-1
 307 491 l 2,24,25
 307 468 307 468 310.5 447 c 128,-1,26
 314 426 314 426 318 403 c 1,27,-1
 260 403 l 1,28,-1
 248 442 l 1,29,30
 235 417 235 417 207 407 c 128,-1,31
 179 397 179 397 152 397 c 0,0,1
172 448 m 0,32,33
 207 448 207 448 223 468.5 c 128,-1,34
 239 489 239 489 239 519 c 2,35,-1
 239 530 l 1,36,-1
 217 527 l 2,37,38
 164 520 164 520 143.5 511 c 128,-1,39
 123 502 123 502 123 483 c 0,40,41
 123 466 123 466 136.5 457 c 128,-1,42
 150 448 150 448 172 448 c 0,32,33
EndSplineSet
EndChar

StartChar: guillemotleft
Encoding: 171 171 88
Width: 562
GlyphClass: 1
Flags: W
LayerCount: 2
Fore
SplineSet
409 40 m 1,0,-1
 262 251 l 1,1,-1
 409 461 l 1,2,-1
 509 461 l 1,3,-1
 359 251 l 1,4,-1
 509 40 l 1,5,-1
 409 40 l 1,0,-1
201 40 m 1,6,-1
 53 251 l 1,7,-1
 201 461 l 1,8,-1
 300 461 l 1,9,-1
 151 251 l 1,10,-1
 300 40 l 1,11,-1
 201 40 l 1,6,-1
EndSplineSet
EndChar

StartChar: logicalnot
Encoding: 172 172 89
Width: 602
GlyphClass: 1
Flags: W
HStem: 317 79<53 468>
VStem: 468 81<90 317>
LayerCount: 2
Fore
SplineSet
468 90 m 1,0,-1
 468 317 l 1,1,-1
 53 317 l 1,2,-1
 53 396 l 1,3,-1
 549 396 l 1,4,-1
 549 90 l 1,5,-1
 468 90 l 1,0,-1
EndSplineSet
EndChar

StartChar: registered
Encoding: 174 174 90
Width: 798
GlyphClass: 1
Flags: W
HStem: -12 61<289.396 508.604> 301 58<340 382> 469 61<340 449.247> 619 61<290.197 507.803>
VStem: 53 62<224.376 442.762> 264 76<162 301 359 469> 474 76<372.484 456.897> 683 62<224.376 442.762>
LayerCount: 2
Fore
SplineSet
399 -12 m 256,0,1
 327 -12 327 -12 264.5 15 c 128,-1,2
 202 42 202 42 154.5 89.5 c 128,-1,3
 107 137 107 137 80 199.5 c 128,-1,4
 53 262 53 262 53 333 c 0,5,6
 53 405 53 405 80 468 c 128,-1,7
 107 531 107 531 154.5 578.5 c 128,-1,8
 202 626 202 626 264.5 653 c 128,-1,9
 327 680 327 680 399 680 c 256,10,11
 471 680 471 680 533.5 653 c 128,-1,12
 596 626 596 626 643.5 578.5 c 128,-1,13
 691 531 691 531 718 468 c 128,-1,14
 745 405 745 405 745 333 c 0,15,16
 745 262 745 262 718 199.5 c 128,-1,17
 691 137 691 137 643.5 89.5 c 128,-1,18
 596 42 596 42 533.5 15 c 128,-1,19
 471 -12 471 -12 399 -12 c 256,0,1
399 49 m 256,20,21
 458 49 458 49 509.5 71 c 128,-1,22
 561 93 561 93 600 132.5 c 128,-1,23
 639 172 639 172 661 223.5 c 128,-1,24
 683 275 683 275 683 333 c 0,25,26
 683 392 683 392 661 443.5 c 128,-1,27
 639 495 639 495 600 534.5 c 128,-1,28
 561 574 561 574 509.5 596.5 c 128,-1,29
 458 619 458 619 399 619 c 256,30,31
 340 619 340 619 288.5 596.5 c 128,-1,32
 237 574 237 574 198 534.5 c 128,-1,33
 159 495 159 495 137 443.5 c 128,-1,34
 115 392 115 392 115 333 c 0,35,36
 115 275 115 275 137 223.5 c 128,-1,37
 159 172 159 172 198 132.5 c 128,-1,38
 237 93 237 93 288.5 71 c 128,-1,39
 340 49 340 49 399 49 c 256,20,21
264 162 m 1,40,-1
 264 530 l 1,41,-1
 376 530 l 2,42,43
 431 530 431 530 469.5 521 c 128,-1,44
 508 512 508 512 529 487.5 c 128,-1,45
 550 463 550 463 550 414 c 0,46,47
 550 399 550 399 544 378.5 c 128,-1,48
 538 358 538 358 519 340 c 128,-1,49
 500 322 500 322 462 311 c 1,50,-1
 570 162 l 1,51,-1
 484 162 l 1,52,-1
 382 301 l 1,53,-1
 340 301 l 1,54,-1
 340 162 l 1,55,-1
 264 162 l 1,40,-1
340 359 m 1,56,-1
 393 359 l 2,57,58
 436 359 436 359 455 373 c 128,-1,59
 474 387 474 387 474 413 c 0,60,61
 474 447 474 447 450 458 c 128,-1,62
 426 469 426 469 388 469 c 2,63,-1
 340 469 l 1,64,-1
 340 359 l 1,56,-1
EndSplineSet
EndChar

StartChar: macron
Encoding: 175 175 91
Width: 382
GlyphClass: 1
Flags: W
HStem: 601 67<53 329>
VStem: 53 276<601 668>
LayerCount: 2
Fore
SplineSet
53 601 m 1,0,-1
 53 668 l 1,1,-1
 329 668 l 1,2,-1
 329 601 l 1,3,-1
 53 601 l 1,0,-1
EndSplineSet
EndChar

StartChar: degree
Encoding: 176 176 92
Width: 352
GlyphClass: 1
Flags: W
HStem: 408 63<125.033 227.555> 617 63<124.524 228.061>
VStem: 40 63<493.033 595.555> 249 63<492.524 596.061>
LayerCount: 2
Fore
SplineSet
176 408 m 0,0,1
 139 408 139 408 108 426.5 c 128,-1,2
 77 445 77 445 58.5 476 c 128,-1,3
 40 507 40 507 40 544 c 0,4,5
 40 582 40 582 58.5 612.5 c 128,-1,6
 77 643 77 643 108 661.5 c 128,-1,7
 139 680 139 680 176 680 c 0,8,9
 214 680 214 680 244.5 661.5 c 128,-1,10
 275 643 275 643 293.5 612.5 c 128,-1,11
 312 582 312 582 312 544 c 0,12,13
 312 507 312 507 293.5 476 c 128,-1,14
 275 445 275 445 244.5 426.5 c 128,-1,15
 214 408 214 408 176 408 c 0,0,1
176 471 m 0,16,17
 207 471 207 471 228 492.5 c 128,-1,18
 249 514 249 514 249 544 c 0,19,20
 249 575 249 575 228 596 c 128,-1,21
 207 617 207 617 176 617 c 0,22,23
 146 617 146 617 124.5 596 c 128,-1,24
 103 575 103 575 103 544 c 0,25,26
 103 514 103 514 124.5 492.5 c 128,-1,27
 146 471 146 471 176 471 c 0,16,17
EndSplineSet
EndChar

StartChar: plusminus
Encoding: 177 177 93
Width: 579
GlyphClass: 1
Flags: W
HStem: 0 79<53 526> 270 79<53 250 329 526> 476 20G<250 329>
VStem: 250 79<124 270 349 496>
LayerCount: 2
Fore
SplineSet
250 124 m 1,0,-1
 250 270 l 1,1,-1
 53 270 l 1,2,-1
 53 349 l 1,3,-1
 250 349 l 1,4,-1
 250 496 l 1,5,-1
 329 496 l 1,6,-1
 329 349 l 1,7,-1
 526 349 l 1,8,-1
 526 270 l 1,9,-1
 329 270 l 1,10,-1
 329 124 l 1,11,-1
 250 124 l 1,0,-1
53 0 m 1,12,-1
 53 79 l 1,13,-1
 526 79 l 1,14,-1
 526 0 l 1,15,-1
 53 0 l 1,12,-1
EndSplineSet
EndChar

StartChar: uni00B2
Encoding: 178 178 94
Width: 382
GlyphClass: 1
Flags: W
HStem: 403 58<134 329> 677 21G<65 131> 736 50<147.895 237.226>
VStem: 250 70<620.541 723.863>
LayerCount: 2
Fore
SplineSet
53 403 m 1,0,-1
 53 458 l 1,1,2
 145 531 145 531 197.5 583.5 c 128,-1,3
 250 636 250 636 250 682 c 0,4,5
 250 708 250 708 234.5 722 c 128,-1,6
 219 736 219 736 193 736 c 0,7,8
 171 736 171 736 152 722.5 c 128,-1,9
 133 709 133 709 129 677 c 1,10,-1
 65 695 l 1,11,12
 76 737 76 737 110 761.5 c 128,-1,13
 144 786 144 786 196 786 c 0,14,15
 249 786 249 786 284.5 760 c 128,-1,16
 320 734 320 734 320 686 c 0,17,18
 320 631 320 631 271 576 c 128,-1,19
 222 521 222 521 134 461 c 1,20,-1
 329 461 l 1,21,-1
 329 403 l 1,22,-1
 53 403 l 1,0,-1
EndSplineSet
EndChar

StartChar: uni00B3
Encoding: 179 179 95
Width: 383
GlyphClass: 1
Flags: W
HStem: 397 51<135.479 242.23> 484 20G<53 119> 572 54<151 229.309> 736 50<135.491 237.73>
VStem: 58 61<698.934 718.789> 252 69<640.047 723.818> 261 69<464.38 556.465>
LayerCount: 2
Fore
SplineSet
187 397 m 0,0,1
 134 397 134 397 100 422.5 c 128,-1,2
 66 448 66 448 53 486 c 1,3,-1
 115 504 l 1,4,5
 123 481 123 481 140 464.5 c 128,-1,6
 157 448 157 448 188 448 c 256,7,8
 219 448 219 448 240 464.5 c 128,-1,9
 261 481 261 481 261 509 c 0,10,11
 261 544 261 544 237.5 558 c 128,-1,12
 214 572 214 572 176 572 c 2,13,-1
 151 572 l 1,14,-1
 151 626 l 1,15,-1
 172 626 l 2,16,17
 208 626 208 626 230 639.5 c 128,-1,18
 252 653 252 653 252 683 c 0,19,20
 252 711 252 711 233 723.5 c 128,-1,21
 214 736 214 736 190 736 c 0,22,23
 135 736 135 736 119 683 c 1,24,-1
 58 701 l 1,25,26
 71 741 71 741 106.5 763.5 c 128,-1,27
 142 786 142 786 194 786 c 0,28,29
 225 786 225 786 254 775.5 c 128,-1,30
 283 765 283 765 302 743 c 128,-1,31
 321 721 321 721 321 685 c 0,32,33
 321 658 321 658 306 636 c 128,-1,34
 291 614 291 614 268 602 c 1,35,36
 299 590 299 590 314.5 565 c 128,-1,37
 330 540 330 540 330 511 c 0,38,39
 330 473 330 473 310 447.5 c 128,-1,40
 290 422 290 422 257.5 409.5 c 128,-1,41
 225 397 225 397 187 397 c 0,0,1
EndSplineSet
EndChar

StartChar: acute
Encoding: 180 180 96
Width: 268
GlyphClass: 1
Flags: W
HStem: 571 136<141.116 148.74>
VStem: 53 162
LayerCount: 2
Fore
SplineSet
53 571 m 1,0,1
 56 575 56 575 68.5 591.5 c 128,-1,2
 81 608 81 608 97 629 c 128,-1,3
 113 650 113 650 127.5 668.5 c 128,-1,4
 142 687 142 687 149 694 c 0,5,6
 159 707 159 707 177 707 c 0,7,8
 193 707 193 707 204 696.5 c 128,-1,9
 215 686 215 686 215 669 c 0,10,11
 215 662 215 662 212.5 655.5 c 128,-1,12
 210 649 210 649 202 641 c 0,13,14
 195 633 195 633 177 617 c 128,-1,15
 159 601 159 601 142.5 587.5 c 128,-1,16
 126 574 126 574 123 571 c 2,17,-1
 53 571 l 1,0,1
EndSplineSet
EndChar

StartChar: uni03BC
Encoding: 278 956 97
Width: 538
GlyphClass: 1
Flags: W
HStem: -162 21G<70 154> -12 74<190.279 329.995> 0 21G<399.167 468> 477 20G<70 154 384 468>
VStem: 70 84<-162 41 97.1094 497> 384 84<121.907 497> 405 63<0 24>
LayerCount: 2
Fore
SplineSet
70 -162 m 1,0,-1
 70 497 l 1,1,-1
 154 497 l 1,2,-1
 154 191 l 2,3,4
 154 156 154 156 162 126.5 c 128,-1,5
 170 97 170 97 192.5 79.5 c 128,-1,6
 215 62 215 62 258 62 c 0,7,8
 317 62 317 62 350.5 103.5 c 128,-1,9
 384 145 384 145 384 224 c 2,10,-1
 384 497 l 1,11,-1
 468 497 l 1,12,-1
 468 0 l 1,13,-1
 405 0 l 1,14,-1
 384 72 l 1,15,16
 363 36 363 36 336.5 12 c 128,-1,17
 310 -12 310 -12 254 -12 c 0,18,19
 223 -12 223 -12 198 2 c 128,-1,20
 173 16 173 16 154 41 c 1,21,-1
 154 -162 l 1,22,-1
 70 -162 l 1,0,-1
EndSplineSet
EndChar

StartChar: paragraph
Encoding: 182 182 98
Width: 508
GlyphClass: 1
Flags: W
HStem: -161 21G<187 268 362 443> 601 67<268 362 443 483>
VStem: 38 230<390.174 567.226> 187 81<-161 300.016> 362 81<-161 601>
LayerCount: 2
Fore
SplineSet
187 -161 m 1,0,-1
 187 294 l 1,1,2
 145 303 145 303 111 329.5 c 128,-1,3
 77 356 77 356 57.5 395 c 128,-1,4
 38 434 38 434 38 479 c 0,5,6
 38 531 38 531 63.5 574 c 128,-1,7
 89 617 89 617 132 642.5 c 128,-1,8
 175 668 175 668 227 668 c 2,9,-1
 483 668 l 1,10,-1
 483 601 l 1,11,-1
 443 601 l 1,12,-1
 443 -161 l 1,13,-1
 362 -161 l 1,14,-1
 362 601 l 1,15,-1
 268 601 l 1,16,-1
 268 -161 l 1,17,-1
 187 -161 l 1,0,-1
EndSplineSet
EndChar

StartChar: periodcentered
Encoding: 183 183 99
Width: 235
GlyphClass: 1
Flags: W
HStem: 183 129<72.5955 162.404>
VStem: 53 129<202.596 292.405>
LayerCount: 2
Fore
SplineSet
117 183 m 0,0,1
 91 183 91 183 72 202 c 128,-1,2
 53 221 53 221 53 248 c 0,3,4
 53 274 53 274 72 293 c 128,-1,5
 91 312 91 312 117 312 c 0,6,7
 144 312 144 312 163 293 c 128,-1,8
 182 274 182 274 182 248 c 0,9,10
 182 221 182 221 163 202 c 128,-1,11
 144 183 144 183 117 183 c 0,0,1
EndSplineSet
EndChar

StartChar: cedilla
Encoding: 184 184 100
Width: 291
GlyphClass: 1
Flags: W
HStem: -181 41<87.5306 183.106> -81 40<159.123 192.202>
VStem: 196 62<-131.512 -85.7319>
LayerCount: 2
Fore
SplineSet
161 -181 m 0,0,1
 142 -181 142 -181 120.5 -176 c 128,-1,2
 99 -171 99 -171 73 -161 c 1,3,-1
 87 -126 l 1,4,5
 104 -133 104 -133 118.5 -136.5 c 128,-1,6
 133 -140 133 -140 145 -140 c 0,7,8
 171 -140 171 -140 183.5 -129 c 128,-1,9
 196 -118 196 -118 196 -106 c 0,10,11
 196 -96 196 -96 187.5 -88.5 c 128,-1,12
 179 -81 179 -81 160 -81 c 0,13,14
 153 -81 153 -81 145.5 -82.5 c 128,-1,15
 138 -84 138 -84 129 -86 c 0,16,17
 116 -90 116 -90 108.5 -83 c 128,-1,18
 101 -76 101 -76 101 -67 c 0,19,20
 101 -61 101 -61 104 -57 c 2,21,-1
 155 25 l 1,22,-1
 189 4 l 1,23,-1
 159 -45 l 1,24,25
 167 -43 167 -43 174.5 -42 c 128,-1,26
 182 -41 182 -41 189 -41 c 0,27,28
 224 -41 224 -41 241 -59.5 c 128,-1,29
 258 -78 258 -78 258 -102 c 0,30,31
 258 -130 258 -130 234 -155.5 c 128,-1,32
 210 -181 210 -181 161 -181 c 0,0,1
EndSplineSet
EndChar

StartChar: uni00B9
Encoding: 185 185 101
Width: 256
GlyphClass: 1
Flags: W
HStem: 683 47<53 129.661>
VStem: 136 67<403 683>
LayerCount: 2
Fore
SplineSet
136 403 m 1,0,-1
 136 683 l 1,1,-1
 53 683 l 1,2,-1
 53 730 l 1,3,4
 86 730 86 730 111.5 740.5 c 128,-1,5
 137 751 137 751 147 779 c 1,6,-1
 203 779 l 1,7,-1
 203 403 l 1,8,-1
 136 403 l 1,0,-1
EndSplineSet
EndChar

StartChar: ordmasculine
Encoding: 186 186 102
Width: 381
GlyphClass: 1
Flags: W
HStem: 398 54<147.439 241.511> 638 54<147.439 241.511>
VStem: 57 69<474.919 615.081> 263 69<474.919 615.081>
LayerCount: 2
Fore
SplineSet
194 398 m 0,0,1
 159 398 159 398 127.5 414 c 128,-1,2
 96 430 96 430 76.5 462.5 c 128,-1,3
 57 495 57 495 57 545 c 256,4,5
 57 595 57 595 76.5 627.5 c 128,-1,6
 96 660 96 660 127.5 676 c 128,-1,7
 159 692 159 692 194 692 c 0,8,9
 230 692 230 692 261.5 676 c 128,-1,10
 293 660 293 660 312.5 627.5 c 128,-1,11
 332 595 332 595 332 545 c 256,12,13
 332 495 332 495 312.5 462.5 c 128,-1,14
 293 430 293 430 261.5 414 c 128,-1,15
 230 398 230 398 194 398 c 0,0,1
194 452 m 0,16,17
 224 452 224 452 243.5 476 c 128,-1,18
 263 500 263 500 263 545 c 256,19,20
 263 590 263 590 243.5 614 c 128,-1,21
 224 638 224 638 194 638 c 0,22,23
 165 638 165 638 145.5 614 c 128,-1,24
 126 590 126 590 126 545 c 256,25,26
 126 500 126 500 145.5 476 c 128,-1,27
 165 452 165 452 194 452 c 0,16,17
EndSplineSet
EndChar

StartChar: guillemotright
Encoding: 187 187 103
Width: 562
GlyphClass: 1
Flags: W
LayerCount: 2
Fore
SplineSet
262 40 m 1,0,-1
 411 251 l 1,1,-1
 262 461 l 1,2,-1
 361 461 l 1,3,-1
 509 251 l 1,4,-1
 361 40 l 1,5,-1
 262 40 l 1,0,-1
53 40 m 1,6,-1
 202 251 l 1,7,-1
 53 461 l 1,8,-1
 153 461 l 1,9,-1
 300 251 l 1,10,-1
 153 40 l 1,11,-1
 53 40 l 1,6,-1
EndSplineSet
EndChar

StartChar: onequarter
Encoding: 188 188 104
Width: 826
GlyphClass: 1
Flags: W
HStem: 0 21G<115 217.982 640 708> 86 57<528 640 708 773> 571 48<53 129.661> 648 20G<142 204 568.988 671>
VStem: 136 68<292 571> 640 68<0 86 143 289>
LayerCount: 2
Fore
SplineSet
115 0 m 1,0,-1
 583 668 l 1,1,-1
 671 668 l 1,2,-1
 204 0 l 1,3,-1
 115 0 l 1,0,-1
136 292 m 1,4,-1
 136 571 l 1,5,-1
 53 571 l 1,6,-1
 53 619 l 1,7,8
 86 619 86 619 111.5 629.5 c 128,-1,9
 137 640 137 640 147 668 c 1,10,-1
 204 668 l 1,11,-1
 204 292 l 1,12,-1
 136 292 l 1,4,-1
640 0 m 1,13,-1
 640 86 l 1,14,-1
 455 86 l 1,15,-1
 455 140 l 1,16,-1
 641 376 l 1,17,-1
 708 376 l 1,18,-1
 708 143 l 1,19,-1
 773 143 l 1,20,-1
 773 86 l 1,21,-1
 708 86 l 1,22,-1
 708 0 l 1,23,-1
 640 0 l 1,13,-1
528 143 m 1,24,-1
 640 143 l 1,25,-1
 640 289 l 1,26,-1
 528 143 l 1,24,-1
EndSplineSet
Ligature2: "'frac' Diagonal Fractions lookup 10 subtable" one slash four
EndChar

StartChar: onehalf
Encoding: 189 189 105
Width: 812
GlyphClass: 1
Flags: W
HStem: 0 58<565 759> 332 50<578.816 668.226> 571 48<53 129.661> 648 20G<142 203 568.988 671>
VStem: 136 67<292 571> 681 70<216.726 320.004>
LayerCount: 2
Fore
SplineSet
115 0 m 1,0,-1
 583 668 l 1,1,-1
 671 668 l 1,2,-1
 203 0 l 1,3,-1
 115 0 l 1,0,-1
136 292 m 1,4,-1
 136 571 l 1,5,-1
 53 571 l 1,6,-1
 53 619 l 1,7,8
 86 619 86 619 111.5 629.5 c 128,-1,9
 137 640 137 640 147 668 c 1,10,-1
 203 668 l 1,11,-1
 203 292 l 1,12,-1
 136 292 l 1,4,-1
484 0 m 1,13,-1
 484 54 l 1,14,15
 576 128 576 128 628.5 180 c 128,-1,16
 681 232 681 232 681 278 c 0,17,18
 681 304 681 304 665.5 318 c 128,-1,19
 650 332 650 332 624 332 c 0,20,21
 602 332 602 332 583 318.5 c 128,-1,22
 564 305 564 305 559 273 c 1,23,-1
 495 292 l 1,24,25
 506 333 506 333 540.5 357.5 c 128,-1,26
 575 382 575 382 627 382 c 0,27,28
 680 382 680 382 715.5 356 c 128,-1,29
 751 330 751 330 751 283 c 0,30,31
 751 227 751 227 702 172 c 128,-1,32
 653 117 653 117 565 58 c 1,33,-1
 759 58 l 1,34,-1
 759 0 l 1,35,-1
 484 0 l 1,13,-1
EndSplineSet
Ligature2: "'frac' Diagonal Fractions lookup 10 subtable" one slash two
EndChar

StartChar: threequarters
Encoding: 190 190 106
Width: 868
GlyphClass: 1
Flags: W
HStem: 0 21G<157 259.042 682 751> 86 57<570 682 751 815> 291 51<134.568 242.23> 466 53<151 236.761> 629 51<136.548 237.271> 648 20G<611.958 714>
VStem: 252 69<532.919 616.658> 261 69<358.38 450.465> 682 69<0 86 143 289>
LayerCount: 2
Fore
SplineSet
187 291 m 0,0,1
 134 291 134 291 100 316.5 c 128,-1,2
 66 342 66 342 53 380 c 1,3,-1
 115 398 l 1,4,5
 123 374 123 374 140 358 c 128,-1,6
 157 342 157 342 188 342 c 256,7,8
 219 342 219 342 240 358.5 c 128,-1,9
 261 375 261 375 261 403 c 0,10,11
 261 438 261 438 237.5 452 c 128,-1,12
 214 466 214 466 170 466 c 2,13,-1
 151 466 l 1,14,-1
 151 519 l 1,15,-1
 169 519 l 2,16,17
 252 519 252 519 252 576 c 0,18,19
 252 603 252 603 233 616 c 128,-1,20
 214 629 214 629 190 629 c 0,21,22
 162 629 162 629 144.5 615 c 128,-1,23
 127 601 127 601 119 576 c 1,24,-1
 58 594 l 1,25,26
 71 634 71 634 106.5 657 c 128,-1,27
 142 680 142 680 194 680 c 0,28,29
 225 680 225 680 254 669.5 c 128,-1,30
 283 659 283 659 302 636.5 c 128,-1,31
 321 614 321 614 321 578 c 0,32,33
 321 550 321 550 306 528.5 c 128,-1,34
 291 507 291 507 268 495 c 1,35,36
 299 484 299 484 314.5 459 c 128,-1,37
 330 434 330 434 330 405 c 0,38,39
 330 367 330 367 310 341.5 c 128,-1,40
 290 316 290 316 257.5 303.5 c 128,-1,41
 225 291 225 291 187 291 c 0,0,1
157 0 m 1,42,-1
 626 668 l 1,43,-1
 714 668 l 1,44,-1
 245 0 l 1,45,-1
 157 0 l 1,42,-1
682 0 m 1,46,-1
 682 86 l 1,47,-1
 497 86 l 1,48,-1
 497 140 l 1,49,-1
 683 376 l 1,50,-1
 751 376 l 1,51,-1
 751 143 l 1,52,-1
 815 143 l 1,53,-1
 815 86 l 1,54,-1
 751 86 l 1,55,-1
 751 0 l 1,56,-1
 682 0 l 1,46,-1
570 143 m 1,57,-1
 682 143 l 1,58,-1
 682 289 l 1,59,-1
 570 143 l 1,57,-1
EndSplineSet
Ligature2: "'frac' Diagonal Fractions lookup 10 subtable" three slash four
EndChar

StartChar: less
Encoding: 60 60 107
Width: 553
GlyphClass: 1
Flags: W
HStem: 0 21G<468.587 513> 476 20G<468.587 513>
LayerCount: 2
Fore
SplineSet
513 0 m 1,0,-1
 40 213 l 1,1,-1
 40 283 l 1,2,-1
 513 496 l 1,3,-1
 513 406 l 1,4,-1
 145 248 l 1,5,-1
 513 90 l 1,6,-1
 513 0 l 1,0,-1
EndSplineSet
EndChar

StartChar: equal
Encoding: 61 61 108
Width: 602
GlyphClass: 1
Flags: W
HStem: 121 79<53 549> 307 79<53 549>
LayerCount: 2
Fore
SplineSet
53 307 m 1,0,-1
 53 386 l 1,1,-1
 549 386 l 1,2,-1
 549 307 l 1,3,-1
 53 307 l 1,0,-1
53 121 m 1,4,-1
 53 200 l 1,5,-1
 549 200 l 1,6,-1
 549 121 l 1,7,-1
 53 121 l 1,4,-1
EndSplineSet
EndChar

StartChar: greater
Encoding: 62 62 109
Width: 553
GlyphClass: 1
Flags: W
HStem: 0 21G<40 84.4131> 476 20G<40 84.4131>
LayerCount: 2
Fore
SplineSet
40 0 m 1,0,-1
 40 90 l 1,1,-1
 408 248 l 1,2,-1
 40 406 l 1,3,-1
 40 496 l 1,4,-1
 513 283 l 1,5,-1
 513 213 l 1,6,-1
 40 0 l 1,0,-1
EndSplineSet
EndChar

StartChar: question
Encoding: 63 63 110
Width: 520
GlyphClass: 1
Flags: W
HStem: -12 129<182.626 271.92> 501 21G<50.6957 124.5> 610 70<176.591 339.457>
VStem: 40 82<522.037 554.064> 162 129<6.56494 96.889> 182 86<190 286.554> 382 88<443.093 570.409>
LayerCount: 2
Fore
SplineSet
182 190 m 1,0,-1
 182 227 l 2,1,2
 182 266 182 266 194.5 292.5 c 128,-1,3
 207 319 207 319 232.5 341 c 128,-1,4
 258 363 258 363 296 387 c 0,5,6
 332 410 332 410 357 439 c 128,-1,7
 382 468 382 468 382 508 c 0,8,9
 382 556 382 556 347 583 c 128,-1,10
 312 610 312 610 257 610 c 0,11,12
 212 610 212 610 184 593.5 c 128,-1,13
 156 577 156 577 141.5 552 c 128,-1,14
 127 527 127 527 122 501 c 1,15,-1
 40 524 l 1,16,17
 55 596 55 596 115.5 638 c 128,-1,18
 176 680 176 680 261 680 c 0,19,20
 313 680 313 680 361 662.5 c 128,-1,21
 409 645 409 645 439.5 609 c 128,-1,22
 470 573 470 573 470 516 c 0,23,24
 470 473 470 473 452 438 c 128,-1,25
 434 403 434 403 405.5 376 c 128,-1,26
 377 349 377 349 345 328 c 0,27,28
 317 310 317 310 300 296 c 128,-1,29
 283 282 283 282 275.5 266 c 128,-1,30
 268 250 268 250 268 224 c 2,31,-1
 268 190 l 1,32,-1
 182 190 l 1,0,-1
227 -12 m 0,33,34
 202 -12 202 -12 182 6 c 128,-1,35
 162 24 162 24 162 52 c 0,36,37
 162 79 162 79 181 98 c 128,-1,38
 200 117 200 117 227 117 c 256,39,40
 254 117 254 117 272.5 97.5 c 128,-1,41
 291 78 291 78 291 52 c 256,42,43
 291 26 291 26 272 7 c 128,-1,44
 253 -12 253 -12 227 -12 c 0,33,34
EndSplineSet
EndChar

StartChar: at
Encoding: 64 64 111
Width: 780
GlyphClass: 1
Flags: W
HStem: -12 61<286.985 503.617> 155 74<322.423 418.584 540.64 628.779> 445 74<338.263 451> 618 62<286.896 506.294>
VStem: 50 62<223.608 445.127> 218 84<249.6 406.108> 451 81<262.089 444.031> 668 62<274.388 463.615>
LayerCount: 2
Fore
SplineSet
398 -12 m 0,0,1
 332 -12 332 -12 269.5 13 c 128,-1,2
 207 38 207 38 157.5 83.5 c 128,-1,3
 108 129 108 129 79 193 c 128,-1,4
 50 257 50 257 50 335 c 0,5,6
 50 406 50 406 77 468.5 c 128,-1,7
 104 531 104 531 151.5 578.5 c 128,-1,8
 199 626 199 626 261.5 653 c 128,-1,9
 324 680 324 680 396 680 c 0,10,11
 453 680 453 680 511.5 659.5 c 128,-1,12
 570 639 570 639 619.5 598.5 c 128,-1,13
 669 558 669 558 699.5 499.5 c 128,-1,14
 730 441 730 441 730 366 c 0,15,16
 730 289 730 289 706.5 242.5 c 128,-1,17
 683 196 683 196 647.5 175.5 c 128,-1,18
 612 155 612 155 575 155 c 0,19,20
 541 155 541 155 512 171 c 128,-1,21
 483 187 483 187 473 213 c 1,22,23
 449 184 449 184 418.5 169.5 c 128,-1,24
 388 155 388 155 357 155 c 0,25,26
 322 155 322 155 290 173.5 c 128,-1,27
 258 192 258 192 238 228.5 c 128,-1,28
 218 265 218 265 218 318 c 0,29,30
 218 394 218 394 246 438 c 128,-1,31
 274 482 274 482 318.5 500.5 c 128,-1,32
 363 519 363 519 413 519 c 0,33,34
 443 519 443 519 473.5 513.5 c 128,-1,35
 504 508 504 508 532 499 c 1,36,-1
 532 273 l 2,37,38
 532 251 532 251 544.5 240 c 128,-1,39
 557 229 557 229 575 229 c 0,40,41
 606 229 606 229 626.5 248.5 c 128,-1,42
 647 268 647 268 657.5 299.5 c 128,-1,43
 668 331 668 331 668 366 c 0,44,45
 668 417 668 417 647 462.5 c 128,-1,46
 626 508 626 508 588.5 543 c 128,-1,47
 551 578 551 578 502 598 c 128,-1,48
 453 618 453 618 396 618 c 0,49,50
 338 618 338 618 286.5 596 c 128,-1,51
 235 574 235 574 195.5 535.5 c 128,-1,52
 156 497 156 497 134 445.5 c 128,-1,53
 112 394 112 394 112 335 c 0,54,55
 112 271 112 271 135.5 218.5 c 128,-1,56
 159 166 159 166 199 128 c 128,-1,57
 239 90 239 90 290 69.5 c 128,-1,58
 341 49 341 49 396 49 c 0,59,60
 468 49 468 49 532 85 c 1,61,-1
 532 16 l 1,62,63
 500 2 500 2 466 -5 c 128,-1,64
 432 -12 432 -12 398 -12 c 0,0,1
369 229 m 0,65,66
 398 229 398 229 424.5 256.5 c 128,-1,67
 451 284 451 284 451 338 c 2,68,-1
 451 441 l 1,69,70
 441 443 441 443 429.5 444 c 128,-1,71
 418 445 418 445 406 445 c 0,72,73
 381 445 381 445 357 435 c 128,-1,74
 333 425 333 425 317.5 396.5 c 128,-1,75
 302 368 302 368 302 313 c 0,76,77
 302 270 302 270 322.5 249.5 c 128,-1,78
 343 229 343 229 369 229 c 0,65,66
EndSplineSet
EndChar

StartChar: colon
Encoding: 58 58 112
Width: 205
GlyphClass: 1
Flags: W
HStem: -12 129<57.5955 147.404> 375 129<57.5955 147.404>
VStem: 38 129<7.59546 97.4043 394.596 484.405>
LayerCount: 2
Fore
SplineSet
102 375 m 0,0,1
 76 375 76 375 57 394 c 128,-1,2
 38 413 38 413 38 440 c 0,3,4
 38 466 38 466 57 485 c 128,-1,5
 76 504 76 504 102 504 c 0,6,7
 129 504 129 504 148 485 c 128,-1,8
 167 466 167 466 167 440 c 0,9,10
 167 413 167 413 148 394 c 128,-1,11
 129 375 129 375 102 375 c 0,0,1
102 -12 m 0,12,13
 76 -12 76 -12 57 7 c 128,-1,14
 38 26 38 26 38 52 c 0,15,16
 38 79 38 79 57 98 c 128,-1,17
 76 117 76 117 102 117 c 0,18,19
 129 117 129 117 148 98 c 128,-1,20
 167 79 167 79 167 52 c 0,21,22
 167 26 167 26 148 7 c 128,-1,23
 129 -12 129 -12 102 -12 c 0,12,13
EndSplineSet
EndChar

StartChar: semicolon
Encoding: 59 59 113
Width: 205
GlyphClass: 1
Flags: W
HStem: 375 129<57.5955 147.404>
VStem: 38 129<5.35938 97.4045 394.596 484.405>
LayerCount: 2
Fore
SplineSet
102 375 m 0,0,1
 76 375 76 375 57 394 c 128,-1,2
 38 413 38 413 38 440 c 0,3,4
 38 466 38 466 57 485 c 128,-1,5
 76 504 76 504 102 504 c 0,6,7
 129 504 129 504 148 485 c 128,-1,8
 167 466 167 466 167 440 c 0,9,10
 167 413 167 413 148 394 c 128,-1,11
 129 375 129 375 102 375 c 0,0,1
45 -133 m 1,12,-1
 92 -11 l 1,13,14
 69 -7 69 -7 53.5 11 c 128,-1,15
 38 29 38 29 38 53 c 0,16,17
 38 79 38 79 57 98 c 128,-1,18
 76 117 76 117 102 117 c 0,19,20
 129 117 129 117 148 98 c 128,-1,21
 167 79 167 79 167 53 c 0,22,23
 167 41 167 41 162 28 c 2,24,-1
 100 -133 l 1,25,-1
 45 -133 l 1,12,-1
EndSplineSet
EndChar

StartChar: bracketleft
Encoding: 91 91 114
Width: 315
GlyphClass: 1
Flags: W
HStem: -161 74<157 282> 594 74<157 282>
VStem: 76 206<-161 -87 594 668> 76 81<-87 594>
LayerCount: 2
Fore
SplineSet
76 -161 m 1,0,-1
 76 668 l 1,1,-1
 282 668 l 1,2,-1
 282 594 l 1,3,-1
 157 594 l 1,4,-1
 157 -87 l 1,5,-1
 282 -87 l 1,6,-1
 282 -161 l 1,7,-1
 76 -161 l 1,0,-1
EndSplineSet
EndChar

StartChar: backslash
Encoding: 92 92 115
Width: 377
GlyphClass: 1
Flags: W
HStem: 0 21G<267.216 362> 648 20G<15 109.784>
LayerCount: 2
Fore
SplineSet
275 0 m 1,0,-1
 15 668 l 1,1,-1
 102 668 l 1,2,-1
 362 0 l 1,3,-1
 275 0 l 1,0,-1
EndSplineSet
EndChar

StartChar: bracketright
Encoding: 93 93 116
Width: 315
GlyphClass: 1
Flags: W
HStem: -161 74<33 158> 594 74<33 158>
VStem: 33 206<-161 -87 594 668> 158 81<-87 594>
LayerCount: 2
Fore
SplineSet
33 -161 m 1,0,-1
 33 -87 l 1,1,-1
 158 -87 l 1,2,-1
 158 594 l 1,3,-1
 33 594 l 1,4,-1
 33 668 l 1,5,-1
 239 668 l 1,6,-1
 239 -161 l 1,7,-1
 33 -161 l 1,0,-1
EndSplineSet
EndChar

StartChar: asciicircum
Encoding: 94 94 117
Width: 552
GlyphClass: 1
Flags: W
HStem: 648 20G<227.636 324.364>
LayerCount: 2
Fore
SplineSet
53 311 m 1,0,-1
 238 668 l 1,1,-1
 314 668 l 1,2,-1
 499 311 l 1,3,-1
 410 311 l 1,4,-1
 276 569 l 1,5,-1
 142 311 l 1,6,-1
 53 311 l 1,0,-1
EndSplineSet
EndChar

StartChar: underscore
Encoding: 95 95 118
Width: 396
GlyphClass: 1
Flags: W
HStem: -79 79<10 386>
LayerCount: 2
Fore
SplineSet
10 -79 m 5,0,-1
 10 0 l 5,1,-1
 386 0 l 5,2,-1
 386 -79 l 5,3,-1
 10 -79 l 5,0,-1
EndSplineSet
EndChar

StartChar: grave
Encoding: 96 96 119
Width: 268
GlyphClass: 1
Flags: W
HStem: 571 136
VStem: 53 162
LayerCount: 2
Fore
SplineSet
145 571 m 1,0,1
 126 587 126 587 105 604.5 c 128,-1,2
 84 622 84 622 70 636 c 0,3,4
 60 647 60 647 56.5 654.5 c 128,-1,5
 53 662 53 662 53 669 c 0,6,7
 53 685 53 685 64 696 c 128,-1,8
 75 707 75 707 91 707 c 0,9,10
 99 707 99 707 107 704 c 128,-1,11
 115 701 115 701 122 692 c 2,12,-1
 215 571 l 1,13,-1
 145 571 l 1,0,1
EndSplineSet
EndChar

StartChar: exclam
Encoding: 33 33 120
Width: 281
GlyphClass: 1
Flags: W
HStem: -12 129<95.5955 185.404> 648 20G<96 185>
VStem: 76 129<7.59546 97.4043> 96 89<378.944 668>
LayerCount: 2
Fore
SplineSet
114 195 m 1,0,-1
 96 496 l 1,1,-1
 96 668 l 1,2,-1
 185 668 l 1,3,-1
 185 496 l 1,4,-1
 167 195 l 1,5,-1
 114 195 l 1,0,-1
140 -12 m 0,6,7
 114 -12 114 -12 95 7 c 128,-1,8
 76 26 76 26 76 52 c 0,9,10
 76 79 76 79 95 98 c 128,-1,11
 114 117 114 117 140 117 c 0,12,13
 167 117 167 117 186 98 c 128,-1,14
 205 79 205 79 205 52 c 0,15,16
 205 26 205 26 186 7 c 128,-1,17
 167 -12 167 -12 140 -12 c 0,6,7
EndSplineSet
EndChar

StartChar: quotedbl
Encoding: 34 34 121
Width: 301
GlyphClass: 1
Flags: W
HStem: 447 221<54 106 195 247>
VStem: 54 52<447 557.5> 195 52<447 557.5>
LayerCount: 2
Fore
SplineSet
195 447 m 1,0,-1
 181 668 l 1,1,-1
 261 668 l 1,2,-1
 247 447 l 1,3,-1
 195 447 l 1,0,-1
54 447 m 1,4,-1
 40 668 l 1,5,-1
 120 668 l 1,6,-1
 106 447 l 1,7,-1
 54 447 l 1,4,-1
EndSplineSet
EndChar

StartChar: numbersign
Encoding: 35 35 122
Width: 655
GlyphClass: 1
Flags: W
HStem: 0 21G<137 221.791 342 426.791> 172 81<49 162 255 366 460 572> 415 81<83 196 289 400 494 606> 648 20G<228.209 313 433.209 518>
LayerCount: 2
Fore
SplineSet
137 0 m 1,0,-1
 162 172 l 1,1,-1
 38 172 l 1,2,-1
 49 253 l 1,3,-1
 173 253 l 1,4,-1
 196 415 l 1,5,-1
 72 415 l 1,6,-1
 83 496 l 1,7,-1
 207 496 l 1,8,-1
 231 668 l 1,9,-1
 313 668 l 1,10,-1
 289 496 l 1,11,-1
 412 496 l 1,12,-1
 436 668 l 1,13,-1
 518 668 l 1,14,-1
 494 496 l 1,15,-1
 617 496 l 1,16,-1
 606 415 l 1,17,-1
 482 415 l 1,18,-1
 460 253 l 1,19,-1
 583 253 l 1,20,-1
 572 172 l 1,21,-1
 448 172 l 1,22,-1
 424 0 l 1,23,-1
 342 0 l 1,24,-1
 366 172 l 1,25,-1
 243 172 l 1,26,-1
 219 0 l 1,27,-1
 137 0 l 1,0,-1
255 253 m 1,28,-1
 378 253 l 1,29,-1
 400 415 l 1,30,-1
 277 415 l 1,31,-1
 255 253 l 1,28,-1
EndSplineSet
EndChar

StartChar: dollar
Encoding: 36 36 123
Width: 594
GlyphClass: 1
Flags: W
HStem: -11 80<197.625 267 317 402.913> 600 79<191.907 267 317 384.942>
VStem: 47 96<443.61 558.891> 267 50<-87 -12 69 297 398 599 676.827 742> 457 97<118.738 242.655>
LayerCount: 2
Fore
SplineSet
267 -87 m 1,0,-1
 267 -11 l 1,1,2
 181 -3 181 -3 123 38 c 128,-1,3
 65 79 65 79 40 146 c 1,4,-1
 127 172 l 1,5,6
 161 83 161 83 267 69 c 1,7,-1
 267 308 l 1,8,-1
 231 315 l 2,9,10
 185 324 185 324 143 345.5 c 128,-1,11
 101 367 101 367 74 404.5 c 128,-1,12
 47 442 47 442 47 498 c 0,13,14
 47 542 47 542 66.5 575 c 128,-1,15
 86 608 86 608 118.5 630 c 128,-1,16
 151 652 151 652 189.5 664 c 128,-1,17
 228 676 228 676 267 679 c 1,18,-1
 267 742 l 1,19,-1
 317 742 l 1,20,-1
 317 679 l 1,21,22
 384 674 384 674 439.5 644 c 128,-1,23
 495 614 495 614 523 555 c 1,24,-1
 437 530 l 1,25,26
 418 562 418 562 385 578.5 c 128,-1,27
 352 595 352 595 317 599 c 1,28,-1
 317 386 l 1,29,-1
 329 383 l 2,30,31
 367 373 367 373 406.5 360 c 128,-1,32
 446 347 446 347 479.5 326 c 128,-1,33
 513 305 513 305 533.5 272 c 128,-1,34
 554 239 554 239 554 188 c 0,35,36
 554 126 554 126 521 82 c 128,-1,37
 488 38 488 38 434 14.5 c 128,-1,38
 380 -9 380 -9 317 -12 c 1,39,-1
 317 -87 l 1,40,-1
 267 -87 l 1,0,-1
267 398 m 1,41,-1
 267 600 l 1,42,43
 241 598 241 598 212 587.5 c 128,-1,44
 183 577 183 577 163 557 c 128,-1,45
 143 537 143 537 143 503 c 0,46,47
 143 459 143 459 174.5 434.5 c 128,-1,48
 206 410 206 410 252 401 c 2,49,-1
 267 398 l 1,41,-1
317 68 m 1,50,51
 384 72 384 72 420.5 103 c 128,-1,52
 457 134 457 134 457 180 c 0,53,54
 457 232 457 232 418 257.5 c 128,-1,55
 379 283 379 283 317 297 c 1,56,-1
 317 68 l 1,50,51
EndSplineSet
EndChar

StartChar: percent
Encoding: 37 37 124
Width: 927
GlyphClass: 1
Flags: W
HStem: -12 74<642.997 771.714> 0 21G<186 288.012> 277 75<642.997 772.399> 317 74<155.311 284.399> 606 74<154.997 284.399> 648 20G<639.988 742>
VStem: 38 74<434.286 563.336> 327 74<433.601 563.336> 526 74<105.311 234.518> 815 74<105.311 234.518>
LayerCount: 2
Fore
SplineSet
220 317 m 256,0,1
 170 317 170 317 128.5 341.5 c 128,-1,2
 87 366 87 366 62.5 407 c 128,-1,3
 38 448 38 448 38 498 c 0,4,5
 38 549 38 549 62.5 590 c 128,-1,6
 87 631 87 631 128.5 655.5 c 128,-1,7
 170 680 170 680 220 680 c 256,8,9
 270 680 270 680 311 655.5 c 128,-1,10
 352 631 352 631 376.5 590 c 128,-1,11
 401 549 401 549 401 498 c 0,12,13
 401 448 401 448 376.5 407 c 128,-1,14
 352 366 352 366 311 341.5 c 128,-1,15
 270 317 270 317 220 317 c 256,0,1
186 0 m 1,16,-1
 654 668 l 1,17,-1
 742 668 l 1,18,-1
 274 0 l 1,19,-1
 186 0 l 1,16,-1
220 391 m 256,20,21
 264 391 264 391 295.5 422.5 c 128,-1,22
 327 454 327 454 327 498 c 0,23,24
 327 543 327 543 295.5 574.5 c 128,-1,25
 264 606 264 606 220 606 c 0,26,27
 175 606 175 606 143.5 574.5 c 128,-1,28
 112 543 112 543 112 498 c 0,29,30
 112 454 112 454 144 422.5 c 128,-1,31
 176 391 176 391 220 391 c 256,20,21
708 -12 m 256,32,33
 658 -12 658 -12 616.5 12.5 c 128,-1,34
 575 37 575 37 550.5 78.5 c 128,-1,35
 526 120 526 120 526 170 c 256,36,37
 526 220 526 220 550.5 261.5 c 128,-1,38
 575 303 575 303 616.5 327.5 c 128,-1,39
 658 352 658 352 708 352 c 256,40,41
 758 352 758 352 799 327.5 c 128,-1,42
 840 303 840 303 864.5 261.5 c 128,-1,43
 889 220 889 220 889 170 c 256,44,45
 889 120 889 120 864.5 78.5 c 128,-1,46
 840 37 840 37 799 12.5 c 128,-1,47
 758 -12 758 -12 708 -12 c 256,32,33
708 62 m 0,48,49
 752 62 752 62 783.5 94 c 128,-1,50
 815 126 815 126 815 170 c 256,51,52
 815 214 815 214 783.5 245.5 c 128,-1,53
 752 277 752 277 708 277 c 0,54,55
 663 277 663 277 631.5 245.5 c 128,-1,56
 600 214 600 214 600 170 c 256,57,58
 600 126 600 126 631.5 94 c 128,-1,59
 663 62 663 62 708 62 c 0,48,49
EndSplineSet
EndChar

StartChar: ampersand
Encoding: 38 38 125
Width: 705
GlyphClass: 1
Flags: W
HStem: -12 74<185.339 361.802> 0 21G<557.149 695> 606 74<249.634 388.348>
VStem: 38 90<117.018 261.461> 135 90<478.343 585.228> 409 82<471.55 585.654> 521 87<252.165 361>
LayerCount: 2
Fore
SplineSet
263 -12 m 0,0,1
 194 -12 194 -12 143.5 14 c 128,-1,2
 93 40 93 40 65.5 84 c 128,-1,3
 38 128 38 128 38 183 c 0,4,5
 38 260 38 260 85 310.5 c 128,-1,6
 132 361 132 361 209 387 c 1,7,8
 175 425 175 425 155 462 c 128,-1,9
 135 499 135 499 135 538 c 0,10,11
 135 603 135 603 186.5 641.5 c 128,-1,12
 238 680 238 680 317 680 c 0,13,14
 358 680 358 680 398 666.5 c 128,-1,15
 438 653 438 653 464.5 621.5 c 128,-1,16
 491 590 491 590 491 536 c 0,17,18
 491 473 491 473 452 431 c 128,-1,19
 413 389 413 389 351 363 c 1,20,-1
 487 219 l 1,21,22
 500 250 500 250 509 285.5 c 128,-1,23
 518 321 518 321 521 361 c 1,24,-1
 608 361 l 1,25,26
 604 307 604 307 588.5 254.5 c 128,-1,27
 573 202 573 202 546 157 c 1,28,-1
 695 0 l 1,29,-1
 576 0 l 1,30,-1
 494 87 l 1,31,32
 451 41 451 41 393 14.5 c 128,-1,33
 335 -12 335 -12 263 -12 c 0,0,1
300 415 m 1,34,35
 349 433 349 433 379 462 c 128,-1,36
 409 491 409 491 409 531 c 0,37,38
 409 572 409 572 382.5 589 c 128,-1,39
 356 606 356 606 319 606 c 256,40,41
 282 606 282 606 253.5 590 c 128,-1,42
 225 574 225 574 225 540 c 0,43,44
 225 513 225 513 241.5 486.5 c 128,-1,45
 258 460 258 460 276.5 441 c 128,-1,46
 295 422 295 422 300 415 c 1,34,35
263 62 m 0,47,48
 316 62 316 62 361 83 c 128,-1,49
 406 104 406 104 440 143 c 1,50,-1
 259 334 l 1,51,52
 199 313 199 313 163.5 278 c 128,-1,53
 128 243 128 243 128 187 c 0,54,55
 128 149 128 149 147 120.5 c 128,-1,56
 166 92 166 92 197 77 c 128,-1,57
 228 62 228 62 263 62 c 0,47,48
EndSplineSet
EndChar

StartChar: quotesingle
Encoding: 39 39 126
Width: 160
GlyphClass: 1
Flags: W
HStem: 447 221<54 106>
VStem: 54 52<447 557.5>
LayerCount: 2
Fore
SplineSet
54 447 m 1,0,-1
 40 668 l 1,1,-1
 120 668 l 1,2,-1
 106 447 l 1,3,-1
 54 447 l 1,0,-1
EndSplineSet
EndChar

StartChar: parenleft
Encoding: 40 40 127
Width: 300
GlyphClass: 1
Flags: W
HStem: -161 21G<154.5 265> 648 20G<132.5 235>
VStem: 50 74<99.0901 458.283>
LayerCount: 2
Fore
SplineSet
189 -161 m 1,0,1
 120 -63 120 -63 85 50.5 c 128,-1,2
 50 164 50 164 50 280 c 0,3,4
 50 382 50 382 77.5 481 c 128,-1,5
 105 580 105 580 160 668 c 1,6,-1
 235 668 l 1,7,8
 186 598 186 598 155 496 c 128,-1,9
 124 394 124 394 124 278 c 0,10,11
 124 169 124 169 156.5 55.5 c 128,-1,12
 189 -58 189 -58 265 -161 c 1,13,-1
 189 -161 l 1,0,1
EndSplineSet
EndChar

StartChar: parenright
Encoding: 41 41 128
Width: 300
GlyphClass: 1
Flags: W
HStem: -161 21G<35 146> 648 20G<66 169>
VStem: 177 73<99.449 461.487>
LayerCount: 2
Fore
SplineSet
35 -161 m 1,0,1
 111 -58 111 -58 144 56 c 128,-1,2
 177 170 177 170 177 279 c 0,3,4
 177 394 177 394 146.5 496 c 128,-1,5
 116 598 116 598 66 668 c 1,6,-1
 141 668 l 1,7,8
 197 580 197 580 223.5 481 c 128,-1,9
 250 382 250 382 250 281 c 0,10,11
 250 164 250 164 215 50.5 c 128,-1,12
 180 -63 180 -63 112 -161 c 1,13,-1
 35 -161 l 1,0,1
EndSplineSet
EndChar

StartChar: asterisk
Encoding: 42 42 129
Width: 433
GlyphClass: 1
Flags: W
HStem: 388 280
VStem: 187 57<562 668>
LayerCount: 2
Fore
SplineSet
153 388 m 1,0,-1
 107 422 l 1,1,-1
 169 508 l 1,2,-1
 68 540 l 1,3,-1
 86 595 l 1,4,-1
 187 562 l 1,5,-1
 187 668 l 1,6,-1
 244 668 l 1,7,-1
 244 562 l 1,8,-1
 345 595 l 1,9,-1
 363 540 l 1,10,-1
 261 508 l 1,11,-1
 324 422 l 1,12,-1
 278 388 l 1,13,-1
 215 474 l 1,14,-1
 153 388 l 1,0,-1
EndSplineSet
EndChar

StartChar: plus
Encoding: 43 43 130
Width: 602
GlyphClass: 1
Flags: W
HStem: 0 21G<261 341> 208 80<53 261 341 549> 476 20G<261 341>
VStem: 261 80<0 208 288 496>
LayerCount: 2
Fore
SplineSet
261 0 m 1,0,-1
 261 208 l 1,1,-1
 53 208 l 1,2,-1
 53 288 l 1,3,-1
 261 288 l 1,4,-1
 261 496 l 1,5,-1
 341 496 l 1,6,-1
 341 288 l 1,7,-1
 549 288 l 1,8,-1
 549 208 l 1,9,-1
 341 208 l 1,10,-1
 341 0 l 1,11,-1
 261 0 l 1,0,-1
EndSplineSet
EndChar

StartChar: comma
Encoding: 44 44 131
Width: 205
GlyphClass: 1
Flags: W
HStem: -133 250<92.4961 100>
VStem: 38 129<5.35938 97.4045>
LayerCount: 2
Fore
SplineSet
45 -133 m 1,0,-1
 92 -11 l 1,1,2
 69 -7 69 -7 53.5 11 c 128,-1,3
 38 29 38 29 38 53 c 0,4,5
 38 79 38 79 57 98 c 128,-1,6
 76 117 76 117 102 117 c 0,7,8
 129 117 129 117 148 98 c 128,-1,9
 167 79 167 79 167 53 c 0,10,11
 167 41 167 41 162 28 c 2,12,-1
 100 -133 l 1,13,-1
 45 -133 l 1,0,-1
EndSplineSet
EndChar

StartChar: hyphen
Encoding: 45 45 132
Width: 368
GlyphClass: 1
Flags: W
HStem: 208 81<38 330>
VStem: 38 292<208 289>
LayerCount: 2
Fore
SplineSet
38 208 m 1,0,-1
 38 289 l 1,1,-1
 330 289 l 1,2,-1
 330 208 l 1,3,-1
 38 208 l 1,0,-1
EndSplineSet
EndChar

StartChar: period
Encoding: 46 46 133
Width: 205
GlyphClass: 1
Flags: W
HStem: -12 129<57.5955 147.404>
VStem: 38 129<7.59546 97.4043>
LayerCount: 2
Fore
SplineSet
102 -12 m 0,0,1
 76 -12 76 -12 57 7 c 128,-1,2
 38 26 38 26 38 52 c 0,3,4
 38 79 38 79 57 98 c 128,-1,5
 76 117 76 117 102 117 c 0,6,7
 129 117 129 117 148 98 c 128,-1,8
 167 79 167 79 167 52 c 0,9,10
 167 26 167 26 148 7 c 128,-1,11
 129 -12 129 -12 102 -12 c 0,0,1
EndSplineSet
EndChar

StartChar: slash
Encoding: 47 47 134
Width: 377
GlyphClass: 1
Flags: W
HStem: 0 21G<15 109.784> 648 20G<267.216 362>
LayerCount: 2
Fore
SplineSet
15 0 m 1,0,-1
 275 668 l 1,1,-1
 362 668 l 1,2,-1
 102 0 l 1,3,-1
 15 0 l 1,0,-1
EndSplineSet
EndChar

StartChar: braceleft
Encoding: 123 123 135
Width: 319
GlyphClass: 1
Flags: W
HStem: -161 71<201.287 285> 220 67<38 94.0317> 597 71<201.287 285>
VStem: 108 84<-77.1029 206.708 299.854 583.588>
CounterMasks: 1 e0
LayerCount: 2
Fore
SplineSet
242 -161 m 2,0,1
 186 -161 186 -161 157 -148.5 c 128,-1,2
 128 -136 128 -136 118 -106 c 128,-1,3
 108 -76 108 -76 108 -25 c 2,4,-1
 108 125 l 2,5,6
 108 168 108 168 96.5 194 c 128,-1,7
 85 220 85 220 38 220 c 1,8,-1
 38 287 l 1,9,10
 85 287 85 287 96.5 313 c 128,-1,11
 108 339 108 339 108 382 c 2,12,-1
 108 532 l 2,13,14
 108 584 108 584 118 613.5 c 128,-1,15
 128 643 128 643 157 655.5 c 128,-1,16
 186 668 186 668 242 668 c 2,17,-1
 285 668 l 1,18,-1
 285 597 l 1,19,-1
 243 597 l 2,20,21
 210 597 210 597 201 584 c 128,-1,22
 192 571 192 571 192 533 c 2,23,-1
 192 380 l 2,24,25
 192 317 192 317 170.5 290.5 c 128,-1,26
 149 264 149 264 113 254 c 1,27,-1
 113 253 l 1,28,29
 151 243 151 243 171.5 216 c 128,-1,30
 192 189 192 189 192 127 c 2,31,-1
 192 -26 l 2,32,33
 192 -65 192 -65 201 -77.5 c 128,-1,34
 210 -90 210 -90 243 -90 c 2,35,-1
 285 -90 l 1,36,-1
 285 -161 l 1,37,-1
 242 -161 l 2,0,1
EndSplineSet
EndChar

StartChar: bar
Encoding: 124 124 136
Width: 233
GlyphClass: 1
Flags: W
HStem: -161 21G<76 157> 648 20G<76 157>
VStem: 76 81<-161 668>
LayerCount: 2
Fore
SplineSet
76 -161 m 1,0,-1
 76 668 l 1,1,-1
 157 668 l 1,2,-1
 157 -161 l 1,3,-1
 76 -161 l 1,0,-1
EndSplineSet
EndChar

StartChar: braceright
Encoding: 125 125 137
Width: 319
GlyphClass: 1
Flags: W
HStem: -161 71<34 117.713> 220 67<225.549 281> 597 71<34 117.713>
VStem: 127 84<-77.1029 206.568 300.688 583.588>
CounterMasks: 1 e0
LayerCount: 2
Fore
SplineSet
34 -161 m 1,0,-1
 34 -90 l 1,1,-1
 76 -90 l 2,2,3
 109 -90 109 -90 118 -77.5 c 128,-1,4
 127 -65 127 -65 127 -26 c 2,5,-1
 127 127 l 2,6,7
 127 189 127 189 148 216 c 128,-1,8
 169 243 169 243 206 253 c 1,9,-1
 206 254 l 1,10,11
 170 264 170 264 148.5 290.5 c 128,-1,12
 127 317 127 317 127 380 c 2,13,-1
 127 533 l 2,14,15
 127 571 127 571 118 584 c 128,-1,16
 109 597 109 597 76 597 c 2,17,-1
 34 597 l 1,18,-1
 34 668 l 1,19,-1
 77 668 l 2,20,21
 133 668 133 668 162 655.5 c 128,-1,22
 191 643 191 643 201 613.5 c 128,-1,23
 211 584 211 584 211 532 c 2,24,-1
 211 382 l 2,25,26
 211 339 211 339 223 313 c 128,-1,27
 235 287 235 287 281 287 c 1,28,-1
 281 220 l 1,29,30
 235 220 235 220 223 194 c 128,-1,31
 211 168 211 168 211 125 c 2,32,-1
 211 -25 l 2,33,34
 211 -76 211 -76 201 -106 c 128,-1,35
 191 -136 191 -136 162 -148.5 c 128,-1,36
 133 -161 133 -161 77 -161 c 2,37,-1
 34 -161 l 1,0,-1
EndSplineSet
EndChar

StartChar: asciitilde
Encoding: 126 126 138
Width: 555
GlyphClass: 1
Flags: W
HStem: 195 73<303.164 427.769> 249 74<132.517 261.562>
LayerCount: 2
Fore
SplineSet
379 195 m 0,0,1
 343 195 343 195 308.5 208.5 c 128,-1,2
 274 222 274 222 241.5 235.5 c 128,-1,3
 209 249 209 249 179 249 c 0,4,5
 154 249 154 249 137 236.5 c 128,-1,6
 120 224 120 224 115 199 c 1,7,-1
 40 221 l 1,8,9
 51 267 51 267 87 295 c 128,-1,10
 123 323 123 323 177 323 c 0,11,12
 219 323 219 323 254.5 309.5 c 128,-1,13
 290 296 290 296 321 282 c 128,-1,14
 352 268 352 268 378 268 c 0,15,16
 401 268 401 268 418.5 281 c 128,-1,17
 436 294 436 294 441 319 c 1,18,-1
 515 297 l 1,19,20
 504 251 504 251 468 223 c 128,-1,21
 432 195 432 195 379 195 c 0,0,1
EndSplineSet
EndChar

StartChar: exclamdown
Encoding: 161 161 139
Width: 281
GlyphClass: 1
Flags: W
HStem: -161 21G<96 185> 390 129<95.5955 185.404>
VStem: 76 129<409.595 499.404> 96 89<-161 127.667>
LayerCount: 2
Fore
SplineSet
140 390 m 0,0,1
 114 390 114 390 95 409 c 128,-1,2
 76 428 76 428 76 454 c 0,3,4
 76 481 76 481 95 500 c 128,-1,5
 114 519 114 519 140 519 c 0,6,7
 167 519 167 519 186 500 c 128,-1,8
 205 481 205 481 205 454 c 0,9,10
 205 428 205 428 186 409 c 128,-1,11
 167 390 167 390 140 390 c 0,0,1
96 -161 m 1,12,-1
 96 11 l 1,13,-1
 114 311 l 1,14,-1
 167 311 l 1,15,-1
 185 11 l 1,16,-1
 185 -161 l 1,17,-1
 96 -161 l 1,12,-1
EndSplineSet
EndChar

StartChar: cent
Encoding: 162 162 140
Width: 500
GlyphClass: 1
Flags: W
HStem: -12 74<286 347.002> 430 74<286 347.847>
VStem: 38 91<140.495 353.042> 236 50<-87 -9.52795 67 425 504 571>
LayerCount: 2
Fore
SplineSet
236 -87 m 1,0,-1
 236 -10 l 1,1,2
 175 -2 175 -2 130.5 32.5 c 128,-1,3
 86 67 86 67 62 122.5 c 128,-1,4
 38 178 38 178 38 247 c 0,5,6
 38 314 38 314 62 368 c 128,-1,7
 86 422 86 422 130.5 457 c 128,-1,8
 175 492 175 492 236 501 c 1,9,-1
 236 571 l 1,10,-1
 286 571 l 1,11,-1
 286 504 l 1,12,13
 351 502 351 502 396.5 469.5 c 128,-1,14
 442 437 442 437 465 393 c 1,15,-1
 388 365 l 1,16,17
 356 422 356 422 286 430 c 1,18,-1
 286 62 l 1,19,20
 322 66 322 66 348.5 84 c 128,-1,21
 375 102 375 102 390 127 c 1,22,-1
 467 99 l 1,23,24
 442 54 442 54 394.5 23.5 c 128,-1,25
 347 -7 347 -7 286 -12 c 1,26,-1
 286 -87 l 1,27,-1
 236 -87 l 1,0,-1
236 67 m 1,28,-1
 236 425 l 1,29,30
 192 413 192 413 160.5 369.5 c 128,-1,31
 129 326 129 326 129 248 c 0,32,33
 129 169 129 169 160.5 124.5 c 128,-1,34
 192 80 192 80 236 67 c 1,28,-1
EndSplineSet
EndChar

StartChar: sterling
Encoding: 163 163 141
Width: 586
GlyphClass: 1
Flags: W
HStem: -12 78<323.456 523.276> 26 76<194.298 341.829> 318 51<70 156 272 453> 609 71<243.052 414.677>
VStem: 112 89<424.363 570.427> 202 88<159.424 315.258>
LayerCount: 2
Fore
SplineSet
101 -12 m 1,0,-1
 73 55 l 1,1,2
 87 61 87 61 108.5 74 c 128,-1,3
 130 87 130 87 151.5 108 c 128,-1,4
 173 129 173 129 187.5 158.5 c 128,-1,5
 202 188 202 188 202 226 c 0,6,7
 202 246 202 246 196.5 269.5 c 128,-1,8
 191 293 191 293 179 318 c 1,9,-1
 70 318 l 1,10,-1
 70 369 l 1,11,-1
 156 369 l 1,12,13
 140 403 140 403 126 437.5 c 128,-1,14
 112 472 112 472 112 511 c 0,15,16
 112 573 112 573 145 610 c 128,-1,17
 178 647 178 647 229 663.5 c 128,-1,18
 280 680 280 680 333 680 c 0,19,20
 417 680 417 680 472 642.5 c 128,-1,21
 527 605 527 605 546 541 c 1,22,-1
 463 516 l 1,23,24
 450 568 450 568 413 588.5 c 128,-1,25
 376 609 376 609 329 609 c 0,26,27
 301 609 301 609 271 600 c 128,-1,28
 241 591 241 591 221 569 c 128,-1,29
 201 547 201 547 201 508 c 0,30,31
 201 472 201 472 216.5 438 c 128,-1,32
 232 404 232 404 249 369 c 1,33,-1
 453 369 l 1,34,-1
 453 318 l 1,35,-1
 272 318 l 1,36,37
 282 296 282 296 286 276 c 128,-1,38
 290 256 290 256 290 238 c 0,39,40
 290 188 290 188 262.5 151 c 128,-1,41
 235 114 235 114 194 90 c 1,42,43
 211 97 211 97 226 99.5 c 128,-1,44
 241 102 241 102 254 102 c 0,45,46
 284 102 284 102 309 93 c 128,-1,47
 334 84 334 84 361 75 c 128,-1,48
 388 66 388 66 422 66 c 0,49,50
 445 66 445 66 471.5 71.5 c 128,-1,51
 498 77 498 77 531 91 c 1,52,-1
 556 18 l 1,53,54
 519 2 519 2 488 -5 c 128,-1,55
 457 -12 457 -12 431 -12 c 0,56,57
 394 -12 394 -12 363 -2.5 c 128,-1,58
 332 7 332 7 302 16.5 c 128,-1,59
 272 26 272 26 235 26 c 0,60,61
 208 26 208 26 175 17.5 c 128,-1,62
 142 9 142 9 101 -12 c 1,0,-1
EndSplineSet
EndChar

StartChar: currency
Encoding: 164 164 142
Width: 580
GlyphClass: 1
Flags: W
HStem: 103 75<214.848 365.65> 463 76<214.848 365.65>
VStem: 72 76<245.376 396.151> 432 76<245.566 396.151>
LayerCount: 2
Fore
SplineSet
89 84 m 1,0,-1
 53 119 l 1,1,-1
 119 185 l 1,2,3
 72 246 72 246 72 321 c 0,4,5
 72 357 72 357 84 392 c 128,-1,6
 96 427 96 427 119 456 c 1,7,-1
 53 522 l 1,8,-1
 89 558 l 1,9,-1
 155 492 l 1,10,11
 185 516 185 516 219.5 527.5 c 128,-1,12
 254 539 254 539 290 539 c 256,13,14
 326 539 326 539 361 527.5 c 128,-1,15
 396 516 396 516 425 492 c 1,16,-1
 491 558 l 1,17,-1
 527 522 l 1,18,-1
 461 456 l 1,19,20
 485 427 485 427 496.5 392 c 128,-1,21
 508 357 508 357 508 321 c 256,22,23
 508 285 508 285 496.5 250 c 128,-1,24
 485 215 485 215 461 185 c 1,25,-1
 527 119 l 1,26,-1
 491 84 l 1,27,-1
 425 149 l 1,28,29
 396 126 396 126 361 114.5 c 128,-1,30
 326 103 326 103 290 103 c 256,31,32
 254 103 254 103 219.5 114.5 c 128,-1,33
 185 126 185 126 155 149 c 1,34,-1
 89 84 l 1,0,-1
290 178 m 0,35,36
 330 178 330 178 362 197.5 c 128,-1,37
 394 217 394 217 413 249.5 c 128,-1,38
 432 282 432 282 432 321 c 256,39,40
 432 360 432 360 413 392 c 128,-1,41
 394 424 394 424 362 443.5 c 128,-1,42
 330 463 330 463 290 463 c 0,43,44
 251 463 251 463 218.5 443.5 c 128,-1,45
 186 424 186 424 167 392 c 128,-1,46
 148 360 148 360 148 321 c 256,47,48
 148 282 148 282 167 249.5 c 128,-1,49
 186 217 186 217 218.5 197.5 c 128,-1,50
 251 178 251 178 290 178 c 0,35,36
EndSplineSet
EndChar

StartChar: yen
Encoding: 165 165 143
Width: 595
GlyphClass: 1
Flags: W
HStem: 0 21G<251 345> 86 51<101 251 345 494> 223 51<101 242 353 494> 648 20G<10 124.455 470.607 585>
VStem: 251 94<0 86 137 223>
LayerCount: 2
Fore
SplineSet
251 0 m 1,0,-1
 251 86 l 1,1,-1
 101 86 l 1,2,-1
 101 137 l 1,3,-1
 251 137 l 1,4,-1
 251 223 l 1,5,-1
 101 223 l 1,6,-1
 101 274 l 1,7,-1
 242 274 l 1,8,-1
 10 668 l 1,9,-1
 113 668 l 1,10,-1
 298 345 l 1,11,-1
 482 668 l 1,12,-1
 585 668 l 1,13,-1
 353 274 l 1,14,-1
 494 274 l 1,15,-1
 494 223 l 1,16,-1
 345 223 l 1,17,-1
 345 137 l 1,18,-1
 494 137 l 1,19,-1
 494 86 l 1,20,-1
 345 86 l 1,21,-1
 345 0 l 1,22,-1
 251 0 l 1,0,-1
EndSplineSet
EndChar

StartChar: brokenbar
Encoding: 166 166 144
Width: 233
GlyphClass: 1
Flags: W
HStem: -161 21G<76 157> 648 20G<76 157>
VStem: 76 81<-161 149 358 668>
LayerCount: 2
Fore
SplineSet
76 358 m 1,0,-1
 76 668 l 1,1,-1
 157 668 l 1,2,-1
 157 358 l 1,3,-1
 76 358 l 1,0,-1
76 -161 m 1,4,-1
 76 149 l 1,5,-1
 157 149 l 1,6,-1
 157 -161 l 1,7,-1
 76 -161 l 1,4,-1
EndSplineSet
EndChar

StartChar: section
Encoding: 167 167 145
Width: 530
GlyphClass: 1
Flags: W
HStem: -173 70<188.358 337.744> 610 70<184.079 330.15>
VStem: 31 84<239.257 341.836> 76 86<505.987 592.561> 363 86<-81.6734 18.649> 416 84<175.064 280.89>
LayerCount: 2
Fore
SplineSet
261 -173 m 0,0,1
 187 -173 187 -173 136 -139 c 128,-1,2
 85 -105 85 -105 67 -44 c 1,3,-1
 150 -20 l 1,4,5
 160 -59 160 -59 187 -81 c 128,-1,6
 214 -103 214 -103 263 -103 c 0,7,8
 307 -103 307 -103 335 -86 c 128,-1,9
 363 -69 363 -69 363 -36 c 0,10,11
 363 2 363 2 331 28.5 c 128,-1,12
 299 55 299 55 254 77 c 2,13,-1
 160 124 l 2,14,15
 107 151 107 151 69 191.5 c 128,-1,16
 31 232 31 232 31 289 c 0,17,18
 31 339 31 339 66.5 373.5 c 128,-1,19
 102 408 102 408 151 424 c 1,20,21
 122 444 122 444 99 474.5 c 128,-1,22
 76 505 76 505 76 550 c 0,23,24
 76 594 76 594 102.5 622.5 c 128,-1,25
 129 651 129 651 170.5 665.5 c 128,-1,26
 212 680 212 680 257 680 c 0,27,28
 325 680 325 680 372 651.5 c 128,-1,29
 419 623 419 623 439 574 c 1,30,-1
 358 550 l 1,31,32
 346 582 346 582 317.5 596 c 128,-1,33
 289 610 289 610 253 610 c 0,34,35
 216 610 216 610 189 596 c 128,-1,36
 162 582 162 582 162 552 c 0,37,38
 162 524 162 524 189.5 500.5 c 128,-1,39
 217 477 217 477 257 456 c 2,40,-1
 371 398 l 2,41,42
 425 370 425 370 462.5 332 c 128,-1,43
 500 294 500 294 500 242 c 256,44,45
 500 190 500 190 467.5 151.5 c 128,-1,46
 435 113 435 113 385 91 c 1,47,48
 414 69 414 69 431.5 42 c 128,-1,49
 449 15 449 15 449 -23 c 0,50,51
 449 -72 449 -72 423.5 -105.5 c 128,-1,52
 398 -139 398 -139 355 -156 c 128,-1,53
 312 -173 312 -173 261 -173 c 0,0,1
323 129 m 1,54,55
 357 143 357 143 386.5 167.5 c 128,-1,56
 416 192 416 192 416 226 c 0,57,58
 416 256 416 256 397 278.5 c 128,-1,59
 378 301 378 301 346 318 c 2,60,-1
 218 387 l 1,61,62
 194 380 194 380 170.5 367 c 128,-1,63
 147 354 147 354 131 336 c 128,-1,64
 115 318 115 318 115 294 c 0,65,66
 115 259 115 259 138 238 c 128,-1,67
 161 217 161 217 201 195 c 2,68,-1
 323 129 l 1,54,55
EndSplineSet
EndChar

StartChar: dieresis
Encoding: 168 168 146
Width: 425
GlyphClass: 1
Flags: W
HStem: 590 107<69.5015 145.014 280.986 356.014>
VStem: 53 108<606.501 681.014> 265 107<606.501 681.014>
LayerCount: 2
Fore
SplineSet
107 590 m 0,0,1
 85 590 85 590 69 606 c 128,-1,2
 53 622 53 622 53 644 c 256,3,4
 53 666 53 666 69 681.5 c 128,-1,5
 85 697 85 697 107 697 c 0,6,7
 130 697 130 697 145.5 681.5 c 128,-1,8
 161 666 161 666 161 644 c 256,9,10
 161 622 161 622 145.5 606 c 128,-1,11
 130 590 130 590 107 590 c 0,0,1
318 590 m 0,12,13
 296 590 296 590 280.5 606 c 128,-1,14
 265 622 265 622 265 644 c 256,15,16
 265 666 265 666 280.5 681.5 c 128,-1,17
 296 697 296 697 318 697 c 0,18,19
 341 697 341 697 356.5 681.5 c 128,-1,20
 372 666 372 666 372 644 c 256,21,22
 372 622 372 622 356.5 606 c 128,-1,23
 341 590 341 590 318 590 c 0,12,13
EndSplineSet
EndChar

StartChar: copyright
Encoding: 169 169 147
Width: 798
GlyphClass: 1
Flags: W
HStem: -12 62<289.396 508.604> 150 59<341.342 466.343> 473 58<340.515 460.298> 618 62<289.396 508.604>
VStem: 53 62<224.396 443.604> 227 76<249.579 432.726> 683 62<224.396 443.604>
LayerCount: 2
Fore
SplineSet
399 -12 m 256,0,1
 327 -12 327 -12 264.5 15 c 128,-1,2
 202 42 202 42 154.5 89.5 c 128,-1,3
 107 137 107 137 80 199.5 c 128,-1,4
 53 262 53 262 53 334 c 256,5,6
 53 406 53 406 80 468.5 c 128,-1,7
 107 531 107 531 154.5 578.5 c 128,-1,8
 202 626 202 626 264.5 653 c 128,-1,9
 327 680 327 680 399 680 c 256,10,11
 471 680 471 680 533.5 653 c 128,-1,12
 596 626 596 626 643.5 578.5 c 128,-1,13
 691 531 691 531 718 468.5 c 128,-1,14
 745 406 745 406 745 334 c 256,15,16
 745 262 745 262 718 199.5 c 128,-1,17
 691 137 691 137 643.5 89.5 c 128,-1,18
 596 42 596 42 533.5 15 c 128,-1,19
 471 -12 471 -12 399 -12 c 256,0,1
399 50 m 256,20,21
 458 50 458 50 509.5 72 c 128,-1,22
 561 94 561 94 600 133 c 128,-1,23
 639 172 639 172 661 223.5 c 128,-1,24
 683 275 683 275 683 334 c 256,25,26
 683 393 683 393 661 444.5 c 128,-1,27
 639 496 639 496 600 535 c 128,-1,28
 561 574 561 574 509.5 596 c 128,-1,29
 458 618 458 618 399 618 c 256,30,31
 340 618 340 618 288.5 596 c 128,-1,32
 237 574 237 574 198 535 c 128,-1,33
 159 496 159 496 137 444.5 c 128,-1,34
 115 393 115 393 115 334 c 256,35,36
 115 275 115 275 137 223.5 c 128,-1,37
 159 172 159 172 198 133 c 128,-1,38
 237 94 237 94 288.5 72 c 128,-1,39
 340 50 340 50 399 50 c 256,20,21
401 150 m 0,40,41
 317 150 317 150 272 201.5 c 128,-1,42
 227 253 227 253 227 342 c 256,43,44
 227 431 227 431 274.5 481 c 128,-1,45
 322 531 322 531 403 531 c 0,46,47
 457 531 457 531 493 508 c 128,-1,48
 529 485 529 485 548 449 c 1,49,-1
 481 424 l 1,50,51
 455 473 455 473 401 473 c 0,52,53
 358 473 358 473 330.5 441 c 128,-1,54
 303 409 303 409 303 342 c 256,55,56
 303 275 303 275 330.5 242 c 128,-1,57
 358 209 358 209 401 209 c 0,58,59
 426 209 426 209 448.5 219 c 128,-1,60
 471 229 471 229 484 254 c 1,61,-1
 550 230 l 1,62,63
 531 196 531 196 494 173 c 128,-1,64
 457 150 457 150 401 150 c 0,40,41
EndSplineSet
EndChar

StartChar: questiondown
Encoding: 191 191 148
Width: 520
GlyphClass: 1
Flags: W
HStem: -174 70<179.543 342.735> 390 129<247.596 337.405>
VStem: 49 88<-64.0896 63.9609> 228 129<409.596 499.405> 251 86<220.038 316> 397 82<-50.1021 -16.0366>
LayerCount: 2
Fore
SplineSet
293 390 m 0,0,1
 266 390 266 390 247 409 c 128,-1,2
 228 428 228 428 228 455 c 0,3,4
 228 481 228 481 247 500 c 128,-1,5
 266 519 266 519 293 519 c 0,6,7
 319 519 319 519 338 500 c 128,-1,8
 357 481 357 481 357 455 c 0,9,10
 357 428 357 428 338 409 c 128,-1,11
 319 390 319 390 293 390 c 0,0,1
258 -174 m 0,12,13
 206 -174 206 -174 158 -156.5 c 128,-1,14
 110 -139 110 -139 79.5 -102.5 c 128,-1,15
 49 -66 49 -66 49 -10 c 0,16,17
 49 33 49 33 67 68 c 128,-1,18
 85 103 85 103 114 130.5 c 128,-1,19
 143 158 143 158 174 178 c 0,20,21
 203 197 203 197 219.5 210.5 c 128,-1,22
 236 224 236 224 243.5 240.5 c 128,-1,23
 251 257 251 257 251 282 c 2,24,-1
 251 316 l 1,25,-1
 337 316 l 1,26,-1
 337 279 l 2,27,28
 337 241 337 241 324.5 214 c 128,-1,29
 312 187 312 187 286.5 165.5 c 128,-1,30
 261 144 261 144 223 119 c 0,31,32
 187 97 187 97 162 68 c 128,-1,33
 137 39 137 39 137 -2 c 0,34,35
 137 -50 137 -50 172 -77 c 128,-1,36
 207 -104 207 -104 262 -104 c 0,37,38
 307 -104 307 -104 335 -87.5 c 128,-1,39
 363 -71 363 -71 378 -46 c 128,-1,40
 393 -21 393 -21 397 5 c 1,41,-1
 479 -18 l 1,42,43
 464 -90 464 -90 404 -132 c 128,-1,44
 344 -174 344 -174 258 -174 c 0,12,13
EndSplineSet
EndChar

StartChar: germandbls
Encoding: 223 223 149
Width: 597
GlyphClass: 1
Flags: W
HStem: -12 74<302 410.507> 0 21G<76 160> 330 76<279 384.503> 611 69<214.259 391.845>
VStem: 76 84<0 556.245> 435 85<449.964 570.761> 469 90<115.884 273.253>
LayerCount: 2
Fore
SplineSet
316 -12 m 2,0,-1
 302 -12 l 1,1,-1
 279 65 l 1,2,3
 300 62 300 62 318 62 c 0,4,5
 386 62 386 62 427.5 95 c 128,-1,6
 469 128 469 128 469 195 c 0,7,8
 469 268 469 268 420 299 c 128,-1,9
 371 330 371 330 291 330 c 2,10,-1
 279 330 l 1,11,-1
 279 406 l 1,12,-1
 285 406 l 2,13,14
 326 406 326 406 360 417 c 128,-1,15
 394 428 394 428 414.5 451.5 c 128,-1,16
 435 475 435 475 435 511 c 0,17,18
 435 555 435 555 401 583 c 128,-1,19
 367 611 367 611 311 611 c 0,20,21
 232 611 232 611 196 575 c 128,-1,22
 160 539 160 539 160 453 c 2,23,-1
 160 0 l 1,24,-1
 76 0 l 1,25,-1
 76 453 l 2,26,27
 76 489 76 489 83.5 528.5 c 128,-1,28
 91 568 91 568 114.5 602.5 c 128,-1,29
 138 637 138 637 185.5 658.5 c 128,-1,30
 233 680 233 680 312 680 c 0,31,32
 372 680 372 680 419 660.5 c 128,-1,33
 466 641 466 641 493 605.5 c 128,-1,34
 520 570 520 570 520 521 c 0,35,36
 520 471 520 471 496 434.5 c 128,-1,37
 472 398 472 398 420 376 c 1,38,39
 479 361 479 361 519 319.5 c 128,-1,40
 559 278 559 278 559 197 c 0,41,42
 559 121 559 121 524.5 75 c 128,-1,43
 490 29 490 29 435 8.5 c 128,-1,44
 380 -12 380 -12 316 -12 c 2,0,-1
EndSplineSet
EndChar

StartChar: AE
Encoding: 198 198 150
Width: 998
GlyphClass: 1
Flags: W
HStem: 0 81<600 960> 145 81<279 506> 303 81<600 866> 587 81<600 960>
VStem: 506 94<81 145 226 303 384 546>
LayerCount: 2
Fore
SplineSet
10 0 m 1,0,-1
 496 668 l 1,1,-1
 960 668 l 1,2,-1
 960 587 l 1,3,-1
 600 587 l 1,4,-1
 600 384 l 1,5,-1
 866 384 l 1,6,-1
 866 303 l 1,7,-1
 600 303 l 1,8,-1
 600 81 l 1,9,-1
 960 81 l 1,10,-1
 960 0 l 1,11,-1
 506 0 l 1,12,-1
 506 145 l 1,13,-1
 223 145 l 1,14,-1
 119 0 l 1,15,-1
 10 0 l 1,0,-1
279 226 m 1,16,-1
 506 226 l 1,17,-1
 506 546 l 1,18,-1
 279 226 l 1,16,-1
EndSplineSet
EndChar

StartChar: florin
Encoding: 279 402 151
Width: 321
GlyphClass: 1
Flags: W
HStem: -173 80<25.4526 96.7106> 429 67<25 109 193 296> 635 71<202.802 296>
VStem: 109 84<-73.4033 429 496 621.588>
LayerCount: 2
Fore
SplineSet
80 -173 m 0,0,1
 66 -173 66 -173 52.5 -171 c 128,-1,2
 39 -169 39 -169 25 -165 c 1,3,-1
 25 -90 l 1,4,5
 40 -93 40 -93 51 -93 c 0,6,7
 83 -93 83 -93 96 -74 c 128,-1,8
 109 -55 109 -55 109 -24 c 2,9,-1
 109 429 l 1,10,-1
 25 429 l 1,11,-1
 25 496 l 1,12,-1
 109 496 l 1,13,-1
 109 570 l 2,14,15
 109 621 109 621 119 651 c 128,-1,16
 129 681 129 681 158 693.5 c 128,-1,17
 187 706 187 706 242 706 c 2,18,-1
 296 706 l 1,19,-1
 296 635 l 1,20,-1
 244 635 l 2,21,22
 212 635 212 635 202.5 622 c 128,-1,23
 193 609 193 609 193 571 c 2,24,-1
 193 496 l 1,25,-1
 296 496 l 1,26,-1
 296 429 l 1,27,-1
 193 429 l 1,28,-1
 193 -27 l 2,29,30
 193 -84 193 -84 177 -115.5 c 128,-1,31
 161 -147 161 -147 135 -160 c 128,-1,32
 109 -173 109 -173 80 -173 c 0,0,1
EndSplineSet
EndChar

StartChar: integral
Encoding: 280 8747 152
Width: 458
GlyphClass: 1
Flags: W
HStem: -173 112<79.8142 138.076> 569 112<319.439 378.186>
VStem: 53 99<-126.225 -76.9855> 189 84<-96.0781 611.918> 305 100<584.985 634.225>
LayerCount: 2
Fore
SplineSet
138 -173 m 0,0,1
 105 -173 105 -173 79 -159.5 c 128,-1,2
 53 -146 53 -146 53 -111 c 0,3,4
 53 -91 53 -91 67.5 -76 c 128,-1,5
 82 -61 82 -61 103 -61 c 0,6,7
 125 -61 125 -61 138.5 -76.5 c 128,-1,8
 152 -92 152 -92 152 -112 c 0,9,10
 152 -116 152 -116 152 -119.5 c 128,-1,11
 152 -123 152 -123 150 -127 c 1,12,13
 150 -127 150 -127 156 -126 c 128,-1,14
 162 -125 162 -125 169.5 -117 c 128,-1,15
 177 -109 177 -109 183 -89 c 128,-1,16
 189 -69 189 -69 189 -31 c 0,17,18
 189 93 189 93 187 216.5 c 128,-1,19
 185 340 185 340 185 464 c 0,20,21
 185 533 185 533 197.5 576 c 128,-1,22
 210 619 210 619 230 642 c 128,-1,23
 250 665 250 665 274 673 c 128,-1,24
 298 681 298 681 320 681 c 0,25,26
 353 681 353 681 379 667.5 c 128,-1,27
 405 654 405 654 405 619 c 0,28,29
 405 598 405 598 390.5 583.5 c 128,-1,30
 376 569 376 569 355 569 c 0,31,32
 333 569 333 569 319 584.5 c 128,-1,33
 305 600 305 600 305 619 c 0,34,35
 305 628 305 628 308 635 c 1,36,37
 308 635 308 635 302 634 c 128,-1,38
 296 633 296 633 288.5 625 c 128,-1,39
 281 617 281 617 275 596.5 c 128,-1,40
 269 576 269 576 269 538 c 0,41,42
 269 414 269 414 271 291 c 128,-1,43
 273 168 273 168 273 44 c 0,44,45
 273 -26 273 -26 260.5 -69 c 128,-1,46
 248 -112 248 -112 228 -134.5 c 128,-1,47
 208 -157 208 -157 184.5 -165 c 128,-1,48
 161 -173 161 -173 138 -173 c 0,0,1
EndSplineSet
EndChar

StartChar: approxequal
Encoding: 281 8776 153
Width: 581
GlyphClass: 1
Flags: W
HStem: 97 73<316.164 440.769> 151 74<145.517 274.562> 283 73<318.109 436.109> 337 74<145.433 275.012>
LayerCount: 2
Fore
SplineSet
128 287 m 1,0,-1
 53 309 l 1,1,2
 65 355 65 355 101 383 c 128,-1,3
 137 411 137 411 192 411 c 0,4,5
 234 411 234 411 269.5 397.5 c 128,-1,6
 305 384 305 384 335.5 370 c 128,-1,7
 366 356 366 356 392 356 c 0,8,9
 415 356 415 356 432 369 c 128,-1,10
 449 382 449 382 454 407 c 1,11,-1
 528 385 l 1,12,13
 517 339 517 339 481 311 c 128,-1,14
 445 283 445 283 392 283 c 0,15,16
 356 283 356 283 321.5 296.5 c 128,-1,17
 287 310 287 310 254.5 323.5 c 128,-1,18
 222 337 222 337 192 337 c 0,19,20
 167 337 167 337 150 324.5 c 128,-1,21
 133 312 133 312 128 287 c 1,0,-1
128 101 m 1,22,-1
 53 123 l 1,23,24
 64 169 64 169 100 197 c 128,-1,25
 136 225 136 225 190 225 c 0,26,27
 232 225 232 225 267.5 211.5 c 128,-1,28
 303 198 303 198 334 184 c 128,-1,29
 365 170 365 170 391 170 c 0,30,31
 414 170 414 170 431.5 183 c 128,-1,32
 449 196 449 196 454 221 c 1,33,-1
 528 199 l 1,34,35
 517 153 517 153 481 125 c 128,-1,36
 445 97 445 97 392 97 c 0,37,38
 356 97 356 97 321.5 110.5 c 128,-1,39
 287 124 287 124 254.5 137.5 c 128,-1,40
 222 151 222 151 192 151 c 0,41,42
 167 151 167 151 150 138.5 c 128,-1,43
 133 126 133 126 128 101 c 1,22,-1
EndSplineSet
EndChar

StartChar: notequal
Encoding: 282 8800 154
Width: 602
GlyphClass: 1
Flags: W
HStem: 0 21G<77 191.05> 121 79<53 162 317 549> 307 80<53 292 448 549> 476 20G<410.872 524>
LayerCount: 2
Fore
SplineSet
77 0 m 1,0,-1
 162 121 l 1,1,-1
 53 121 l 1,2,-1
 53 200 l 1,3,-1
 218 200 l 1,4,-1
 292 307 l 1,5,-1
 53 307 l 1,6,-1
 53 387 l 1,7,-1
 348 387 l 1,8,-1
 425 496 l 1,9,-1
 524 496 l 1,10,-1
 448 387 l 1,11,-1
 549 387 l 1,12,-1
 549 307 l 1,13,-1
 392 307 l 1,14,-1
 317 200 l 1,15,-1
 549 200 l 1,16,-1
 549 121 l 1,17,-1
 262 121 l 1,18,-1
 177 0 l 1,19,-1
 77 0 l 1,0,-1
EndSplineSet
EndChar

StartChar: lessequal
Encoding: 283 8804 155
Width: 579
GlyphClass: 1
Flags: W
HStem: 0 80<53 526> 485 20G<469.69 526>
LayerCount: 2
Fore
SplineSet
526 100 m 1,0,-1
 53 267 l 1,1,-1
 53 337 l 1,2,-1
 526 505 l 1,3,-1
 526 414 l 1,4,-1
 158 302 l 1,5,-1
 526 190 l 1,6,-1
 526 100 l 1,0,-1
53 0 m 1,7,-1
 53 80 l 1,8,-1
 526 80 l 1,9,-1
 526 0 l 1,10,-1
 53 0 l 1,7,-1
EndSplineSet
EndChar

StartChar: greaterequal
Encoding: 284 8805 156
Width: 579
GlyphClass: 1
Flags: W
HStem: 0 80<53 526> 485 20G<53 109.31>
LayerCount: 2
Fore
SplineSet
53 100 m 1,0,-1
 53 190 l 1,1,-1
 421 302 l 1,2,-1
 53 414 l 1,3,-1
 53 505 l 1,4,-1
 526 337 l 1,5,-1
 526 267 l 1,6,-1
 53 100 l 1,0,-1
53 0 m 1,7,-1
 53 80 l 1,8,-1
 526 80 l 1,9,-1
 526 0 l 1,10,-1
 53 0 l 1,7,-1
EndSplineSet
EndChar

StartChar: lozenge
Encoding: 285 9674 157
Width: 561
GlyphClass: 1
Flags: W
LayerCount: 2
Fore
SplineSet
281 -73 m 1,0,-1
 53 315 l 1,1,-1
 281 703 l 1,2,-1
 508 315 l 1,3,-1
 281 -73 l 1,0,-1
281 76 m 1,4,-1
 421 315 l 1,5,-1
 281 554 l 1,6,-1
 140 315 l 1,7,-1
 281 76 l 1,4,-1
EndSplineSet
EndChar

StartChar: summation
Encoding: 286 8721 158
Width: 587
GlyphClass: 1
Flags: W
HStem: -161 81<154 534> 587 81<154 534>
LayerCount: 2
Fore
SplineSet
53 -161 m 1,0,-1
 53 -80 l 1,1,-1
 299 254 l 1,2,-1
 53 587 l 1,3,-1
 53 668 l 1,4,-1
 534 668 l 1,5,-1
 534 587 l 1,6,-1
 154 587 l 1,7,-1
 399 254 l 1,8,-1
 154 -80 l 1,9,-1
 534 -80 l 1,10,-1
 534 -161 l 1,11,-1
 53 -161 l 1,0,-1
EndSplineSet
EndChar

StartChar: minus
Encoding: 287 8722 159
Width: 602
GlyphClass: 1
Flags: W
HStem: 209 79<53 549>
LayerCount: 2
Fore
SplineSet
53 209 m 1,0,-1
 53 288 l 1,1,-1
 549 288 l 1,2,-1
 549 209 l 1,3,-1
 53 209 l 1,0,-1
EndSplineSet
EndChar

StartChar: uni2215
Encoding: 288 8725 160
Width: 598
GlyphClass: 1
Flags: W
HStem: 0 21G<15 128.991> 649 20G<469.009 583>
LayerCount: 2
Fore
SplineSet
15 0 m 1,0,-1
 483 669 l 1,1,-1
 583 669 l 1,2,-1
 115 0 l 1,3,-1
 15 0 l 1,0,-1
EndSplineSet
EndChar

StartChar: uni2219
Encoding: 289 8729 161
Width: 235
GlyphClass: 1
Flags: W
HStem: 191 129<72.5957 165.301>
VStem: 53 129<211.626 300.404>
LayerCount: 2
Fore
SplineSet
118 191 m 0,0,1
 88 191 88 191 70.5 211 c 128,-1,2
 53 231 53 231 53 255 c 0,3,4
 53 282 53 282 72 301 c 128,-1,5
 91 320 91 320 118 320 c 0,6,7
 144 320 144 320 163 301 c 128,-1,8
 182 282 182 282 182 256 c 256,9,10
 182 230 182 230 163 210.5 c 128,-1,11
 144 191 144 191 118 191 c 0,0,1
EndSplineSet
EndChar

StartChar: radical
Encoding: 290 8730 162
Width: 582
GlyphClass: 1
Flags: W
HStem: -161 21G<271.157 381.639> 145 80<53 159> 649 20G<437.516 529>
LayerCount: 2
Fore
SplineSet
279 -161 m 1,0,-1
 159 145 l 1,1,-1
 53 145 l 1,2,-1
 53 225 l 1,3,-1
 215 225 l 1,4,-1
 318 -37 l 1,5,-1
 441 669 l 1,6,-1
 529 669 l 1,7,-1
 378 -161 l 1,8,-1
 279 -161 l 1,0,-1
EndSplineSet
EndChar

StartChar: infinity
Encoding: 291 8734 163
Width: 773
GlyphClass: 1
Flags: W
HStem: 104 76<158.962 283.738 490.322 614.038> 330 76<158.478 285.527 488.79 614.522>
VStem: 53 81<205.117 307.142> 639 81<205.117 307.142>
LayerCount: 2
Fore
SplineSet
213 104 m 0,0,1
 142 104 142 104 97.5 146.5 c 128,-1,2
 53 189 53 189 53 256 c 0,3,4
 53 321 53 321 99 363.5 c 128,-1,5
 145 406 145 406 219 406 c 0,6,7
 273 406 273 406 314 379 c 128,-1,8
 355 352 355 352 387 317 c 1,9,10
 419 352 419 352 459.5 379 c 128,-1,11
 500 406 500 406 554 406 c 0,12,13
 628 406 628 406 674 363.5 c 128,-1,14
 720 321 720 321 720 256 c 0,15,16
 720 189 720 189 675.5 146.5 c 128,-1,17
 631 104 631 104 560 104 c 0,18,19
 505 104 505 104 463 132.5 c 128,-1,20
 421 161 421 161 387 198 c 1,21,22
 353 161 353 161 311 132.5 c 128,-1,23
 269 104 269 104 213 104 c 0,0,1
217 180 m 0,24,25
 249 180 249 180 277 197 c 128,-1,26
 305 214 305 214 339 256 c 1,27,28
 312 288 312 288 284.5 309 c 128,-1,29
 257 330 257 330 220 330 c 256,30,31
 183 330 183 330 158.5 310 c 128,-1,32
 134 290 134 290 134 256 c 0,33,34
 134 225 134 225 157.5 202.5 c 128,-1,35
 181 180 181 180 217 180 c 0,24,25
556 180 m 0,36,37
 592 180 592 180 615.5 202.5 c 128,-1,38
 639 225 639 225 639 256 c 0,39,40
 639 290 639 290 614.5 310 c 128,-1,41
 590 330 590 330 553 330 c 0,42,43
 517 330 517 330 489.5 309 c 128,-1,44
 462 288 462 288 435 256 c 1,45,46
 470 214 470 214 497 197 c 128,-1,47
 524 180 524 180 556 180 c 0,36,37
EndSplineSet
EndChar

StartChar: uni03A9
Encoding: 292 937 164
Width: 687
GlyphClass: 1
Flags: W
HStem: 0 81<50 201 486 637> 606 74<249.013 438.497>
VStem: 50 73<290.038 480.497> 201 85<81 142.595> 401 85<81 142.595> 564 73<290.038 480.497>
LayerCount: 2
Fore
SplineSet
50 0 m 1,0,-1
 50 81 l 1,1,-1
 201 81 l 1,2,-1
 201 130 l 1,3,4
 134 168 134 168 92 235.5 c 128,-1,5
 50 303 50 303 50 385 c 0,6,7
 50 446 50 446 72.5 499.5 c 128,-1,8
 95 553 95 553 135.5 593.5 c 128,-1,9
 176 634 176 634 229 657 c 128,-1,10
 282 680 282 680 343 680 c 256,11,12
 404 680 404 680 457.5 657 c 128,-1,13
 511 634 511 634 551 593.5 c 128,-1,14
 591 553 591 553 614 499.5 c 128,-1,15
 637 446 637 446 637 385 c 0,16,17
 637 303 637 303 595.5 235.5 c 128,-1,18
 554 168 554 168 486 130 c 1,19,-1
 486 81 l 1,20,-1
 637 81 l 1,21,-1
 637 0 l 1,22,-1
 401 0 l 1,23,-1
 401 173 l 1,24,25
 448 186 448 186 485 216.5 c 128,-1,26
 522 247 522 247 543 291 c 128,-1,27
 564 335 564 335 564 385 c 0,28,29
 564 446 564 446 534 496 c 128,-1,30
 504 546 504 546 454 576 c 128,-1,31
 404 606 404 606 343 606 c 0,32,33
 283 606 283 606 233 576 c 128,-1,34
 183 546 183 546 153 496 c 128,-1,35
 123 446 123 446 123 385 c 0,36,37
 123 335 123 335 144 291 c 128,-1,38
 165 247 165 247 202 216.5 c 128,-1,39
 239 186 239 186 286 173 c 1,40,-1
 286 0 l 1,41,-1
 50 0 l 1,0,-1
EndSplineSet
EndChar

StartChar: estimated
Encoding: 293 8494 165
Width: 622
GlyphClass: 1
Flags: W
HStem: -12 32<227.41 393.612> 248 31<159 463> 472 32<226.784 395.042>
VStem: 53 106<142.671 248 279 350.826> 463 106<279 351.003>
LayerCount: 2
Fore
SplineSet
311 -12 m 0,0,1
 265 -12 265 -12 219.5 5 c 128,-1,2
 174 22 174 22 136.5 55.5 c 128,-1,3
 99 89 99 89 76 139.5 c 128,-1,4
 53 190 53 190 53 256 c 0,5,6
 53 300 53 300 71.5 344 c 128,-1,7
 90 388 90 388 124 424 c 128,-1,8
 158 460 158 460 205.5 482 c 128,-1,9
 253 504 253 504 311 504 c 0,10,11
 382 504 382 504 440.5 469.5 c 128,-1,12
 499 435 499 435 534 377 c 128,-1,13
 569 319 569 319 569 248 c 1,14,-1
 159 248 l 1,15,-1
 159 78 l 1,16,17
 189 51 189 51 228 35.5 c 128,-1,18
 267 20 267 20 311 20 c 0,19,20
 362 20 362 20 406 41 c 128,-1,21
 450 62 450 62 481 97 c 1,22,-1
 514 87 l 1,23,24
 479 42 479 42 426 15 c 128,-1,25
 373 -12 373 -12 311 -12 c 0,0,1
159 279 m 1,26,-1
 463 279 l 1,27,-1
 463 413 l 1,28,29
 433 441 433 441 394 456.5 c 128,-1,30
 355 472 355 472 311 472 c 256,31,32
 267 472 267 472 228 456.5 c 128,-1,33
 189 441 189 441 159 413 c 1,34,-1
 159 279 l 1,26,-1
EndSplineSet
EndChar

StartChar: partialdiff
Encoding: 294 8706 166
Width: 582
GlyphClass: 1
Flags: W
HStem: -12 73<217.65 364.566> 430 74<217.65 364.119> 598 82<142 311.051>
VStem: 53 89<142.409 348.851> 439 90<142.953 348.93>
LayerCount: 2
Fore
SplineSet
291 -12 m 0,0,1
 248 -12 248 -12 205.5 3 c 128,-1,2
 163 18 163 18 128.5 49.5 c 128,-1,3
 94 81 94 81 73.5 130 c 128,-1,4
 53 179 53 179 53 246 c 0,5,6
 53 314 53 314 73.5 362.5 c 128,-1,7
 94 411 94 411 128.5 442.5 c 128,-1,8
 163 474 163 474 205.5 489 c 128,-1,9
 248 504 248 504 291 504 c 0,10,11
 322 504 322 504 360.5 492 c 128,-1,12
 399 480 399 480 423 450 c 1,13,14
 403 514 403 514 362 546.5 c 128,-1,15
 321 579 321 579 265 589.5 c 128,-1,16
 209 600 209 600 142 598 c 1,17,-1
 142 680 l 1,18,19
 172 680 172 680 212 678 c 128,-1,20
 252 676 252 676 296 665.5 c 128,-1,21
 340 655 340 655 381.5 630.5 c 128,-1,22
 423 606 423 606 456.5 562 c 128,-1,23
 490 518 490 518 510 448.5 c 128,-1,24
 530 379 530 379 530 277 c 0,25,26
 530 270 530 270 529.5 262 c 128,-1,27
 529 254 529 254 529 246 c 0,28,29
 526 152 526 152 490.5 95 c 128,-1,30
 455 38 455 38 402 13 c 128,-1,31
 349 -12 349 -12 291 -12 c 0,0,1
291 61 m 256,32,33
 327 61 327 61 361 80.5 c 128,-1,34
 395 100 395 100 417 141 c 128,-1,35
 439 182 439 182 439 246 c 256,36,37
 439 310 439 310 417 350.5 c 128,-1,38
 395 391 395 391 361 410.5 c 128,-1,39
 327 430 327 430 291 430 c 256,40,41
 255 430 255 430 221 410.5 c 128,-1,42
 187 391 187 391 164.5 350.5 c 128,-1,43
 142 310 142 310 142 246 c 256,44,45
 142 182 142 182 164.5 141 c 128,-1,46
 187 100 187 100 221 80.5 c 128,-1,47
 255 61 255 61 291 61 c 256,32,33
EndSplineSet
EndChar

StartChar: uni0394
Encoding: 295 916 167
Width: 759
GlyphClass: 1
Flags: W
HStem: 0 78<178 580> 660 20G<369.412 388.618>
LayerCount: 2
Fore
SplineSet
53 0 m 1,0,-1
 379 680 l 1,1,-1
 706 0 l 1,2,-1
 53 0 l 1,0,-1
178 78 m 1,3,-1
 580 78 l 1,4,-1
 379 498 l 1,5,-1
 178 78 l 1,3,-1
EndSplineSet
EndChar

StartChar: product
Encoding: 296 8719 168
Width: 585
GlyphClass: 1
Flags: W
HStem: -161 21G<53 134 450 532> 587 81<134 450>
VStem: 53 81<-161 587> 450 82<-161 587>
LayerCount: 2
Fore
SplineSet
53 -161 m 1,0,-1
 53 668 l 1,1,-1
 532 668 l 1,2,-1
 532 -161 l 1,3,-1
 450 -161 l 1,4,-1
 450 587 l 1,5,-1
 134 587 l 1,6,-1
 134 -161 l 1,7,-1
 53 -161 l 1,0,-1
EndSplineSet
EndChar

StartChar: pi
Encoding: 297 960 169
Width: 591
GlyphClass: 1
Flags: W
HStem: 0 74<474.741 551> 414 82<20 104 185 383 467 551>
VStem: 104 81<0 414> 383 84<87.4126 414>
LayerCount: 2
Fore
SplineSet
104 0 m 1,0,-1
 104 414 l 1,1,-1
 20 414 l 1,2,-1
 20 496 l 1,3,-1
 551 496 l 1,4,-1
 551 414 l 1,5,-1
 467 414 l 1,6,-1
 467 139 l 2,7,8
 467 100 467 100 474.5 87 c 128,-1,9
 482 74 482 74 518 74 c 2,10,-1
 551 74 l 1,11,-1
 551 0 l 1,12,-1
 500 0 l 2,13,14
 453 0 453 0 427.5 9.5 c 128,-1,15
 402 19 402 19 392.5 46 c 128,-1,16
 383 73 383 73 383 124 c 2,17,-1
 383 414 l 1,18,-1
 185 414 l 1,19,-1
 185 0 l 1,20,-1
 104 0 l 1,0,-1
EndSplineSet
EndChar

StartChar: hungarumlaut
Encoding: 298 733 170
Width: 414
GlyphClass: 1
Flags: W
HStem: 572 136
VStem: 53 308
LayerCount: 2
Fore
SplineSet
53 572 m 1,0,-1
 149 695 l 2,1,2
 159 708 159 708 177 708 c 0,3,4
 193 708 193 708 204 697 c 128,-1,5
 215 686 215 686 215 670 c 0,6,7
 215 663 215 663 213 656 c 128,-1,8
 211 649 211 649 204 643 c 2,9,-1
 123 572 l 1,10,-1
 53 572 l 1,0,-1
199 572 m 1,11,-1
 295 695 l 2,12,13
 305 708 305 708 323 708 c 0,14,15
 338 708 338 708 349.5 696.5 c 128,-1,16
 361 685 361 685 361 670 c 0,17,18
 361 663 361 663 359 656 c 128,-1,19
 357 649 357 649 350 643 c 2,20,-1
 269 572 l 1,21,-1
 199 572 l 1,11,-1
EndSplineSet
EndChar

StartChar: tilde
Encoding: 299 732 171
Width: 435
GlyphClass: 1
Flags: W
HStem: 575 63<226.562 321.285> 618 63<123.685 216.92>
VStem: 53 65<577 612.883>
LayerCount: 2
Fore
SplineSet
285 575 m 0,0,1
 269 575 269 575 253 580.5 c 128,-1,2
 237 586 237 586 217 596 c 0,3,4
 202 604 202 604 188.5 611 c 128,-1,5
 175 618 175 618 160 618 c 0,6,7
 123 618 123 618 118 577 c 1,8,-1
 53 577 l 1,9,10
 62 630 62 630 90.5 655.5 c 128,-1,11
 119 681 119 681 159 681 c 0,12,13
 187 681 187 681 207 670.5 c 128,-1,14
 227 660 227 660 244.5 649 c 128,-1,15
 262 638 262 638 283 638 c 0,16,17
 298 638 298 638 306.5 644 c 128,-1,18
 315 650 315 650 322 661 c 0,19,20
 328 672 328 672 336 676 c 128,-1,21
 344 680 344 680 351 680 c 0,22,23
 365 680 365 680 373.5 670.5 c 128,-1,24
 382 661 382 661 382 649 c 0,25,26
 382 634 382 634 369 617 c 128,-1,27
 356 600 356 600 334 587.5 c 128,-1,28
 312 575 312 575 285 575 c 0,0,1
EndSplineSet
EndChar

StartChar: endash
Encoding: 300 8211 172
Width: 480
GlyphClass: 1
InSpiro: 1
Flags: W
HStem: 208 79<41 439>
LayerCount: 2
Fore
SplineSet
41 208 m 1,0,-1
 41 287 l 1,1,-1
 439 287 l 1,2,-1
 439 208 l 1,3,-1
 41 208 l 1,0,-1
  Spiro
    41 208 v
    41 287 v
    439 287 v
    439 208 v
    0 0 z
  EndSpiro
EndSplineSet
EndChar

StartChar: emdash
Encoding: 301 8212 173
Width: 800
GlyphClass: 1
Flags: W
HStem: 208 79<41 759>
LayerCount: 2
Fore
SplineSet
41 208 m 1,0,-1
 41 287 l 1,1,-1
 759 287 l 1,2,-1
 759 208 l 1,3,-1
 41 208 l 1,0,-1
EndSplineSet
EndChar

StartChar: trademark
Encoding: 302 8482 174
Width: 848
GlyphClass: 1
Flags: W
HStem: 608 60<53 171 238 356>
VStem: 171 67<292 608> 393 67<292 571> 728 67<292 571>
LayerCount: 2
Fore
SplineSet
393 292 m 1,0,-1
 393 668 l 1,1,-1
 501 668 l 1,2,-1
 594 384 l 1,3,-1
 687 668 l 1,4,-1
 795 668 l 1,5,-1
 795 292 l 1,6,-1
 728 292 l 1,7,-1
 728 571 l 1,8,-1
 630 292 l 1,9,-1
 558 292 l 1,10,-1
 460 571 l 1,11,-1
 460 292 l 1,12,-1
 393 292 l 1,0,-1
171 292 m 1,13,-1
 171 608 l 1,14,-1
 53 608 l 1,15,-1
 53 668 l 1,16,-1
 356 668 l 1,17,-1
 356 608 l 1,18,-1
 238 608 l 1,19,-1
 238 292 l 1,20,-1
 171 292 l 1,13,-1
EndSplineSet
EndChar

StartChar: uni2113
Encoding: 303 8467 175
Width: 450
GlyphClass: 1
Flags: W
HStem: -12 73<219.566 336.327> 610 70<216.522 298.769>
VStem: 53 151<138 227> 119 85<78.0117 188 344 589.882> 312 82<440.374 595.59>
LayerCount: 2
Fore
SplineSet
261 -12 m 0,0,1
 185 -12 185 -12 152 28 c 128,-1,2
 119 68 119 68 119 156 c 2,3,-1
 119 188 l 1,4,-1
 53 138 l 1,5,-1
 53 227 l 1,6,-1
 119 278 l 1,7,-1
 119 507 l 2,8,9
 119 589 119 589 152.5 634.5 c 128,-1,10
 186 680 186 680 264 680 c 0,11,12
 327 680 327 680 360.5 640 c 128,-1,13
 394 600 394 600 394 538 c 0,14,15
 394 479 394 479 372 431 c 128,-1,16
 350 383 350 383 308 340 c 128,-1,17
 266 297 266 297 204 251 c 1,18,-1
 204 151 l 2,19,20
 204 96 204 96 223.5 78.5 c 128,-1,21
 243 61 243 61 271 61 c 0,22,23
 297 61 297 61 319 72.5 c 128,-1,24
 341 84 341 84 360 100 c 1,25,-1
 397 42 l 1,26,27
 374 21 374 21 338.5 4.5 c 128,-1,28
 303 -12 303 -12 261 -12 c 0,0,1
204 344 m 1,29,30
 260 383 260 383 286 431.5 c 128,-1,31
 312 480 312 480 312 535 c 0,32,33
 312 575 312 575 297.5 592.5 c 128,-1,34
 283 610 283 610 259 610 c 0,35,36
 230 610 230 610 217 590.5 c 128,-1,37
 204 571 204 571 204 518 c 2,38,-1
 204 344 l 1,29,30
EndSplineSet
EndChar

StartChar: Lslash
Encoding: 304 321 176
Width: 573
GlyphClass: 1
Flags: W
HStem: 0 81<204 563> 485 20G<350.667 384> 649 20G<110 204>
VStem: 110 94<81 270 397 669>
LayerCount: 2
Fore
SplineSet
110 0 m 1,0,-1
 110 270 l 1,1,-1
 20 216 l 1,2,-1
 20 287 l 1,3,-1
 110 340 l 1,4,-1
 110 669 l 1,5,-1
 204 669 l 1,6,-1
 204 397 l 1,7,-1
 384 505 l 1,8,-1
 384 434 l 1,9,-1
 204 326 l 1,10,-1
 204 81 l 1,11,-1
 563 81 l 1,12,-1
 563 0 l 1,13,-1
 110 0 l 1,0,-1
EndSplineSet
EndChar

StartChar: lslash
Encoding: 305 322 177
Width: 237
GlyphClass: 1
Flags: W
HStem: 0 74<160.257 222> 648 20G<68 152>
VStem: 68 154<25.2817 74 365 394> 68 84<87.4126 273 394 668>
LayerCount: 2
Fore
SplineSet
186 0 m 2,0,1
 138 0 138 0 112.5 10 c 128,-1,2
 87 20 87 20 77.5 46.5 c 128,-1,3
 68 73 68 73 68 124 c 2,4,-1
 68 273 l 1,5,-1
 15 242 l 1,6,-1
 15 312 l 1,7,-1
 68 344 l 1,8,-1
 68 668 l 1,9,-1
 152 668 l 1,10,-1
 152 394 l 1,11,-1
 222 436 l 1,12,-1
 222 365 l 1,13,-1
 152 323 l 1,14,-1
 152 139 l 2,15,16
 152 100 152 100 160 87 c 128,-1,17
 168 74 168 74 204 74 c 2,18,-1
 222 74 l 1,19,-1
 222 0 l 1,20,-1
 186 0 l 2,0,1
EndSplineSet
EndChar

StartChar: oslash
Encoding: 248 248 178
Width: 552
GlyphClass: 1
Flags: W
HStem: -12 74<201.511 349.349> 430 74<202.65 351.173>
VStem: 38 89<146.356 349.349> 424 90<142.02 349.653>
LayerCount: 2
Fore
SplineSet
276 -12 m 0,0,1
 236 -12 236 -12 196.5 0.5 c 128,-1,2
 157 13 157 13 125 40 c 1,3,-1
 83 -9 l 1,4,-1
 45 24 l 1,5,-1
 89 77 l 1,6,7
 66 108 66 108 52 150 c 128,-1,8
 38 192 38 192 38 246 c 0,9,10
 38 313 38 313 58.5 362 c 128,-1,11
 79 411 79 411 113.5 442.5 c 128,-1,12
 148 474 148 474 190.5 489 c 128,-1,13
 233 504 233 504 276 504 c 0,14,15
 313 504 313 504 349 493.5 c 128,-1,16
 385 483 385 483 416 460 c 1,17,-1
 457 507 l 1,18,-1
 495 474 l 1,19,-1
 454 425 l 1,20,21
 481 394 481 394 497.5 349.5 c 128,-1,22
 514 305 514 305 514 246 c 0,23,24
 514 179 514 179 493.5 130 c 128,-1,25
 473 81 473 81 438.5 49.5 c 128,-1,26
 404 18 404 18 361.5 3 c 128,-1,27
 319 -12 319 -12 276 -12 c 0,0,1
148 146 m 1,28,-1
 364 398 l 1,29,30
 345 415 345 415 322 422.5 c 128,-1,31
 299 430 299 430 276 430 c 0,32,33
 240 430 240 430 206 410.5 c 128,-1,34
 172 391 172 391 149.5 350.5 c 128,-1,35
 127 310 127 310 127 246 c 0,36,37
 127 216 127 216 132.5 191 c 128,-1,38
 138 166 138 166 148 146 c 1,28,-1
276 62 m 0,39,40
 312 62 312 62 346 81.5 c 128,-1,41
 380 101 380 101 402 141.5 c 128,-1,42
 424 182 424 182 424 246 c 0,43,44
 424 281 424 281 417 309 c 128,-1,45
 410 337 410 337 397 359 c 1,46,-1
 178 103 l 1,47,48
 199 82 199 82 224.5 72 c 128,-1,49
 250 62 250 62 276 62 c 0,39,40
EndSplineSet
EndChar

StartChar: Oslash
Encoding: 216 216 179
Width: 727
GlyphClass: 1
Flags: W
HStem: -12 79<268.78 455.999> 599 81<270.069 458.095> 653 20G<599.175 640.375>
VStem: 50 96<206.11 461.546> 581 96<205.819 459.715>
LayerCount: 2
Fore
SplineSet
363 -12 m 0,0,1
 302 -12 302 -12 250.5 7 c 128,-1,2
 199 26 199 26 160 60 c 1,3,-1
 103 -6 l 1,4,-1
 65 27 l 1,5,-1
 125 97 l 1,6,7
 89 142 89 142 69.5 202.5 c 128,-1,8
 50 263 50 263 50 333 c 0,9,10
 50 434 50 434 88.5 512.5 c 128,-1,11
 127 591 127 591 197 635.5 c 128,-1,12
 267 680 267 680 363 680 c 0,13,14
 423 680 423 680 473.5 662 c 128,-1,15
 524 644 524 644 563 610 c 1,16,-1
 616 673 l 1,17,-1
 655 641 l 1,18,-1
 599 574 l 1,19,20
 637 528 637 528 657 467 c 128,-1,21
 677 406 677 406 677 333 c 0,22,23
 677 233 677 233 638.5 155 c 128,-1,24
 600 77 600 77 530 32.5 c 128,-1,25
 460 -12 460 -12 363 -12 c 0,0,1
186 169 m 1,26,-1
 506 543 l 1,27,28
 448 599 448 599 363 599 c 0,29,30
 303 599 303 599 253.5 568.5 c 128,-1,31
 204 538 204 538 175 479 c 128,-1,32
 146 420 146 420 146 333 c 0,33,34
 146 234 146 234 186 169 c 1,26,-1
363 67 m 0,35,36
 424 67 424 67 473.5 98 c 128,-1,37
 523 129 523 129 552 188.5 c 128,-1,38
 581 248 581 248 581 333 c 0,39,40
 581 386 581 386 569.5 428.5 c 128,-1,41
 558 471 558 471 538 503 c 1,42,-1
 217 127 l 1,43,44
 275 67 275 67 363 67 c 0,35,36
EndSplineSet
EndChar

StartChar: Thorn
Encoding: 222 222 180
Width: 576
GlyphClass: 1
Flags: W
HStem: 0 21G<76 160> 163 81<160 408.565> 447 81<160 404.931> 648 20G<76 160>
VStem: 76 84<0 163 244 447 528 668> 441 97<276.568 411.864>
LayerCount: 2
Fore
SplineSet
76 0 m 1,0,-1
 76 668 l 1,1,-1
 160 668 l 1,2,-1
 160 528 l 1,3,-1
 287 528 l 2,4,5
 361 528 361 528 417.5 513.5 c 128,-1,6
 474 499 474 499 506 459.5 c 128,-1,7
 538 420 538 420 538 345 c 256,8,9
 538 270 538 270 506 231 c 128,-1,10
 474 192 474 192 417.5 177.5 c 128,-1,11
 361 163 361 163 287 163 c 2,12,-1
 160 163 l 1,13,-1
 160 0 l 1,14,-1
 76 0 l 1,0,-1
160 244 m 1,15,-1
 296 244 l 2,16,17
 337 244 337 244 369.5 250 c 128,-1,18
 402 256 402 256 421.5 277 c 128,-1,19
 441 298 441 298 441 344 c 256,20,21
 441 390 441 390 421.5 411.5 c 128,-1,22
 402 433 402 433 369.5 440 c 128,-1,23
 337 447 337 447 296 447 c 2,24,-1
 160 447 l 1,25,-1
 160 244 l 1,15,-1
EndSplineSet
EndChar

StartChar: ae
Encoding: 230 230 181
Width: 874
GlyphClass: 1
Flags: W
HStem: -12 74<536.176 701.421> -12 66<157.316 319.539> 225 67<195.944 373 465 757> 436 68<186.112 334.852 536.109 684.508>
VStem: 38 93<79.6725 180.483> 373 92<292 368.04> 380 83<137.639 225> 757 88<292 363.93>
LayerCount: 2
Fore
SplineSet
209 -12 m 0,0,1
 162 -12 162 -12 123 5 c 128,-1,2
 84 22 84 22 61 54 c 128,-1,3
 38 86 38 86 38 131 c 0,4,5
 38 191 38 191 82.5 226 c 128,-1,6
 127 261 127 261 203 276.5 c 128,-1,7
 279 292 279 292 373 292 c 1,8,-1
 373 319 l 2,9,10
 373 342 373 342 365.5 369 c 128,-1,11
 358 396 358 396 334.5 416 c 128,-1,12
 311 436 311 436 261 436 c 0,13,14
 216 436 216 436 187.5 415.5 c 128,-1,15
 159 395 159 395 151 359 c 1,16,-1
 70 383 l 1,17,18
 91 442 91 442 145 473 c 128,-1,19
 199 504 199 504 260 504 c 0,20,21
 390 504 390 504 433 424 c 1,22,23
 466 462 466 462 512.5 483 c 128,-1,24
 559 504 559 504 614 504 c 0,25,26
 674 504 674 504 718.5 480.5 c 128,-1,27
 763 457 763 457 792.5 417.5 c 128,-1,28
 822 378 822 378 835.5 328 c 128,-1,29
 849 278 849 278 845 225 c 1,30,-1
 463 225 l 1,31,32
 466 163 466 163 491 127 c 128,-1,33
 516 91 516 91 551 76.5 c 128,-1,34
 586 62 586 62 617 62 c 0,35,36
 658 62 658 62 686.5 75.5 c 128,-1,37
 715 89 715 89 733 111 c 1,38,-1
 814 87 l 1,39,40
 786 44 786 44 736 16 c 128,-1,41
 686 -12 686 -12 617 -12 c 256,42,43
 548 -12 548 -12 497.5 15 c 128,-1,44
 447 42 447 42 417 88 c 1,45,46
 392 45 392 45 340 16.5 c 128,-1,47
 288 -12 288 -12 209 -12 c 0,0,1
465 292 m 1,48,-1
 757 292 l 1,49,50
 756 327 756 327 738.5 359 c 128,-1,51
 721 391 721 391 689.5 411.5 c 128,-1,52
 658 432 658 432 614 432 c 0,53,54
 577 432 577 432 544 418 c 128,-1,55
 511 404 511 404 490 373 c 128,-1,56
 469 342 469 342 465 292 c 1,48,-1
227 54 m 0,57,58
 307 54 307 54 343.5 95 c 128,-1,59
 380 136 380 136 380 209 c 2,60,-1
 380 225 l 1,61,62
 266 225 266 225 198.5 204.5 c 128,-1,63
 131 184 131 184 131 133 c 0,64,65
 131 98 131 98 156.5 76 c 128,-1,66
 182 54 182 54 227 54 c 0,57,58
EndSplineSet
EndChar

StartChar: eth
Encoding: 240 240 182
Width: 567
GlyphClass: 1
Flags: W
HStem: -12 71<193.221 353.974> 371 74<193.404 353.669> 602 77<175 304.379>
VStem: 38 90<127.166 302.577> 419 98<147.267 383.414>
LayerCount: 2
Fore
SplineSet
273 -12 m 256,0,1
 202 -12 202 -12 149 19.5 c 128,-1,2
 96 51 96 51 67 103.5 c 128,-1,3
 38 156 38 156 38 218 c 0,4,5
 38 285 38 285 66 336 c 128,-1,6
 94 387 94 387 143 416 c 128,-1,7
 192 445 192 445 254 445 c 0,8,9
 320 445 320 445 363.5 418.5 c 128,-1,10
 407 392 407 392 430 352 c 1,11,12
 426 421 426 421 407 468.5 c 128,-1,13
 388 516 388 516 356 547 c 1,14,-1
 283 474 l 1,15,-1
 247 510 l 1,16,-1
 313 576 l 1,17,18
 286 590 286 590 251.5 596 c 128,-1,19
 217 602 217 602 175 602 c 1,20,-1
 175 679 l 1,21,22
 231 679 231 679 280.5 669 c 128,-1,23
 330 659 330 659 371 634 c 1,24,-1
 417 680 l 1,25,-1
 453 644 l 1,26,-1
 413 604 l 1,27,28
 449 572 449 572 472 524 c 128,-1,29
 495 476 495 476 506 419 c 128,-1,30
 517 362 517 362 517 303 c 0,31,32
 517 243 517 243 505.5 186.5 c 128,-1,33
 494 130 494 130 466.5 85 c 128,-1,34
 439 40 439 40 391.5 14 c 128,-1,35
 344 -12 344 -12 273 -12 c 256,0,1
273 59 m 0,36,37
 340 59 340 59 379.5 102.5 c 128,-1,38
 419 146 419 146 419 215 c 256,39,40
 419 284 419 284 379.5 327.5 c 128,-1,41
 340 371 340 371 273 371 c 0,42,43
 207 371 207 371 167.5 327.5 c 128,-1,44
 128 284 128 284 128 215 c 256,45,46
 128 146 128 146 167.5 102.5 c 128,-1,47
 207 59 207 59 273 59 c 0,36,37
EndSplineSet
EndChar

StartChar: thorn
Encoding: 254 254 183
Width: 566
GlyphClass: 1
Flags: W
HStem: -161 21G<70 154> -12 72<221.127 366.294> 433 72<221.127 366.294> 649 20G<70 154>
VStem: 70 84<-161 75 132.304 360.648 418 669> 434 94<135.694 356.578>
LayerCount: 2
Fore
SplineSet
70 -161 m 1,0,-1
 70 669 l 1,1,-1
 154 669 l 1,2,-1
 154 418 l 1,3,4
 177 457 177 457 217 481 c 128,-1,5
 257 505 257 505 315 505 c 0,6,7
 372 505 372 505 420.5 474.5 c 128,-1,8
 469 444 469 444 498.5 386.5 c 128,-1,9
 528 329 528 329 528 246 c 0,10,11
 528 165 528 165 498.5 107 c 128,-1,12
 469 49 469 49 420.5 18.5 c 128,-1,13
 372 -12 372 -12 315 -12 c 0,14,15
 257 -12 257 -12 217 12 c 128,-1,16
 177 36 177 36 154 75 c 1,17,-1
 154 -161 l 1,18,-1
 70 -161 l 1,0,-1
293 60 m 256,19,20
 357 60 357 60 395.5 109 c 128,-1,21
 434 158 434 158 434 246 c 0,22,23
 434 335 434 335 395.5 384 c 128,-1,24
 357 433 357 433 293 433 c 256,25,26
 229 433 229 433 190.5 384 c 128,-1,27
 152 335 152 335 152 246 c 0,28,29
 152 158 152 158 190.5 109 c 128,-1,30
 229 60 229 60 293 60 c 256,19,20
EndSplineSet
EndChar

StartChar: multiply
Encoding: 215 215 184
Width: 528
GlyphClass: 1
Flags: W
LayerCount: 2
Fore
SplineSet
110 39 m 1,0,-1
 53 97 l 1,1,-1
 207 250 l 1,2,-1
 53 404 l 1,3,-1
 110 462 l 1,4,-1
 264 308 l 1,5,-1
 418 462 l 1,6,-1
 475 404 l 1,7,-1
 322 250 l 1,8,-1
 475 97 l 1,9,-1
 418 39 l 1,10,-1
 264 193 l 1,11,-1
 110 39 l 1,0,-1
EndSplineSet
EndChar

StartChar: divide
Encoding: 247 247 185
Width: 602
GlyphClass: 1
Flags: W
HStem: 14 129<255.596 345.92> 208 81<53 549> 354 129<255.596 345.92>
VStem: 236 129<33.5957 123.405 373.08 463.404>
CounterMasks: 1 e0
LayerCount: 2
Fore
SplineSet
301 354 m 256,0,1
 274 354 274 354 255 372.5 c 128,-1,2
 236 391 236 391 236 418 c 256,3,4
 236 445 236 445 255 464 c 128,-1,5
 274 483 274 483 301 483 c 256,6,7
 328 483 328 483 346.5 464 c 128,-1,8
 365 445 365 445 365 418 c 256,9,10
 365 391 365 391 346.5 372.5 c 128,-1,11
 328 354 328 354 301 354 c 256,0,1
53 208 m 1,12,-1
 53 289 l 1,13,-1
 549 289 l 1,14,-1
 549 208 l 1,15,-1
 53 208 l 1,12,-1
301 14 m 256,16,17
 274 14 274 14 255 33 c 128,-1,18
 236 52 236 52 236 79 c 0,19,20
 236 105 236 105 255 124 c 128,-1,21
 274 143 274 143 301 143 c 256,22,23
 328 143 328 143 346.5 124 c 128,-1,24
 365 105 365 105 365 79 c 0,25,26
 365 52 365 52 346.5 33 c 128,-1,27
 328 14 328 14 301 14 c 256,16,17
EndSplineSet
EndChar

StartChar: OE
Encoding: 306 338 186
Width: 1052
GlyphClass: 1
Flags: W
HStem: -12 81<270.069 457.231> 0 81<655 1014> 304 81<655 920> 588 81<655 1014> 602 78<270.069 455.643>
VStem: 50 96<206.759 463.946> 581 74<205.147 304 385 465.685>
LayerCount: 2
Fore
SplineSet
363 -12 m 0,0,1
 267 -12 267 -12 197 32.5 c 128,-1,2
 127 77 127 77 88.5 155.5 c 128,-1,3
 50 234 50 234 50 335 c 0,4,5
 50 437 50 437 88.5 514.5 c 128,-1,6
 127 592 127 592 197 636 c 128,-1,7
 267 680 267 680 363 680 c 0,8,9
 431 680 431 680 486 658 c 128,-1,10
 541 636 541 636 581 597 c 1,11,-1
 581 669 l 1,12,-1
 1014 669 l 1,13,-1
 1014 588 l 1,14,-1
 655 588 l 1,15,-1
 655 385 l 1,16,-1
 920 385 l 1,17,-1
 920 304 l 1,18,-1
 655 304 l 1,19,-1
 655 81 l 1,20,-1
 1014 81 l 1,21,-1
 1014 0 l 1,22,-1
 581 0 l 1,23,-1
 581 75 l 1,24,25
 541 34 541 34 486 11 c 128,-1,26
 431 -12 431 -12 363 -12 c 0,0,1
363 69 m 256,27,28
 423 69 423 69 472.5 99 c 128,-1,29
 522 129 522 129 551.5 188 c 128,-1,30
 581 247 581 247 581 334 c 0,31,32
 581 428 581 428 549.5 487 c 128,-1,33
 518 546 518 546 468 574 c 128,-1,34
 418 602 418 602 363 602 c 0,35,36
 303 602 303 602 253.5 571.5 c 128,-1,37
 204 541 204 541 175 481.5 c 128,-1,38
 146 422 146 422 146 335 c 0,39,40
 146 249 146 249 175 189.5 c 128,-1,41
 204 130 204 130 253.5 99.5 c 128,-1,42
 303 69 303 69 363 69 c 256,27,28
EndSplineSet
EndChar

StartChar: oe
Encoding: 307 339 187
Width: 927
GlyphClass: 1
Flags: W
HStem: -12 74<202.65 349.469 589.1 753.884> 225 67<517 809> 431 74<202.65 349.082 579.607 747.448>
VStem: 38 89<142.651 350.149> 424 92<142.698 225 292 350.611> 809 89<292 363.955>
LayerCount: 2
Fore
SplineSet
276 -12 m 0,0,1
 233 -12 233 -12 190.5 3 c 128,-1,2
 148 18 148 18 113.5 49.5 c 128,-1,3
 79 81 79 81 58.5 130 c 128,-1,4
 38 179 38 179 38 246 c 0,5,6
 38 314 38 314 58.5 362.5 c 128,-1,7
 79 411 79 411 113.5 443 c 128,-1,8
 148 475 148 475 190.5 490 c 128,-1,9
 233 505 233 505 276 505 c 0,10,11
 331 505 331 505 384 480.5 c 128,-1,12
 437 456 437 456 471 404 c 1,13,14
 503 452 503 452 554 478.5 c 128,-1,15
 605 505 605 505 666 505 c 0,16,17
 726 505 726 505 771 481.5 c 128,-1,18
 816 458 816 458 845.5 418 c 128,-1,19
 875 378 875 378 888.5 328 c 128,-1,20
 902 278 902 278 898 225 c 1,21,-1
 516 225 l 1,22,23
 518 163 518 163 543.5 127 c 128,-1,24
 569 91 569 91 604 76.5 c 128,-1,25
 639 62 639 62 669 62 c 0,26,27
 711 62 711 62 739 75.5 c 128,-1,28
 767 89 767 89 785 111 c 1,29,-1
 866 87 l 1,30,31
 838 44 838 44 788.5 16 c 128,-1,32
 739 -12 739 -12 669 -12 c 0,33,34
 601 -12 601 -12 550.5 15 c 128,-1,35
 500 42 500 42 470 88 c 1,36,37
 436 37 436 37 383 12.5 c 128,-1,38
 330 -12 330 -12 276 -12 c 0,0,1
517 292 m 1,39,-1
 809 292 l 1,40,41
 808 328 808 328 791 360 c 128,-1,42
 774 392 774 392 742.5 412.5 c 128,-1,43
 711 433 711 433 666 433 c 0,44,45
 629 433 629 433 596.5 418.5 c 128,-1,46
 564 404 564 404 542.5 373 c 128,-1,47
 521 342 521 342 517 292 c 1,39,-1
276 62 m 256,48,49
 312 62 312 62 346 81.5 c 128,-1,50
 380 101 380 101 402 141.5 c 128,-1,51
 424 182 424 182 424 246 c 0,52,53
 424 311 424 311 402 351.5 c 128,-1,54
 380 392 380 392 346 411.5 c 128,-1,55
 312 431 312 431 276 431 c 256,56,57
 240 431 240 431 206 411.5 c 128,-1,58
 172 392 172 392 149.5 351.5 c 128,-1,59
 127 311 127 311 127 246 c 0,60,61
 127 182 127 182 149.5 141.5 c 128,-1,62
 172 101 172 101 206 81.5 c 128,-1,63
 240 62 240 62 276 62 c 256,48,49
EndSplineSet
EndChar

StartChar: Eth
Encoding: 208 208 248
Width: 712
GlyphClass: 2
Flags: W
HStem: 0 79<209 441.419> 303 80<20 115 209 349> 589 79<209 441.419>
VStem: 115 94<79 303 383 589> 566 96<199.956 469.077>
AnchorPoint: "Anchor-1" 376 0 basechar 0
AnchorPoint: "Anchor-0" 366 668 basechar 0
LayerCount: 2
Fore
SplineSet
115 0 m 1,0,-1
 115 303 l 1,1,-1
 20 303 l 1,2,-1
 20 383 l 1,3,-1
 115 383 l 1,4,-1
 115 668 l 1,5,-1
 297 668 l 2,6,7
 377 668 377 668 443.5 651.5 c 128,-1,8
 510 635 510 635 559 597 c 128,-1,9
 608 559 608 559 635 494.5 c 128,-1,10
 662 430 662 430 662 335 c 0,11,12
 662 239 662 239 635 174.5 c 128,-1,13
 608 110 608 110 559 71.5 c 128,-1,14
 510 33 510 33 443.5 16.5 c 128,-1,15
 377 0 377 0 297 0 c 2,16,-1
 115 0 l 1,0,-1
209 79 m 1,17,-1
 295 79 l 2,18,19
 347 79 347 79 395.5 87.5 c 128,-1,20
 444 96 444 96 482.5 121.5 c 128,-1,21
 521 147 521 147 543.5 198.5 c 128,-1,22
 566 250 566 250 566 335 c 256,23,24
 566 420 566 420 543.5 470.5 c 128,-1,25
 521 521 521 521 482.5 546.5 c 128,-1,26
 444 572 444 572 395.5 580.5 c 128,-1,27
 347 589 347 589 295 589 c 2,28,-1
 209 589 l 1,29,-1
 209 383 l 1,30,-1
 349 383 l 1,31,-1
 349 303 l 1,32,-1
 209 303 l 1,33,-1
 209 79 l 1,17,-1
EndSplineSet
EndChar

StartChar: one.tf
Encoding: 316 -1 250
Width: 639
GlyphClass: 1
Flags: W
HStem: 0 77<109 287 370 530> 504 67<109 246.222> 648 20G<307 370>
VStem: 287 83<77 504> 314 56<627.278 668>
LayerCount: 2
Fore
SplineSet
109 0 m 1,0,-1
 109 77 l 1,1,-1
 287 77 l 1,2,-1
 287 504 l 1,3,-1
 109 504 l 1,4,-1
 109 571 l 1,5,6
 157 571 157 571 198 578 c 128,-1,7
 239 585 239 585 269.5 606 c 128,-1,8
 300 627 300 627 314 668 c 1,9,-1
 370 668 l 1,10,-1
 370 77 l 1,11,-1
 530 77 l 1,12,-1
 530 0 l 1,13,-1
 109 0 l 1,0,-1
EndSplineSet
Substitution2: "'pnum' Proportional Numbers lookup 13 subtable" one
Substitution2: "'aalt' Access All Alternates lookup 0 subtable" one
EndChar

StartChar: eogonek
Encoding: 334 281 268
Width: 539
GlyphClass: 2
Flags: W
HStem: -173 58<333.866 410.313> -12 74<202.865 284> 225 67<129 421> 432 72<193.941 356.518>
VStem: 38 90<136.406 225 292 362.849> 254 70<-106.624 -22.4028> 421 89<292 363.93>
AnchorPoint: "Anchor-2" 365 0 basechar 0
AnchorPoint: "Anchor-1" 270 0 basechar 0
AnchorPoint: "Anchor-0" 281 496 basechar 0
LayerCount: 2
Fore
SplineSet
281 -12 m 2,0,1
 203 -12 203 -12 149 22.5 c 128,-1,2
 95 57 95 57 66.5 115.5 c 128,-1,3
 38 174 38 174 38 247 c 0,4,5
 38 326 38 326 70 383.5 c 128,-1,6
 102 441 102 441 156.5 472.5 c 128,-1,7
 211 504 211 504 279 504 c 0,8,9
 338 504 338 504 383 480.5 c 128,-1,10
 428 457 428 457 457.5 417.5 c 128,-1,11
 487 378 487 378 500.5 328 c 128,-1,12
 514 278 514 278 510 225 c 1,13,-1
 128 225 l 1,14,15
 130 163 130 163 155.5 127 c 128,-1,16
 181 91 181 91 216 76.5 c 128,-1,17
 251 62 251 62 281 62 c 0,18,19
 323 62 323 62 351.5 75.5 c 128,-1,20
 380 89 380 89 397 111 c 1,21,-1
 478 87 l 1,22,23
 447 37 447 37 391 11 c 0,24,25
 359 -7 359 -7 341.5 -27 c 128,-1,26
 324 -47 324 -47 324 -70 c 0,27,28
 324 -94 324 -94 338 -104.5 c 128,-1,29
 352 -115 352 -115 373 -115 c 0,30,31
 382 -115 382 -115 391.5 -113 c 128,-1,32
 401 -111 401 -111 411 -107 c 1,33,-1
 411 -161 l 1,34,35
 377 -173 377 -173 348 -173 c 0,36,37
 303 -173 303 -173 278.5 -147.5 c 128,-1,38
 254 -122 254 -122 254 -85 c 0,39,40
 254 -63 254 -63 262.5 -44.5 c 128,-1,41
 271 -26 271 -26 284 -12 c 1,42,-1
 281 -12 l 2,0,1
129 292 m 1,43,-1
 421 292 l 1,44,45
 421 327 421 327 403.5 359 c 128,-1,46
 386 391 386 391 354.5 411.5 c 128,-1,47
 323 432 323 432 279 432 c 0,48,49
 242 432 242 432 209 418 c 128,-1,50
 176 404 176 404 154.5 373 c 128,-1,51
 133 342 133 342 129 292 c 1,43,-1
EndSplineSet
EndChar

StartChar: uogonek
Encoding: 356 371 290
Width: 536
GlyphClass: 1
Flags: W
HStem: -173 58<388.236 465.313> -12 74<187.971 321.348> 477 20G<68 152 382 466>
VStem: 68 84<98.6876 497> 309 70<-107.034 -33.9099> 382 84<121.907 497>
LayerCount: 2
Fore
SplineSet
227 -12 m 0,0,1
 169 -12 169 -12 134 12.5 c 128,-1,2
 99 37 99 37 83.5 80.5 c 128,-1,3
 68 124 68 124 68 180 c 2,4,-1
 68 497 l 1,5,-1
 152 497 l 1,6,-1
 152 205 l 2,7,8
 152 167 152 167 159 134 c 128,-1,9
 166 101 166 101 188.5 81.5 c 128,-1,10
 211 62 211 62 256 62 c 0,11,12
 315 62 315 62 348.5 103.5 c 128,-1,13
 382 145 382 145 382 224 c 2,14,-1
 382 497 l 1,15,-1
 466 497 l 1,16,-1
 466 0 l 1,17,18
 415 -19 415 -19 397 -37.5 c 128,-1,19
 379 -56 379 -56 379 -75 c 0,20,21
 379 -95 379 -95 393 -105 c 128,-1,22
 407 -115 407 -115 428 -115 c 0,23,24
 437 -115 437 -115 446.5 -113 c 128,-1,25
 456 -111 456 -111 466 -107 c 1,26,-1
 466 -161 l 1,27,28
 432 -173 432 -173 403 -173 c 0,29,30
 358 -173 358 -173 333.5 -148 c 128,-1,31
 309 -123 309 -123 309 -91 c 0,32,33
 309 -54 309 -54 333.5 -29 c 128,-1,34
 358 -4 358 -4 402 4 c 1,35,-1
 382 72 l 1,36,37
 361 36 361 36 325 12 c 128,-1,38
 289 -12 289 -12 227 -12 c 0,0,1
EndSplineSet
EndChar

StartChar: Hbar
Encoding: 365 294 299
Width: 710
GlyphClass: 2
Flags: W
HStem: 0 21G<86 180 530 624> 303 81<180 530> 504 77<10 86 180 530 624 700> 648 20G<86 180 530 624>
VStem: 86 94<0 303 384 504 581 668> 530 94<0 303 384 504 581 668>
AnchorPoint: "Anchor-1" 355 0 basechar 0
AnchorPoint: "Anchor-0" 355 668 basechar 0
LayerCount: 2
Fore
SplineSet
86 0 m 1,0,-1
 86 504 l 1,1,-1
 10 504 l 1,2,-1
 10 581 l 1,3,-1
 86 581 l 1,4,-1
 86 668 l 1,5,-1
 180 668 l 1,6,-1
 180 581 l 1,7,-1
 530 581 l 1,8,-1
 530 668 l 1,9,-1
 624 668 l 1,10,-1
 624 581 l 1,11,-1
 700 581 l 1,12,-1
 700 504 l 1,13,-1
 624 504 l 1,14,-1
 624 0 l 1,15,-1
 530 0 l 1,16,-1
 530 303 l 1,17,-1
 180 303 l 1,18,-1
 180 0 l 1,19,-1
 86 0 l 1,0,-1
180 384 m 1,20,-1
 530 384 l 1,21,-1
 530 504 l 1,22,-1
 180 504 l 1,23,-1
 180 384 l 1,20,-1
EndSplineSet
EndChar

StartChar: hbar
Encoding: 366 295 300
Width: 581
GlyphClass: 1
Flags: W
HStem: 0 21G<105 189 429 513> 432 72<252.066 391.916> 548 67<20 105 189 349> 648 20G<105 189>
VStem: 105 84<0 370.501 421 548 615 668> 429 84<0 393.016>
LayerCount: 2
Fore
SplineSet
105 0 m 1,0,-1
 105 548 l 1,1,-1
 20 548 l 1,2,-1
 20 615 l 1,3,-1
 105 615 l 1,4,-1
 105 668 l 1,5,-1
 189 668 l 1,6,-1
 189 615 l 1,7,-1
 349 615 l 1,8,-1
 349 548 l 1,9,-1
 189 548 l 1,10,-1
 189 421 l 1,11,12
 210 456 210 456 248 480 c 128,-1,13
 286 504 286 504 349 504 c 0,14,15
 439 504 439 504 476 451.5 c 128,-1,16
 513 399 513 399 513 314 c 2,17,-1
 513 0 l 1,18,-1
 429 0 l 1,19,-1
 429 289 l 2,20,21
 429 327 429 327 422 359.5 c 128,-1,22
 415 392 415 392 391.5 412 c 128,-1,23
 368 432 368 432 320 432 c 0,24,25
 259 432 259 432 224 390.5 c 128,-1,26
 189 349 189 349 189 269 c 2,27,-1
 189 0 l 1,28,-1
 105 0 l 1,0,-1
EndSplineSet
EndChar

StartChar: dcroat
Encoding: 385 273 319
Width: 603
GlyphClass: 1
Flags: W
HStem: -12 72<200.01 346.113> 0 21G<428.133 513> 432 72<198.452 346.113> 548 67<249 412 496 578> 648 20G<412 496>
VStem: 38 94<136.359 356.96> 412 84<132.304 360.343 418 548 615 668>
LayerCount: 2
Fore
SplineSet
251 -12 m 0,0,1
 195 -12 195 -12 146 18.5 c 128,-1,2
 97 49 97 49 67.5 106.5 c 128,-1,3
 38 164 38 164 38 246 c 256,4,5
 38 328 38 328 67.5 385.5 c 128,-1,6
 97 443 97 443 146 473.5 c 128,-1,7
 195 504 195 504 251 504 c 0,8,9
 310 504 310 504 350 480.5 c 128,-1,10
 390 457 390 457 412 418 c 1,11,-1
 412 548 l 1,12,-1
 249 548 l 1,13,-1
 249 615 l 1,14,-1
 412 615 l 1,15,-1
 412 668 l 1,16,-1
 496 668 l 1,17,-1
 496 615 l 1,18,-1
 578 615 l 1,19,-1
 578 548 l 1,20,-1
 496 548 l 1,21,-1
 496 187 l 2,22,23
 496 162 496 162 498 113.5 c 128,-1,24
 500 65 500 65 513 0 c 1,25,-1
 434 0 l 1,26,-1
 412 75 l 1,27,28
 390 35 390 35 350 11.5 c 128,-1,29
 310 -12 310 -12 251 -12 c 0,0,1
273 60 m 256,30,31
 337 60 337 60 375.5 109 c 128,-1,32
 414 158 414 158 414 246 c 0,33,34
 414 335 414 335 375.5 383.5 c 128,-1,35
 337 432 337 432 273 432 c 256,36,37
 209 432 209 432 170.5 383.5 c 128,-1,38
 132 335 132 335 132 246 c 0,39,40
 132 158 132 158 170.5 109 c 128,-1,41
 209 60 209 60 273 60 c 256,30,31
EndSplineSet
EndChar

StartChar: acutecomb
Encoding: 398 769 332
Width: 162
GlyphClass: 4
Flags: W
HStem: 571 136<88.1163 95.7402>
VStem: 0 162
AnchorPoint: "Anchor-4" 81 707 basemark 0
AnchorPoint: "Anchor-4" 47 496 mark 0
AnchorPoint: "Anchor-0" 47 496 mark 0
LayerCount: 2
Fore
SplineSet
0 571 m 1,0,1
 3 575 3 575 15.5 591.5 c 128,-1,2
 28 608 28 608 44 629 c 128,-1,3
 60 650 60 650 74.5 668.5 c 128,-1,4
 89 687 89 687 96 694 c 0,5,6
 106 707 106 707 124 707 c 0,7,8
 140 707 140 707 151 696.5 c 128,-1,9
 162 686 162 686 162 669 c 0,10,11
 162 662 162 662 159.5 655.5 c 128,-1,12
 157 649 157 649 149 641 c 0,13,14
 142 633 142 633 124 617 c 128,-1,15
 106 601 106 601 89.5 587.5 c 128,-1,16
 73 574 73 574 70 571 c 2,17,-1
 0 571 l 1,0,1
EndSplineSet
Validated: 1
Substitution2: "'case' Case-Sensitive Forms lookup 15 subtable" acutecomb.case
Substitution2: "Single Substitution lookup 7 subtable" acutecomb.case
Substitution2: "Single Substitution lookup 6 subtable" acutecomb.case
Substitution2: "Single Substitution lookup 4 subtable" acutecomb.case
Substitution2: "Single Substitution lookup 3 subtable" acutecomb.case
Substitution2: "'aalt' Access All Alternates lookup 0 subtable" acutecomb.case
EndChar

StartChar: acutecomb.case
Encoding: 399 -1 333
Width: 0
GlyphClass: 4
Flags: W
HStem: 744 120
VStem: 0 172
AnchorPoint: "Anchor-4" 86 864 basemark 0
AnchorPoint: "Anchor-4" 58 668 mark 0
AnchorPoint: "Anchor-0" 58 668 mark 0
LayerCount: 2
Fore
SplineSet
0 744 m 1,0,1
 3 747 3 747 17.5 762 c 128,-1,2
 32 777 32 777 50.5 796 c 128,-1,3
 69 815 69 815 85 831 c 128,-1,4
 101 847 101 847 107 852 c 0,5,6
 121 864 121 864 136 864 c 256,7,8
 151 864 151 864 161.5 853.5 c 128,-1,9
 172 843 172 843 172 828 c 0,10,11
 172 809 172 809 156 796 c 0,12,13
 148 789 148 789 129.5 777 c 128,-1,14
 111 765 111 765 95 755.5 c 128,-1,15
 79 746 79 746 76 744 c 2,16,-1
 0 744 l 1,0,1
EndSplineSet
Validated: 1
EndChar

StartChar: uni0306
Encoding: 400 774 334
Width: 294
GlyphClass: 4
Flags: W
HStem: 569 67<90.7835 202.493>
VStem: 0 294
AnchorPoint: "Anchor-4" 147 689 basemark 0
AnchorPoint: "Anchor-4" 147 496 mark 0
AnchorPoint: "Anchor-0" 147 496 mark 0
LayerCount: 2
Fore
SplineSet
147 569 m 0,0,1
 92 569 92 569 51.5 603.5 c 128,-1,2
 11 638 11 638 0 689 c 1,3,-1
 69 689 l 1,4,5
 78 666 78 666 99 651 c 128,-1,6
 120 636 120 636 147 636 c 0,7,8
 173 636 173 636 194 651 c 128,-1,9
 215 666 215 666 225 689 c 1,10,-1
 294 689 l 1,11,12
 284 638 284 638 242.5 603.5 c 128,-1,13
 201 569 201 569 147 569 c 0,0,1
EndSplineSet
Validated: 1
Substitution2: "'case' Case-Sensitive Forms lookup 15 subtable" uni0306.case
Substitution2: "Single Substitution lookup 7 subtable" uni0306.case
Substitution2: "Single Substitution lookup 6 subtable" uni0306.case
Substitution2: "Single Substitution lookup 4 subtable" uni0306.case
Substitution2: "Single Substitution lookup 3 subtable" uni0306.case
Substitution2: "'aalt' Access All Alternates lookup 0 subtable" uni0306.case
EndChar

StartChar: uni030C
Encoding: 402 780 336
Width: 323
GlyphClass: 4
Flags: W
HStem: 569 120
VStem: 0 323
AnchorPoint: "Anchor-4" 162 689 basemark 0
AnchorPoint: "Anchor-4" 162 496 mark 0
AnchorPoint: "Anchor-0" 162 496 mark 0
LayerCount: 2
Fore
SplineSet
162 569 m 0,0,1
 132 569 132 569 112 588 c 2,2,-1
 0 689 l 1,3,-1
 94 689 l 1,4,-1
 161 628 l 1,5,-1
 229 689 l 1,6,-1
 323 689 l 1,7,-1
 211 588 l 2,8,9
 191 569 191 569 162 569 c 0,0,1
EndSplineSet
Validated: 1
Substitution2: "'case' Case-Sensitive Forms lookup 15 subtable" uni030C.case
Substitution2: "Single Substitution lookup 7 subtable" uni030C.case
Substitution2: "Single Substitution lookup 6 subtable" uni030C.case
Substitution2: "Single Substitution lookup 4 subtable" uni030C.case
Substitution2: "Single Substitution lookup 3 subtable" uni030C.case
Substitution2: "'aalt' Access All Alternates lookup 0 subtable" uni030C.case
EndChar

StartChar: uni030C.alt
Encoding: 403 -1 337
Width: 0
GlyphClass: 1
Flags: W
HStem: 495 183<48.8444 69>
LayerCount: 2
Fore
SplineSet
20 495 m 1,0,1
 21 500 21 500 24 520.5 c 128,-1,2
 27 541 27 541 31 567.5 c 128,-1,3
 35 594 35 594 39 617 c 128,-1,4
 43 640 43 640 46 649 c 0,5,6
 48 657 48 657 56.5 667.5 c 128,-1,7
 65 678 65 678 82 678 c 0,8,9
 98 678 98 678 109 667.5 c 128,-1,10
 120 657 120 657 120 640 c 0,11,12
 120 634 120 634 116.5 625 c 128,-1,13
 113 616 113 616 111 609 c 2,14,-1
 69 495 l 1,15,-1
 20 495 l 1,0,1
EndSplineSet
EndChar

StartChar: uni0327
Encoding: 405 807 339
Width: 0
GlyphClass: 4
Flags: W
HStem: -181 41<14.5306 110.106> -81 40<86.123 119.202>
VStem: 123 62<-131.512 -85.7319>
AnchorPoint: "Anchor-3" 93 -181 basemark 0
AnchorPoint: "Anchor-3" 89 0 mark 0
AnchorPoint: "Anchor-1" 89 0 mark 0
LayerCount: 2
Fore
SplineSet
88 -181 m 0,0,1
 69 -181 69 -181 47.5 -176 c 128,-1,2
 26 -171 26 -171 0 -161 c 1,3,-1
 14 -126 l 1,4,5
 31 -133 31 -133 45.5 -136.5 c 128,-1,6
 60 -140 60 -140 72 -140 c 0,7,8
 98 -140 98 -140 110.5 -129 c 128,-1,9
 123 -118 123 -118 123 -106 c 0,10,11
 123 -96 123 -96 114.5 -88.5 c 128,-1,12
 106 -81 106 -81 87 -81 c 0,13,14
 80 -81 80 -81 72.5 -82.5 c 128,-1,15
 65 -84 65 -84 56 -86 c 0,16,17
 43 -90 43 -90 35.5 -83 c 128,-1,18
 28 -76 28 -76 28 -67 c 0,19,20
 28 -61 28 -61 31 -57 c 2,21,-1
 82 25 l 1,22,-1
 116 4 l 1,23,-1
 86 -45 l 1,24,25
 94 -43 94 -43 101.5 -42 c 128,-1,26
 109 -41 109 -41 116 -41 c 0,27,28
 151 -41 151 -41 168 -59.5 c 128,-1,29
 185 -78 185 -78 185 -102 c 0,30,31
 185 -130 185 -130 161 -155.5 c 128,-1,32
 137 -181 137 -181 88 -181 c 0,0,1
EndSplineSet
Validated: 1
EndChar

StartChar: uni0302
Encoding: 406 770 340
Width: 323
GlyphClass: 4
Flags: W
HStem: 575 120
VStem: 0 323
AnchorPoint: "Anchor-4" 162 695 basemark 0
AnchorPoint: "Anchor-4" 162 496 mark 0
AnchorPoint: "Anchor-0" 162 496 mark 0
LayerCount: 2
Fore
SplineSet
0 575 m 1,0,-1
 112 676 l 2,1,2
 132 695 132 695 162 695 c 0,3,4
 191 695 191 695 211 676 c 2,5,-1
 323 575 l 1,6,-1
 229 575 l 1,7,-1
 161 636 l 1,8,-1
 94 575 l 1,9,-1
 0 575 l 1,0,-1
EndSplineSet
Validated: 1
Substitution2: "'case' Case-Sensitive Forms lookup 15 subtable" uni0302.case
Substitution2: "Single Substitution lookup 7 subtable" uni0302.case
Substitution2: "Single Substitution lookup 6 subtable" uni0302.case
Substitution2: "Single Substitution lookup 4 subtable" uni0302.case
Substitution2: "Single Substitution lookup 3 subtable" uni0302.case
Substitution2: "'aalt' Access All Alternates lookup 0 subtable" uni0302.case
EndChar

StartChar: uni0302.case
Encoding: 407 -1 341
Width: 0
GlyphClass: 4
Flags: W
HStem: 747 120
VStem: 0 323
AnchorPoint: "Anchor-4" 162 867 basemark 0
AnchorPoint: "Anchor-4" 162 668 mark 0
AnchorPoint: "Anchor-0" 162 668 mark 0
LayerCount: 2
Fore
SplineSet
0 747 m 1,0,-1
 112 848 l 2,1,2
 132 867 132 867 162 867 c 0,3,4
 191 867 191 867 211 848 c 2,5,-1
 323 747 l 1,6,-1
 229 747 l 1,7,-1
 161 808 l 1,8,-1
 94 747 l 1,9,-1
 0 747 l 1,0,-1
EndSplineSet
Validated: 1
EndChar

StartChar: uni0326
Encoding: 408 806 342
Width: 0
GlyphClass: 4
Flags: W
HStem: -250 194
VStem: 94 66<-194.142 -97.567>
AnchorPoint: "Anchor-3" 80 -250 basemark 0
AnchorPoint: "Anchor-3" 90 0 mark 0
AnchorPoint: "Anchor-1" 90 0 mark 0
LayerCount: 2
Fore
SplineSet
40 -250 m 1,0,-1
 0 -216 l 1,1,2
 16 -216 16 -216 38 -211.5 c 128,-1,3
 60 -207 60 -207 77 -192.5 c 128,-1,4
 94 -178 94 -178 94 -147 c 0,5,6
 94 -127 94 -127 83 -109.5 c 128,-1,7
 72 -92 72 -92 44 -82 c 1,8,-1
 104 -56 l 1,9,10
 134 -72 134 -72 147 -95.5 c 128,-1,11
 160 -119 160 -119 160 -143 c 0,12,13
 160 -190 160 -190 126.5 -220 c 128,-1,14
 93 -250 93 -250 40 -250 c 1,0,-1
EndSplineSet
Validated: 1
EndChar

StartChar: uni0308
Encoding: 409 776 343
Width: 319
GlyphClass: 4
Flags: W
HStem: 590 107<16.5015 92.0138 227.986 303.014>
VStem: 0 108<606.501 681.014> 212 107<606.501 681.014>
AnchorPoint: "Anchor-4" 160 697 basemark 0
AnchorPoint: "Anchor-4" 160 496 mark 0
AnchorPoint: "Anchor-0" 160 496 mark 0
LayerCount: 2
Fore
SplineSet
54 590 m 0,0,1
 32 590 32 590 16 606 c 128,-1,2
 0 622 0 622 0 644 c 256,3,4
 0 666 0 666 16 681.5 c 128,-1,5
 32 697 32 697 54 697 c 0,6,7
 77 697 77 697 92.5 681.5 c 128,-1,8
 108 666 108 666 108 644 c 256,9,10
 108 622 108 622 92.5 606 c 128,-1,11
 77 590 77 590 54 590 c 0,0,1
265 590 m 0,12,13
 243 590 243 590 227.5 606 c 128,-1,14
 212 622 212 622 212 644 c 256,15,16
 212 666 212 666 227.5 681.5 c 128,-1,17
 243 697 243 697 265 697 c 0,18,19
 288 697 288 697 303.5 681.5 c 128,-1,20
 319 666 319 666 319 644 c 256,21,22
 319 622 319 622 303.5 606 c 128,-1,23
 288 590 288 590 265 590 c 0,12,13
EndSplineSet
Validated: 1
Substitution2: "'case' Case-Sensitive Forms lookup 15 subtable" uni0308.case
Substitution2: "Single Substitution lookup 7 subtable" uni0308.case
Substitution2: "Single Substitution lookup 6 subtable" uni0308.case
Substitution2: "Single Substitution lookup 4 subtable" uni0308.case
Substitution2: "Single Substitution lookup 3 subtable" uni0308.case
Substitution2: "'aalt' Access All Alternates lookup 0 subtable" uni0308.case
EndChar

StartChar: uni0307
Encoding: 411 775 345
Width: 108
GlyphClass: 4
Flags: W
HStem: 590 108<16.5015 92.0138>
VStem: 0 108<606.501 682.014>
AnchorPoint: "Anchor-4" 54 698 basemark 0
AnchorPoint: "Anchor-4" 54 496 mark 0
AnchorPoint: "Anchor-0" 54 496 mark 0
LayerCount: 2
Fore
SplineSet
54 590 m 0,0,1
 32 590 32 590 16 606 c 128,-1,2
 0 622 0 622 0 644 c 0,3,4
 0 667 0 667 16 682.5 c 128,-1,5
 32 698 32 698 54 698 c 4,6,7
 77 698 77 698 92.5 682.5 c 128,-1,8
 108 667 108 667 108 644 c 0,9,10
 108 622 108 622 92.5 606 c 128,-1,11
 77 590 77 590 54 590 c 0,0,1
EndSplineSet
Validated: 1
Substitution2: "'case' Case-Sensitive Forms lookup 15 subtable" uni0307.case
Substitution2: "Single Substitution lookup 7 subtable" uni0307.case
Substitution2: "Single Substitution lookup 6 subtable" uni0307.case
Substitution2: "Single Substitution lookup 4 subtable" uni0307.case
Substitution2: "Single Substitution lookup 3 subtable" uni0307.case
Substitution2: "'aalt' Access All Alternates lookup 0 subtable" uni0307.case
EndChar

StartChar: Euro
Encoding: 413 8364 347
Width: 664
GlyphClass: 1
Flags: W
HStem: -12 79<299.087 476.664> 240 51<43 100 197 343> 377 51<43 100 197 418> 500 21G<534.5 600.714> 601 79<297.027 472.531>
VStem: 99.5 89<291 377>
LayerCount: 2
Fore
SplineSet
380 -12 m 0,0,1
 268 -12 268 -12 197.5 57 c 128,-1,2
 127 126 127 126 106 240 c 1,3,-1
 15 240 l 1,4,-1
 43 291 l 1,5,-1
 100 291 l 1,6,7
 100 299 100 299 99.5 316.5 c 128,-1,8
 99 334 99 334 99.5 352 c 128,-1,9
 100 370 100 370 100 377 c 1,10,-1
 15 377 l 1,11,-1
 43 428 l 1,12,-1
 106 428 l 1,13,14
 128 544 128 544 202 612 c 128,-1,15
 276 680 276 680 387 680 c 0,16,17
 465 680 465 680 527.5 640.5 c 128,-1,18
 590 601 590 601 623 528 c 1,19,-1
 545 500 l 1,20,21
 524 545 524 545 483.5 573 c 128,-1,22
 443 601 443 601 382 601 c 0,23,24
 316 601 316 601 266 557 c 128,-1,25
 216 513 216 513 197 428 c 1,26,-1
 446 428 l 1,27,-1
 418 377 l 1,28,-1
 189 377 l 1,29,30
 189 370 189 370 188.5 352 c 128,-1,31
 188 334 188 334 188.5 316.5 c 128,-1,32
 189 299 189 299 189 291 c 1,33,-1
 371 291 l 1,34,-1
 343 240 l 1,35,-1
 197 240 l 1,36,37
 217 158 217 158 266.5 112.5 c 128,-1,38
 316 67 316 67 385 67 c 0,39,40
 445 67 445 67 486 94.5 c 128,-1,41
 527 122 527 122 549 167 c 1,42,-1
 626 139 l 1,43,44
 592 65 592 65 527.5 26.5 c 128,-1,45
 463 -12 463 -12 380 -12 c 0,0,1
EndSplineSet
EndChar

StartChar: uni2074
Encoding: 414 8308 348
Width: 412
GlyphClass: 1
Flags: W
HStem: 489 57<113 225 293 358>
VStem: 225 68<403 489 546 692>
LayerCount: 2
Fore
SplineSet
225 403 m 1,0,-1
 225 489 l 1,1,-1
 40 489 l 1,2,-1
 40 543 l 1,3,-1
 226 779 l 1,4,-1
 293 779 l 1,5,-1
 293 546 l 1,6,-1
 358 546 l 1,7,-1
 358 489 l 1,8,-1
 293 489 l 1,9,-1
 293 403 l 1,10,-1
 225 403 l 1,0,-1
113 546 m 1,11,-1
 225 546 l 1,12,-1
 225 692 l 1,13,-1
 113 546 l 1,11,-1
EndSplineSet
EndChar

StartChar: gravecomb
Encoding: 415 768 349
Width: 162
GlyphClass: 4
Flags: W
HStem: 571 136
VStem: 0 162
AnchorPoint: "Anchor-4" 81 707 basemark 0
AnchorPoint: "Anchor-4" 108 496 mark 0
AnchorPoint: "Anchor-0" 108 496 mark 0
LayerCount: 2
Fore
SplineSet
92 571 m 1,0,1
 73 587 73 587 52 604.5 c 128,-1,2
 31 622 31 622 17 636 c 0,3,4
 7 647 7 647 3.5 654.5 c 128,-1,5
 0 662 0 662 0 669 c 0,6,7
 0 685 0 685 11 696 c 128,-1,8
 22 707 22 707 38 707 c 0,9,10
 46 707 46 707 54 704 c 128,-1,11
 62 701 62 701 69 692 c 2,12,-1
 162 571 l 1,13,-1
 92 571 l 1,0,1
EndSplineSet
Validated: 1
Substitution2: "'case' Case-Sensitive Forms lookup 15 subtable" gravecomb.case
Substitution2: "Single Substitution lookup 7 subtable" gravecomb.case
Substitution2: "Single Substitution lookup 6 subtable" gravecomb.case
Substitution2: "Single Substitution lookup 4 subtable" gravecomb.case
Substitution2: "Single Substitution lookup 3 subtable" gravecomb.case
Substitution2: "'aalt' Access All Alternates lookup 0 subtable" gravecomb.case
EndChar

StartChar: gravecomb.case
Encoding: 416 -1 350
Width: 0
GlyphClass: 4
Flags: W
HStem: 744 120
VStem: 0 173
AnchorPoint: "Anchor-4" 87 864 basemark 0
AnchorPoint: "Anchor-4" 122 668 mark 0
AnchorPoint: "Anchor-0" 122 668 mark 0
LayerCount: 2
Fore
SplineSet
97 744 m 2,0,1
 94 746 94 746 78 755.5 c 128,-1,2
 62 765 62 765 43.5 777 c 128,-1,3
 25 789 25 789 16 796 c 0,4,5
 0 810 0 810 0 828 c 0,6,7
 0 843 0 843 10.5 853.5 c 128,-1,8
 21 864 21 864 36 864 c 0,9,10
 44 864 44 864 52 861.5 c 128,-1,11
 60 859 60 859 67 851 c 2,12,-1
 173 744 l 1,13,-1
 97 744 l 2,0,1
EndSplineSet
Validated: 1
EndChar

StartChar: uni030B
Encoding: 417 779 351
Width: 308
GlyphClass: 4
Flags: W
HStem: 572 136
VStem: 0 308
AnchorPoint: "Anchor-4" 154 708 basemark 0
AnchorPoint: "Anchor-4" 114 496 mark 0
AnchorPoint: "Anchor-0" 114 496 mark 0
LayerCount: 2
Fore
SplineSet
0 572 m 1,0,-1
 96 695 l 2,1,2
 106 708 106 708 124 708 c 0,3,4
 140 708 140 708 151 697 c 128,-1,5
 162 686 162 686 162 670 c 0,6,7
 162 663 162 663 160 656 c 128,-1,8
 158 649 158 649 151 643 c 2,9,-1
 70 572 l 1,10,-1
 0 572 l 1,0,-1
146 572 m 1,11,-1
 242 695 l 2,12,13
 252 708 252 708 270 708 c 0,14,15
 285 708 285 708 296.5 696.5 c 128,-1,16
 308 685 308 685 308 670 c 0,17,18
 308 663 308 663 306 656 c 128,-1,19
 304 649 304 649 297 643 c 2,20,-1
 216 572 l 1,21,-1
 146 572 l 1,11,-1
EndSplineSet
Validated: 1
Substitution2: "'case' Case-Sensitive Forms lookup 15 subtable" uni030B.case
Substitution2: "Single Substitution lookup 7 subtable" uni030B.case
Substitution2: "Single Substitution lookup 6 subtable" uni030B.case
Substitution2: "Single Substitution lookup 4 subtable" uni030B.case
Substitution2: "Single Substitution lookup 3 subtable" uni030B.case
Substitution2: "'aalt' Access All Alternates lookup 0 subtable" uni030B.case
EndChar

StartChar: dotlessi
Encoding: 419 305 353
Width: 274
GlyphClass: 2
Flags: W
HStem: 0 21G<112 196> 429 67<43 112>
VStem: 112 84<0 429>
AnchorPoint: "Anchor-2" 248 10 basechar 0
AnchorPoint: "Anchor-1" 137 0 basechar 0
AnchorPoint: "Anchor-0" 132 496 basechar 0
LayerCount: 2
Fore
SplineSet
112 0 m 1,0,-1
 112 429 l 1,1,-1
 43 429 l 1,2,-1
 43 496 l 1,3,-1
 196 496 l 1,4,-1
 196 0 l 1,5,-1
 112 0 l 1,0,-1
EndSplineSet
Validated: 1
EndChar

StartChar: uni0304
Encoding: 420 772 354
Width: 276
GlyphClass: 4
Flags: W
HStem: 601 67<0 276>
VStem: 0 276<601 668>
AnchorPoint: "Anchor-4" 138 668 basemark 0
AnchorPoint: "Anchor-4" 138 496 mark 0
AnchorPoint: "Anchor-0" 138 496 mark 0
LayerCount: 2
Fore
SplineSet
0 601 m 1,0,-1
 0 668 l 1,1,-1
 276 668 l 1,2,-1
 276 601 l 1,3,-1
 0 601 l 1,0,-1
EndSplineSet
Validated: 1
Substitution2: "'case' Case-Sensitive Forms lookup 15 subtable" uni0304.case
Substitution2: "Single Substitution lookup 7 subtable" uni0304.case
Substitution2: "Single Substitution lookup 6 subtable" uni0304.case
Substitution2: "Single Substitution lookup 4 subtable" uni0304.case
Substitution2: "Single Substitution lookup 3 subtable" uni0304.case
Substitution2: "'aalt' Access All Alternates lookup 0 subtable" uni0304.case
EndChar

StartChar: mu
Encoding: 181 181 356
Width: 555
GlyphClass: 1
Flags: W
HStem: -162 21G<70 154> -11 72<190.87 327.328> 0 75<475.901 539.765> 476 20G<70 154 385 469>
VStem: 70 84<-162 23.2494 99.3076 496> 385 84<123.423 496>
LayerCount: 2
Fore
SplineSet
70 -162 m 1,0,-1
 70 496 l 1,1,-1
 154 496 l 1,2,-1
 154 198 l 2,3,4
 154 123 154 123 181 92 c 128,-1,5
 208 61 208 61 260 61 c 0,6,7
 311 61 311 61 348 101.5 c 128,-1,8
 385 142 385 142 385 236 c 2,9,-1
 385 496 l 1,10,-1
 469 496 l 1,11,-1
 469 122 l 2,12,13
 469 94 469 94 479 84.5 c 128,-1,14
 489 75 489 75 510 75 c 0,15,16
 521 75 521 75 527.5 77 c 128,-1,17
 534 79 534 79 540 80 c 1,18,-1
 540 7 l 1,19,20
 531 5 531 5 517 2.5 c 128,-1,21
 503 0 503 0 480 0 c 0,22,23
 445 0 445 0 422 20 c 128,-1,24
 399 40 399 40 390 73 c 1,25,26
 369 35 369 35 332 12 c 128,-1,27
 295 -11 295 -11 239 -11 c 0,28,29
 204 -11 204 -11 179.5 -1 c 128,-1,30
 155 9 155 9 139 24 c 1,31,32
 144 0 144 0 149 -26.5 c 128,-1,33
 154 -53 154 -53 154 -79 c 2,34,-1
 154 -162 l 1,35,-1
 70 -162 l 1,0,-1
EndSplineSet
EndChar

StartChar: uni0328
Encoding: 422 808 357
Width: 157
GlyphClass: 4
Flags: W
HStem: -173 58<79.2358 156.313> -20 20G<61.5 157>
VStem: 0 70<-107.034 -34.266>
AnchorPoint: "Anchor-2" 157 0 mark 0
LayerCount: 2
Fore
SplineSet
94 -173 m 0,0,1
 49 -173 49 -173 24.5 -148 c 128,-1,2
 0 -123 0 -123 0 -91 c 0,3,4
 0 -60 0 -60 21.5 -34.5 c 128,-1,5
 43 -9 43 -9 80 0 c 1,6,-1
 157 0 l 1,7,8
 106 -19 106 -19 88 -37.5 c 128,-1,9
 70 -56 70 -56 70 -75 c 0,10,11
 70 -95 70 -95 84 -105 c 128,-1,12
 98 -115 98 -115 119 -115 c 0,13,14
 128 -115 128 -115 137.5 -113 c 128,-1,15
 147 -111 147 -111 157 -107 c 1,16,-1
 157 -161 l 1,17,18
 123 -173 123 -173 94 -173 c 0,0,1
EndSplineSet
Validated: 1
Substitution2: "'case' Case-Sensitive Forms lookup 15 subtable" uni0328.case
Substitution2: "Single Substitution lookup 7 subtable" uni0328.case
Substitution2: "Single Substitution lookup 6 subtable" uni0328.case
Substitution2: "Single Substitution lookup 4 subtable" uni0328.case
Substitution2: "Single Substitution lookup 3 subtable" uni0328.case
Substitution2: "'aalt' Access All Alternates lookup 0 subtable" uni0328.case
EndChar

StartChar: uni0328.case
Encoding: 423 -1 358
Width: 0
GlyphClass: 4
Flags: W
HStem: -173 58<79.2358 156.313>
VStem: 0 70<-107.034 -32.2612>
AnchorPoint: "Anchor-2" 157 0 mark 0
LayerCount: 2
Fore
SplineSet
94 -173 m 0,0,1
 49 -173 49 -173 24.5 -148 c 128,-1,2
 0 -123 0 -123 0 -91 c 0,3,4
 0 -55 0 -55 19 -32.5 c 128,-1,5
 38 -10 38 -10 57 0 c 1,6,-1
 157 0 l 1,7,8
 115 -15 115 -15 92.5 -31.5 c 128,-1,9
 70 -48 70 -48 70 -74 c 0,10,11
 70 -95 70 -95 84 -105 c 128,-1,12
 98 -115 98 -115 119 -115 c 0,13,14
 128 -115 128 -115 137.5 -113 c 128,-1,15
 147 -111 147 -111 157 -107 c 1,16,-1
 157 -161 l 1,17,18
 123 -173 123 -173 94 -173 c 0,0,1
EndSplineSet
Validated: 1
EndChar

StartChar: uni030A
Encoding: 424 778 359
Width: 218
GlyphClass: 4
Flags: W
HStem: 559 58<69.3475 148.728> 719 58<69.3475 148.728>
VStem: 0 57<629.61 706.718> 161 57<629.673 706.327>
AnchorPoint: "Anchor-4" 109 777 basemark 0
AnchorPoint: "Anchor-4" 109 496 mark 0
AnchorPoint: "Anchor-0" 109 496 mark 0
LayerCount: 2
Fore
SplineSet
111 559 m 0,0,1
 80 559 80 559 55 574 c 128,-1,2
 30 589 30 589 15 614 c 128,-1,3
 0 639 0 639 0 668 c 0,4,5
 0 698 0 698 15 722.5 c 128,-1,6
 30 747 30 747 55 762 c 128,-1,7
 80 777 80 777 111 777 c 0,8,9
 157 777 157 777 187.5 744.5 c 128,-1,10
 218 712 218 712 218 668 c 256,11,12
 218 624 218 624 187.5 591.5 c 128,-1,13
 157 559 157 559 111 559 c 0,0,1
109 617 m 256,14,15
 131 617 131 617 146 632 c 128,-1,16
 161 647 161 647 161 668 c 256,17,18
 161 689 161 689 146 704 c 128,-1,19
 131 719 131 719 109 719 c 256,20,21
 87 719 87 719 72 704 c 128,-1,22
 57 689 57 689 57 668 c 256,23,24
 57 647 57 647 72 632 c 128,-1,25
 87 617 87 617 109 617 c 256,14,15
EndSplineSet
Validated: 1
Substitution2: "'case' Case-Sensitive Forms lookup 15 subtable" uni030A.case
Substitution2: "Single Substitution lookup 7 subtable" uni030A.case
Substitution2: "Single Substitution lookup 6 subtable" uni030A.case
Substitution2: "Single Substitution lookup 4 subtable" uni030A.case
Substitution2: "Single Substitution lookup 3 subtable" uni030A.case
Substitution2: "'aalt' Access All Alternates lookup 0 subtable" uni030A.case
EndChar

StartChar: uni00AD
Encoding: 173 173 362
Width: 348
GlyphClass: 1
Flags: W
HStem: 208 81<38 310>
VStem: 38 272<208 289>
LayerCount: 2
Fore
SplineSet
38 208 m 1,0,-1
 38 289 l 1,1,-1
 310 289 l 1,2,-1
 310 208 l 1,3,-1
 38 208 l 1,0,-1
EndSplineSet
EndChar

StartChar: tildecomb
Encoding: 429 771 365
Width: 329
GlyphClass: 4
Flags: W
HStem: 575 63<173.562 268.285> 618 63<70.6853 163.92>
VStem: 0 65<577 612.883>
AnchorPoint: "Anchor-4" 165 681 basemark 0
AnchorPoint: "Anchor-4" 165 496 mark 0
AnchorPoint: "Anchor-0" 165 496 mark 0
LayerCount: 2
Fore
SplineSet
232 575 m 0,0,1
 216 575 216 575 200 580.5 c 128,-1,2
 184 586 184 586 164 596 c 0,3,4
 149 604 149 604 135.5 611 c 128,-1,5
 122 618 122 618 107 618 c 0,6,7
 70 618 70 618 65 577 c 1,8,-1
 0 577 l 1,9,10
 9 630 9 630 37.5 655.5 c 128,-1,11
 66 681 66 681 106 681 c 0,12,13
 134 681 134 681 154 670.5 c 128,-1,14
 174 660 174 660 191.5 649 c 128,-1,15
 209 638 209 638 230 638 c 0,16,17
 245 638 245 638 253.5 644 c 128,-1,18
 262 650 262 650 269 661 c 0,19,20
 275 672 275 672 283 676 c 128,-1,21
 291 680 291 680 298 680 c 0,22,23
 312 680 312 680 320.5 670.5 c 128,-1,24
 329 661 329 661 329 649 c 0,25,26
 329 634 329 634 316 617 c 128,-1,27
 303 600 303 600 281 587.5 c 128,-1,28
 259 575 259 575 232 575 c 0,0,1
EndSplineSet
Validated: 1
Substitution2: "'case' Case-Sensitive Forms lookup 15 subtable" tildecomb.case
Substitution2: "Single Substitution lookup 7 subtable" tildecomb.case
Substitution2: "Single Substitution lookup 6 subtable" tildecomb.case
Substitution2: "Single Substitution lookup 4 subtable" tildecomb.case
Substitution2: "Single Substitution lookup 3 subtable" tildecomb.case
Substitution2: "'aalt' Access All Alternates lookup 0 subtable" tildecomb.case
EndChar

StartChar: zero.alt1
Encoding: 431 -1 367
Width: 648
Flags: W
HStem: -12 74<242.233 406.031> 606 74<241.969 406.243>
VStem: 60 91<191.274 491.112> 497 91<178.169 483.765>
LayerCount: 2
Fore
SplineSet
324 -12 m 256,0,1
 195 -12 195 -12 127.5 77.5 c 128,-1,2
 60 167 60 167 60 335 c 0,3,4
 60 502 60 502 127.5 591 c 128,-1,5
 195 680 195 680 324 680 c 256,6,7
 453 680 453 680 520.5 591 c 128,-1,8
 588 502 588 502 588 335 c 0,9,10
 588 167 588 167 520.5 77.5 c 128,-1,11
 453 -12 453 -12 324 -12 c 256,0,1
168 190 m 1,12,13
 168 190 168 190 431 566 c 1,14,15
 389 606 389 606 324 606 c 0,16,17
 236 606 236 606 193.5 536 c 128,-1,18
 151 466 151 466 151 335 c 0,19,20
 151 250 151 250 168 190 c 1,12,13
324 62 m 0,21,22
 412 62 412 62 454.5 133 c 128,-1,23
 497 204 497 204 497 335 c 0,24,25
 497 379 497 379 492 417 c 128,-1,26
 487 455 487 455 477 486 c 1,27,28
 477 486 477 486 213 107 c 1,29,30
 255 62 255 62 324 62 c 0,21,22
EndSplineSet
Substitution2: "'aalt' Access All Alternates lookup 0 subtable" zero
Substitution2: "'tnum' Tabular Numbers lookup 14 subtable" zero
Substitution2: "'zero' Slashed Zero lookup 0-1" zero
EndChar

StartChar: copyleft
Encoding: 432 127279 368
Width: 798
Flags: W
HStem: -12 62<289.396 508.604> 150 59<331.657 456.658> 473 58<337.702 457.485> 618 62<289.396 508.604>
VStem: 53 62<224.396 443.604> 495 76<249.579 432.726> 683 62<224.396 443.604>
LayerCount: 2
Fore
SplineSet
399 -12 m 256,0,1
 327 -12 327 -12 264.5 15 c 128,-1,2
 202 42 202 42 154.5 89.5 c 128,-1,3
 107 137 107 137 80 199.5 c 128,-1,4
 53 262 53 262 53 334 c 256,5,6
 53 406 53 406 80 468.5 c 128,-1,7
 107 531 107 531 154.5 578.5 c 128,-1,8
 202 626 202 626 264.5 653 c 128,-1,9
 327 680 327 680 399 680 c 256,10,11
 471 680 471 680 533.5 653 c 128,-1,12
 596 626 596 626 643.5 578.5 c 128,-1,13
 691 531 691 531 718 468.5 c 128,-1,14
 745 406 745 406 745 334 c 256,15,16
 745 262 745 262 718 199.5 c 128,-1,17
 691 137 691 137 643.5 89.5 c 128,-1,18
 596 42 596 42 533.5 15 c 128,-1,19
 471 -12 471 -12 399 -12 c 256,0,1
399 50 m 256,20,21
 458 50 458 50 509.5 72 c 128,-1,22
 561 94 561 94 600 133 c 128,-1,23
 639 172 639 172 661 223.5 c 128,-1,24
 683 275 683 275 683 334 c 256,25,26
 683 393 683 393 661 444.5 c 128,-1,27
 639 496 639 496 600 535 c 128,-1,28
 561 574 561 574 509.5 596 c 128,-1,29
 458 618 458 618 399 618 c 256,30,31
 340 618 340 618 288.5 596 c 128,-1,32
 237 574 237 574 198 535 c 128,-1,33
 159 496 159 496 137 444.5 c 128,-1,34
 115 393 115 393 115 334 c 256,35,36
 115 275 115 275 137 223.5 c 128,-1,37
 159 172 159 172 198 133 c 128,-1,38
 237 94 237 94 288.5 72 c 128,-1,39
 340 50 340 50 399 50 c 256,20,21
397 150 m 0,40,41
 341 150 341 150 304 173 c 128,-1,42
 267 196 267 196 248 230 c 1,43,44
 248 230 248 230 314 254 c 1,45,46
 327 229 327 229 349.5 219 c 128,-1,47
 372 209 372 209 397 209 c 0,48,49
 440 209 440 209 467.5 242 c 128,-1,50
 495 275 495 275 495 342 c 256,51,52
 495 409 495 409 467.5 441 c 128,-1,53
 440 473 440 473 397 473 c 0,54,55
 343 473 343 473 317 424 c 1,56,57
 317 424 317 424 250 449 c 1,58,59
 269 485 269 485 305 508 c 128,-1,60
 341 531 341 531 395 531 c 0,61,62
 476 531 476 531 523.5 481 c 128,-1,63
 571 431 571 431 571 342 c 256,64,65
 571 253 571 253 526 201.5 c 128,-1,66
 481 150 481 150 397 150 c 0,40,41
EndSplineSet
EndChar

StartChar: f_i
Encoding: 433 64257 369
Width: 527
Flags: W
HStem: 0 21G<99 183 363 447> 429 67<15 99 183 363> 590 125<362.08 448.92> 635 71<192.802 286>
VStem: 99 84<0 429 496 621.588> 343 125<609.08 696.436> 363 84<0 429>
LayerCount: 2
Fore
SplineSet
363 0 m 1,0,-1
 363 429 l 1,1,-1
 183 429 l 1,2,-1
 183 0 l 1,3,-1
 99 0 l 1,4,-1
 99 429 l 1,5,-1
 15 429 l 1,6,-1
 15 496 l 1,7,-1
 99 496 l 1,8,-1
 99 570 l 2,9,10
 99 621 99 621 109 651 c 128,-1,11
 119 681 119 681 148 693.5 c 128,-1,12
 177 706 177 706 232 706 c 2,13,-1
 286 706 l 1,14,-1
 286 635 l 1,15,-1
 234 635 l 2,16,17
 202 635 202 635 192.5 622 c 128,-1,18
 183 609 183 609 183 571 c 2,19,-1
 183 496 l 1,20,-1
 447 496 l 1,21,-1
 447 0 l 1,22,-1
 363 0 l 1,0,-1
405 590 m 0,23,24
 380 590 380 590 361.5 608.5 c 128,-1,25
 343 627 343 627 343 653 c 128,-1,26
 343 679 343 679 361.5 697 c 128,-1,27
 380 715 380 715 405 715 c 0,28,29
 431 715 431 715 449.5 697 c 128,-1,30
 468 679 468 679 468 653 c 128,-1,31
 468 627 468 627 449.5 608.5 c 128,-1,32
 431 590 431 590 405 590 c 0,23,24
EndSplineSet
LCarets2: 1 286
Ligature2: "'liga' Standard Ligatures lookup 0-1" f i
EndChar

StartChar: f_f_i
Encoding: 434 64259 370
Width: 791
Flags: W
HStem: 0 21G<99 183 363 447 627 711> 429 67<15 99 183 363 447 627> 590 125<626.08 712.92> 635 71<192.802 286 456.802 550>
VStem: 99 84<0 429 496 621.588> 363 84<0 429 496 621.588> 607 125<609.08 696.436> 627 84<0 429>
LayerCount: 2
Fore
SplineSet
627 0 m 1,0,-1
 627 429 l 1,1,-1
 447 429 l 1,2,-1
 447 0 l 1,3,-1
 363 0 l 1,4,-1
 363 429 l 1,5,-1
 183 429 l 1,6,-1
 183 0 l 1,7,-1
 99 0 l 1,8,-1
 99 429 l 1,9,-1
 15 429 l 1,10,-1
 15 496 l 1,11,-1
 99 496 l 1,12,-1
 99 570 l 2,13,14
 99 621 99 621 109 651 c 128,-1,15
 119 681 119 681 148 693.5 c 128,-1,16
 177 706 177 706 232 706 c 2,17,-1
 286 706 l 1,18,-1
 286 635 l 1,19,-1
 234 635 l 2,20,21
 202 635 202 635 192.5 622 c 128,-1,22
 183 609 183 609 183 571 c 2,23,-1
 183 496 l 1,24,-1
 363 496 l 1,25,-1
 363 570 l 2,26,27
 363 621 363 621 373 651 c 128,-1,28
 383 681 383 681 412 693.5 c 128,-1,29
 441 706 441 706 496 706 c 2,30,-1
 550 706 l 1,31,-1
 550 635 l 1,32,-1
 498 635 l 2,33,34
 466 635 466 635 456.5 622 c 128,-1,35
 447 609 447 609 447 571 c 2,36,-1
 447 496 l 1,37,-1
 711 496 l 1,38,-1
 711 0 l 1,39,-1
 627 0 l 1,0,-1
669 590 m 0,40,41
 644 590 644 590 625.5 608.5 c 128,-1,42
 607 627 607 627 607 653 c 128,-1,43
 607 679 607 679 625.5 697 c 128,-1,44
 644 715 644 715 669 715 c 0,45,46
 695 715 695 715 713.5 697 c 128,-1,47
 732 679 732 679 732 653 c 128,-1,48
 732 627 732 627 713.5 608.5 c 128,-1,49
 695 590 695 590 669 590 c 0,40,41
EndSplineSet
LCarets2: 2 298 650
Ligature2: "'liga' Standard Ligatures lookup 0-1" f f i
EndChar

StartChar: f_l
Encoding: 435 64258 371
Width: 532
Flags: W
HStem: 0 74<455.257 517> 429 67<15 99 183 363> 635 71<192.802 286> 647 20G<363 447>
VStem: 99 84<0 429 496 621.588> 363 84<87.4124 429 496 667>
LayerCount: 2
Fore
SplineSet
480 0 m 2,0,1
 433 0 433 0 407.5 9.5 c 128,-1,2
 382 19 382 19 372.5 46 c 128,-1,3
 363 73 363 73 363 124 c 2,4,-1
 363 429 l 1,5,-1
 183 429 l 1,6,-1
 183 0 l 1,7,-1
 99 0 l 1,8,-1
 99 429 l 1,9,-1
 15 429 l 1,10,-1
 15 496 l 1,11,-1
 99 496 l 1,12,-1
 99 570 l 2,13,14
 99 621 99 621 109 651 c 128,-1,15
 119 681 119 681 148 693.5 c 128,-1,16
 177 706 177 706 232 706 c 2,17,-1
 286 706 l 1,18,-1
 286 635 l 1,19,-1
 234 635 l 2,20,21
 202 635 202 635 192.5 622 c 128,-1,22
 183 609 183 609 183 571 c 2,23,-1
 183 496 l 1,24,-1
 363 496 l 1,25,-1
 363 667 l 1,26,-1
 447 667 l 1,27,-1
 447 138 l 2,28,29
 447 100 447 100 455 87 c 128,-1,30
 463 74 463 74 498 74 c 2,31,-1
 517 74 l 1,32,-1
 517 0 l 1,33,-1
 480 0 l 2,0,1
EndSplineSet
LCarets2: 1 286
Ligature2: "'liga' Standard Ligatures lookup 0-1" f l
EndChar

StartChar: f_f_l
Encoding: 436 64260 372
Width: 796
Flags: W
HStem: 0 74<719.257 781> 429 67<15 99 183 363 447 627> 635 71<192.802 286 456.802 550> 647 20G<627 711>
VStem: 99 84<0 429 496 621.588> 363 84<0 429 496 621.588> 627 84<87.4124 429 496 667>
CounterMasks: 1 0e
LayerCount: 2
Fore
SplineSet
363 0 m 1,0,-1
 363 429 l 1,1,-1
 183 429 l 1,2,-1
 183 0 l 1,3,-1
 99 0 l 1,4,-1
 99 429 l 1,5,-1
 15 429 l 1,6,-1
 15 496 l 1,7,-1
 99 496 l 1,8,-1
 99 570 l 2,9,10
 99 621 99 621 109 651 c 128,-1,11
 119 681 119 681 148 693.5 c 128,-1,12
 177 706 177 706 232 706 c 2,13,-1
 286 706 l 1,14,-1
 286 635 l 1,15,-1
 234 635 l 2,16,17
 202 635 202 635 192.5 622 c 128,-1,18
 183 609 183 609 183 571 c 2,19,-1
 183 496 l 1,20,-1
 363 496 l 1,21,-1
 363 570 l 2,22,23
 363 621 363 621 373 651 c 128,-1,24
 383 681 383 681 412 693.5 c 128,-1,25
 441 706 441 706 496 706 c 2,26,-1
 550 706 l 1,27,-1
 550 635 l 1,28,-1
 498 635 l 2,29,30
 466 635 466 635 456.5 622 c 128,-1,31
 447 609 447 609 447 571 c 2,32,-1
 447 496 l 1,33,-1
 627 496 l 1,34,-1
 627 667 l 1,35,-1
 711 667 l 1,36,-1
 711 138 l 2,37,38
 711 100 711 100 719 87 c 128,-1,39
 727 74 727 74 762 74 c 2,40,-1
 781 74 l 1,41,-1
 781 0 l 1,42,-1
 744 0 l 2,43,44
 697 0 697 0 671.5 9.5 c 128,-1,45
 646 19 646 19 636.5 46 c 128,-1,46
 627 73 627 73 627 124 c 2,47,-1
 627 429 l 1,48,-1
 447 429 l 1,49,-1
 447 0 l 1,50,-1
 363 0 l 1,0,-1
EndSplineSet
LCarets2: 2 288 552
Ligature2: "'liga' Standard Ligatures lookup 0-1" f f l
EndChar

StartChar: f_f
Encoding: 437 64256 373
Width: 575
Flags: W
HStem: 0 21G<99 183 363 447> 429 67<15 99 183 363 447 550> 635 71<192.802 286 456.802 550>
VStem: 99 84<0 429 496 621.588> 363 84<0 429 496 621.588>
LayerCount: 2
Fore
SplineSet
99 0 m 1,0,-1
 99 429 l 1,1,-1
 15 429 l 1,2,-1
 15 496 l 1,3,-1
 99 496 l 1,4,-1
 99 570 l 2,5,6
 99 621 99 621 109 651 c 128,-1,7
 119 681 119 681 148 693.5 c 128,-1,8
 177 706 177 706 232 706 c 2,9,-1
 286 706 l 1,10,-1
 286 635 l 1,11,-1
 234 635 l 2,12,13
 202 635 202 635 192.5 622 c 128,-1,14
 183 609 183 609 183 571 c 2,15,-1
 183 496 l 1,16,-1
 363 496 l 1,17,-1
 363 570 l 2,18,19
 363 621 363 621 373 651 c 128,-1,20
 383 681 383 681 412 693.5 c 128,-1,21
 441 706 441 706 496 706 c 2,22,-1
 550 706 l 1,23,-1
 550 635 l 1,24,-1
 498 635 l 2,25,26
 466 635 466 635 456.5 622 c 128,-1,27
 447 609 447 609 447 571 c 2,28,-1
 447 496 l 1,29,-1
 550 496 l 1,30,-1
 550 429 l 1,31,-1
 447 429 l 1,32,-1
 447 0 l 1,33,-1
 363 0 l 1,34,-1
 363 429 l 1,35,-1
 183 429 l 1,36,-1
 183 0 l 1,37,-1
 99 0 l 1,0,-1
EndSplineSet
Ligature2: "'liga' Standard Ligatures lookup 0-1" f f
LCarets2: 1 0
EndChar

StartChar: dong
Encoding: 438 8363 374
Width: 603
Flags: W
HStem: -129 67<50 553> -12 72<200.01 346.113> 0 21G<428.133 513> 432 72<198.452 346.113> 548 67<249 412 496 578> 648 20G<412 496>
VStem: 38 94<136.359 356.96> 412 84<132.304 360.343 418 548 615 668>
LayerCount: 2
Fore
SplineSet
50 -129 m 1,0,-1
 50 -62 l 1,1,-1
 553 -62 l 1,2,-1
 553 -129 l 1,3,-1
 50 -129 l 1,0,-1
EndSplineSet
Refer: 319 273 N 1 0 0 1 0 0 2
EndChar

